<svg xmlns="http://www.w3.org/2000/svg" style="display:none">

	<!--
		TCLAS custom icon sprite
		Usage: <svg class="tclas-icon"><use href="...icons.svg#icon-name"></use></svg>
		Add new symbols below as needed.
	-->

	<!-- Luxembourg tricolor — horizontal bands: red / white / light-blue -->
	<symbol id="icon-flag-lux" viewBox="0 0 24 16">
		<rect width="24" height="5.33" y="0" fill="#EF3340"/>
		<rect width="24" height="5.33" y="5.33" fill="#FFFFFF"/>
		<rect width="24" height="5.34" y="10.66" fill="#00A3E0"/>
	</symbol>

	<!-- Minnesota state flag — simplified: royal blue field with white star -->
	<symbol id="icon-flag-mn" viewBox="0 0 24 16">
		<rect width="24" height="16" fill="#002B7F"/>
		<polygon points="12,3 13.6,7.2 18,7.2 14.4,9.8 15.8,14 12,11.2 8.2,14 9.6,9.8 6,7.2 10.4,7.2" fill="#FFFFFF"/>
	</symbol>

	<!-- Roude Léiw — simplified heraldic lion (rampant), single color -->
	<symbol id="icon-roude-leiw" viewBox="0 0 24 24">
		<path fill="currentColor" d="M15.5 2c-.8 0-1.5.4-2 1l-1 1.3L11.5 3c-.5-.6-1.2-1-2-1C8.1 2 7 3.1 7 4.5c0 .5.1.9.3 1.3L5 8.5c-.6.7-.8 1.6-.5 2.5l1.2 3.5c.2.6.6 1.1 1.1 1.4L8 17v3.5c0 .8.7 1.5 1.5 1.5h1c.8 0 1.5-.7 1.5-1.5V18h1v2.5c0 .8.7 1.5 1.5 1.5h1c.8 0 1.5-.7 1.5-1.5V17l1.2-1.1c.5-.3.9-.8 1.1-1.4l1.2-3.5c.3-.9.1-1.8-.5-2.5l-2.3-2.7c.2-.4.3-.8.3-1.3C17 3.1 15.9 2 15.5 2zm-2 5.5c.6 0 1 .4 1 1s-.4 1-1 1-1-.4-1-1 .4-1 1-1zm-3 0c.6 0 1 .4 1 1s-.4 1-1 1-1-.4-1-1 .4-1 1-1z"/>
	</symbol>

</svg>
