<?xml version="1.0" encoding="UTF-8"?>
<svg id="Layer_1" xmlns="http://www.w3.org/2000/svg" version="1.1" viewBox="0 0 612 792">
  <!-- Generator: Adobe Illustrator 29.8.4, SVG Export Plug-In . SVG Version: 2.1.1 Build 6)  -->
  <defs>
    <style>
      .st0 {
        fill: #fff;
      }
    </style>
  </defs>
  <path class="st0" d="M169.54,270.29c.33.34.9.39,1.27.03l4.89-4.68,17.47,18.26c.33.34.93.36,1.27.03l4.1-3.93c.34-.33.36-.93.03-1.27l-17.47-18.26,4.89-4.68c.38-.36.36-.93.03-1.27l-3.57-3.73c-.33-.34-.9-.39-1.27-.03l-15.19,14.52c-.38.36-.36.93-.03,1.27l3.57,3.73Z"/>
  <path class="st0" d="M212.65,267.73c.28.27.75.31,1.07.11l.64-.4c.28-.18.44-.55.41-.87l-2.95-20.98.12-.08,17.6,11.83c.27.17.68.19.96.02l.64-.4c.32-.2.49-.64.37-1.01l-9.26-31.71c-.19-.66-.76-.86-1.32-.51l-4.7,2.93c-.32.2-.47.68-.37,1.01l5.05,15.76-.16.1-15.05-10.24c-.23-.19-.6-.24-.96-.02l-.72.45c-.32.2-.44.55-.41.87l2.6,18.01-.16.1-11.95-11.45c-.26-.23-.75-.31-1.07-.11l-4.7,2.93c-.56.35-.63.95-.12,1.41l24.43,22.23Z"/>
  <rect class="st0" x="236.09" y="217.87" width="7.48" height="33.13" rx=".9" ry=".9" transform="translate(-70.86 108.14) rotate(-22.23)"/>
  <path class="st0" d="M255.32,244.7c.11.46.62.78,1.08.67l5.48-1.3c.51-.12.78-.62.67-1.08l-4.07-17.18h.05s22.52,13.97,22.52,13.97c.11.07.52.12.65.09l.74-.17c.46-.11.79-.58.68-1.04l-7.34-30.99c-.11-.46-.62-.78-1.08-.67l-5.53,1.31c-.51.12-.78.62-.67,1.08l3.87,16.35h-.05s-22.56-13.32-22.56-13.32l-1.15.27c-.46.11-.79.58-.68,1.04l7.38,30.98Z"/>
  <path class="st0" d="M324.19,239.53c4.19.4,8.38-.66,11.89-3.46.36-.3.47-.91.17-1.27l-3.3-4.26c-.25-.36-.86-.42-1.22-.17-1.84,1.3-4.32,1.86-6.53,1.65-5.32-.51-8.86-5.23-8.36-10.46.51-5.28,4.85-9.33,10.17-8.81,2.31.22,4.53,1.29,6.13,3.02.3.36.82.41,1.18.11l4.04-3.46c.41-.34.47-.91.08-1.32-2.92-3.23-6.27-5.03-10.98-5.48-9.42-.91-17.74,5.94-18.65,15.36-.91,9.42,5.95,17.64,15.37,18.55Z"/>
  <rect class="st0" x="330.52" y="222.6" width="33.13" height="7.48" rx=".9" ry=".9" transform="translate(45.82 510.83) rotate(-76.47)"/>
  <path class="st0" d="M357.97,246.74l5.33,1.96c.44.16.99-.09,1.15-.53l8.71-23.72,6.35,2.33c.49.18.99-.09,1.15-.53l1.78-4.84c.16-.44-.05-.97-.53-1.15l-19.72-7.24c-.49-.18-.99.09-1.15.53l-1.78,4.84c-.16.44.05.97.53,1.15l6.35,2.33-8.71,23.72c-.16.44.09.99.53,1.15Z"/>
  <rect class="st0" x="368.3" y="236.48" width="33.13" height="7.48" rx=".9" ry=".9" transform="translate(-3.14 475.33) rotate(-63.19)"/>
  <path class="st0" d="M387.45,260.27l16.22,11c.43.29.98.15,1.25-.24l2.89-4.27c.27-.39.19-.96-.24-1.25l-10.85-7.36,3.59-5.29,8.93,6.06c.39.27.96.19,1.25-.24l2.9-4.27c.27-.39.15-.98-.24-1.25l-8.93-6.06,3.29-4.86,10.85,7.36c.43.29.98.15,1.25-.24l2.89-4.27c.27-.39.19-.96-.24-1.25l-16.22-11c-.43-.29-.98-.15-1.25.24l-17.58,25.93c-.27.39-.19.96.24,1.25Z"/>
  <path class="st0" d="M422.99,270.15c1.46,3.14,1.62,5.38.26,6.82-1.14,1.2-2.95,1.12-4.32-.18-2.27-2.15-3.02-6.31-3.09-6.51-.08-.4-.67-1.09-1.36-.9l-4.32,1.32c-.73.22-.76.46-.74,1.13.04,1.54.76,5.74,5.23,9.97,5.05,4.78,11.5,4.1,14.85.56,4.42-4.68,2.14-10.81.47-14.41-1.67-3.67-1.8-5.61-.59-6.88.88-.93,2.59-.88,3.82.3,2.1,1.98,2.82,6.25,2.96,6.71.08.53.99.81,1.59.66l4.26-.99c.37-.11,1.02-.66.83-1.3-.32-1.73-1.34-6.16-4.92-9.54-5.29-5.01-11.19-4.08-14.41-.67-3.9,4.12-2.37,9.94-.52,13.91Z"/>
  <path class="st0" d="M493.65,414.15l-9.38-.99-9.1-7.62c-.36-.28-.85-.09-.9.38l-.4,3.82c-.03.26.11.4.22.5l5.6,4.72-6.46,3.45c-.13.08-.29.21-.31.44l-.4,3.82c-.05.47.4.76.8.56l10.51-5.47,9.36.99c.29.03.58-.18.62-.5l.37-3.5c.03-.29-.21-.59-.5-.62Z"/>
  <path class="st0" d="M491,432.65l-15.46-3.21.86-4.14c.07-.32-.15-.6-.44-.66l-3.16-.65c-.29-.06-.6.12-.66.44l-2.67,12.86c-.07.32.15.6.44.66l3.16.65c.29.06.6-.12.66-.44l.86-4.14,15.46,3.21c.29.06.6-.15.66-.44l.72-3.48c.06-.29-.15-.6-.44-.66Z"/>
  <path class="st0" d="M487.99,446.12l-3.08-.97c-.28-.09-.61.06-.7.37l-2.45,7.82-3.81-1.2,2.02-6.43c.09-.28-.06-.61-.37-.7l-3.08-.97c-.28-.09-.62.09-.7.37l-2.02,6.43-3.5-1.1,2.45-7.82c.1-.31-.09-.62-.37-.7l-3.08-.97c-.28-.09-.61.06-.7.37l-3.67,11.68c-.1.31.09.62.37.7l18.68,5.87c.28.09.61-.06.7-.37l3.67-11.68c.1-.31-.09-.62-.37-.7Z"/>
  <rect class="st0" x="469.12" y="453.67" width="4.67" height="20.7" rx=".56" ry=".56" transform="translate(-136.4 724.99) rotate(-67.78)"/>
  <path class="st0" d="M474.98,473.99l-3.24.92c-.27.06-.44.4-.38.67.32,1.37.07,2.94-.57,4.17-1.54,2.97-5.1,3.92-8.01,2.4-2.94-1.53-4.28-4.99-2.74-7.95.67-1.29,1.81-2.33,3.18-2.85.28-.09.43-.38.34-.66l-1.06-3.15c-.1-.32-.42-.48-.75-.36-2.55.94-4.38,2.46-5.74,5.09-2.73,5.25-.69,11.67,4.56,14.4,5.25,2.73,11.62.67,14.34-4.58,1.21-2.34,1.57-5.02.77-7.7-.09-.28-.42-.48-.7-.39Z"/>
  <path class="st0" d="M458.54,490.23c-4.84-3.4-11.46-2.25-14.86,2.59-3.4,4.84-2.2,11.43,2.65,14.82,4.84,3.4,11.4,2.24,14.79-2.6,3.4-4.84,2.26-11.42-2.58-14.81ZM457.25,502.33c-1.85,2.64-5.56,3.29-8.2,1.44-2.66-1.87-3.34-5.59-1.49-8.23,1.87-2.66,5.6-3.3,8.26-1.43,2.64,1.85,3.29,5.56,1.42,8.22Z"/>
  <path class="st0" d="M447.05,513.61c-2.99-2.69-6.79-1.16-9.01-.06-2.27,1.11-3.47,1.21-4.29.48-.59-.53-.59-1.6.12-2.39,1.2-1.34,3.86-1.86,4.15-1.96.33-.06.49-.63.39-1.01l-.69-2.64c-.08-.23-.43-.63-.82-.5-1.08.23-3.82.94-5.88,3.23-3.04,3.39-2.36,7.06-.18,9.02,2.64,2.37,6.25,1.32,8.7.1,1.94-.96,3.33-1.1,4.26-.27.77.69.75,1.82-.04,2.7-1.3,1.45-3.89,1.99-4.02,2.04-.25.06-.67.43-.54.87l.9,2.67c.15.45.3.47.71.44.96-.05,3.57-.57,6.14-3.43,2.9-3.24,2.37-7.25.11-9.28Z"/>
  <path class="st0" d="M416.34,524.65c-.18-.23-.56-.28-.79-.1l-2.81,2.17c-.26.2-.28.55-.1.79l6.43,8.3-.02.02-16.29-1.75-.58.45c-.23.18-.3.53-.12.76l12.21,15.72c.18.23.55.28.79.1l2.78-2.16c.26-.2.28-.55.1-.79l-6.76-8.72.02-.02,16.43,2.13c.08.01.32-.06.39-.12l.37-.29c.23-.18.3-.53.12-.77l-12.19-15.74Z"/>
  <path class="st0" d="M391.46,541.57c-.17-.11-.42-.13-.6-.03l-.26.15c-.18.1-.28.34-.27.53l2.06,21.86c.04.42.44.63.82.41l2.81-1.64c.51-.3.61-.77.56-1.15l-.28-2.58,6.94-4.06,2.1,1.48c.51.35.81.38,1.27.12l2.83-1.66c.38-.22.39-.68.05-.92l-18.04-12.51ZM395.82,554.75l-.55-5.33h.03s4.4,3.06,4.4,3.06l-3.88,2.27Z"/>
  <path class="st0" d="M387.87,563.4l-3.09-1.34c-.25-.12-.6.03-.72.28-.61,1.26-1.8,2.32-3.07,2.88-3.07,1.33-6.43-.18-7.73-3.2-1.32-3.04-.17-6.57,2.9-7.89,1.33-.57,2.87-.66,4.26-.2.27.11.57-.02.68-.29l1.17-3.11c.12-.31-.02-.64-.36-.75-2.57-.88-4.95-.86-7.66.32-5.43,2.35-7.91,8.61-5.56,14.04s8.59,7.86,14.02,5.51c2.42-1.04,4.39-2.9,5.46-5.49.11-.27-.02-.64-.29-.74Z"/>
  <rect class="st0" x="359.37" y="555.95" width="4.67" height="20.7" rx=".56" ry=".56" transform="translate(-158.39 140.83) rotate(-18.15)"/>
  <path class="st0" d="M350.58,571.65c2.28-1.58,3.54-4.12,2.94-6.77-.79-3.43-4.25-5.58-7.71-4.78l-8.62,1.98c-.32.07-.49.39-.42.67l4.38,19.08c.07.29.36.49.67.42l3.43-.79c.29-.07.49-.39.42-.67l-1.69-7.35,1.99-.46,5.59,6.76c.08.1.29.21.52.15l3.83-.88c.49-.11.59-.62.3-.95l-5.63-6.41ZM347.4,568.8l-4.27.98-1.03-4.5,4.27-.98c1.18-.27,2.42.48,2.69,1.69.28,1.21-.48,2.54-1.66,2.81Z"/>
  <path class="st0" d="M333.44,579.26l-8.14.91-.45-3.97,6.7-.75c.29-.03.53-.3.5-.62l-.36-3.2c-.03-.29-.33-.53-.62-.5l-6.7.75-.41-3.64,8.14-.91c.32-.04.53-.33.5-.62l-.36-3.2c-.03-.29-.3-.53-.62-.5l-12.17,1.37c-.32.04-.53.33-.5.62l2.19,19.46c.03.29.3.53.62.5l12.17-1.37c.32-.04.53-.33.5-.62l-.36-3.2c-.03-.29-.3-.53-.62-.5Z"/>
  <path class="st0" d="M310.59,564.64h-.47c-.15-.01-.42.1-.51.28l-7.1,12.64h-.06s-6.62-12.91-6.62-12.91c-.09-.18-.35-.3-.5-.31h-.47c-.24-.01-.51.19-.54.45l-3.72,19.81c-.07.38.19.65.55.66l3.49.07c.3,0,.54-.23.57-.46l1.48-9.11h.06s4.81,9.68,4.81,9.68c.09.18.32.33.5.34h.53c.15.01.42-.13.51-.31l5.15-9.49h.06s1.16,9.16,1.16,9.16c.03.24.29.48.55.48l3.49.07c.35,0,.63-.25.57-.64l-2.96-19.93c-.02-.27-.29-.48-.52-.48Z"/>
  <path class="st0" d="M280.02,562.85c-.06-.19-.24-.37-.45-.4l-.29-.05c-.2-.03-.43.08-.55.24l-12.27,18.2c-.24.35-.06.77.38.84l3.21.51c.58.09.96-.21,1.16-.53l1.42-2.17,7.94,1.26.68,2.47c.17.6.38.81.91.89l3.24.52c.44.07.73-.27.62-.68l-6.02-21.11ZM275.03,575.8l2.96-4.47h.03s1.45,5.18,1.45,5.18l-4.44-.71Z"/>
  <path class="st0" d="M250.57,555.19c-5.54-1.98-11.59.87-13.59,6.44-1.99,5.57.88,11.57,6.43,13.55,4.04,1.45,7.55.66,7.55.66.14-.04.33-.23.38-.37l2.66-7.5c.1-.28-.03-.61-.31-.71l-5.6-2.01c-.31-.11-.61.03-.72.34l-.99,2.76c-.1.28.04.58.35.69l1.75.63-.58,1.62c-.96.03-1.83-.15-2.64-.44-3.04-1.09-4.62-4.48-3.53-7.52,1.1-3.06,4.47-4.75,7.5-3.66,1.36.49,2.46,1.29,3.17,2.64.16.25.47.36.76.24l3.04-1.55c.3-.14.39-.49.21-.77-1.31-2.32-3.52-4.21-5.86-5.05Z"/>
  <path class="st0" d="M231.88,547.67l-7.89-3.99c-.29-.15-.62-.02-.76.25l-8.84,17.47c-.13.26-.04.61.25.75l3.14,1.59c.26.13.62.02.76-.25l3.41-6.73,1.82.92-.03,8.77c0,.13.09.34.3.45l3.51,1.78c.45.23.85-.1.84-.54l-.22-8.53c2.76.24,5.36-.9,6.59-3.33,1.59-3.14.3-7.01-2.87-8.61ZM230.62,554.29c-.56,1.11-1.99,1.64-3.07,1.1l-3.91-1.98,2.08-4.12,3.91,1.98c1.08.55,1.55,1.91.99,3.02Z"/>
  <path class="st0" d="M218.35,540.44l-3.01-2.04c-.27-.18-.61-.09-.78.15l-6.71,9.92c-1.16,1.71-3.39,2.21-5.15,1.02-1.74-1.18-2.09-3.41-.93-5.13l6.71-9.92c.17-.24.12-.6-.15-.78l-3.01-2.04c-.25-.17-.61-.09-.78.15l-6.84,10.12c-2.52,3.72-1.5,8.92,2.35,11.52,3.87,2.62,9.09,1.65,11.61-2.07l6.84-10.12c.17-.25.09-.61-.15-.78Z"/>
  <path class="st0" d="M193.91,521.66c-4.41-3.95-11.09-3.54-15.03.87-3.95,4.41-3.58,11.05.82,15,4.41,3.95,11.07,3.6,15.02-.8,3.95-4.41,3.6-11.11-.81-15.06ZM191.19,533.56c-2.15,2.4-5.91,2.61-8.33.44-2.4-2.15-2.61-5.91-.46-8.31,2.17-2.42,5.95-2.65,8.35-.5,2.42,2.17,2.61,5.95.44,8.38Z"/>
  <path class="st0" d="M179.4,515.82c2.35-2.03,2.28-5.77,0-8.41l-4.51-5.21c-.21-.25-.57-.25-.79-.06l-14.79,12.83c-.22.19-.27.55-.06.79l4.81,5.54c2.31,2.66,6.03,3.3,8.54,1.13,2.06-1.78,1.58-4.54,1.05-6.15,1.47.57,4.06,1.02,5.78-.47ZM169.88,518.29c-.92.79-2.27.68-3.03-.19l-1.76-2.03,3.2-2.77,1.57,1.81c.76.87.92,2.41.02,3.19ZM172.7,512.51l-1.51-1.74,3.13-2.71,1.51,1.74c.74.85.73,2.11-.16,2.88-.89.78-2.23.68-2.97-.17Z"/>
  <path class="st0" d="M169.66,495.02l-.26-.4c-.08-.12-.33-.28-.52-.26l-14.45,1.26-.03-.05,6.93-12.74c.1-.17.05-.46-.03-.58l-.26-.4c-.13-.2-.45-.31-.69-.19l-18.46,8.1c-.35.16-.43.53-.24.83l1.91,2.92c.16.25.49.32.7.21l8.36-3.92.03.05-5.28,9.43c-.1.17-.09.45,0,.6l.29.45c.08.12.35.27.55.24l10.74-1.1.03.05-6.92,6.12c-.18.15-.23.51-.09.73l1.91,2.92c.19.3.56.37.85.11l14.79-13.69c.21-.17.23-.51.1-.7Z"/>
  <path class="st0" d="M142.3,482.3l-3.54-7.39,3.6-1.73,2.92,6.08c.13.27.46.4.75.26l2.91-1.39c.27-.13.39-.48.26-.75l-2.92-6.08,3.31-1.59,3.54,7.39c.14.29.48.39.75.26l2.91-1.39c.27-.13.4-.46.26-.75l-5.29-11.04c-.14-.29-.48-.39-.75-.26l-17.65,8.47c-.27.13-.4.46-.26.75l5.29,11.04c.14.29.48.39.75.26l2.91-1.39c.27-.13.4-.46.26-.75Z"/>
  <path class="st0" d="M149.05,460.27c.45.13.78-.27.62-.75l-1.42-4.08c-.07-.2-.28-.34-.41-.36l-6.33-1.46v-.03s4.07-5.02,4.07-5.02c.08-.12.16-.34.1-.53l-1.42-4.08c-.16-.47-.66-.55-.95-.2l-6.78,8.68-11.29-2.65c-.45-.13-.78.27-.62.75l1.35,3.88c.08.22.28.34.42.39l6.89,1.62.02.06-4.37,5.62c-.11.13-.14.39-.09.56l1.35,3.88c.16.45.63.56.94.18l7.21-9.08,10.71,2.63Z"/>
  <path class="st0" d="M130.6,442.48l11.95-2.53c.29-.06.49-.38.43-.67l-.75-3.56c-.07-.32-.38-.49-.67-.43l-11.72,2.48c-2.03.43-3.97-.76-4.41-2.84-.44-2.05.87-3.9,2.89-4.33l11.72-2.48c.29-.06.5-.35.43-.67l-.75-3.56c-.06-.29-.38-.49-.67-.43l-11.95,2.53c-4.4.93-7.27,5.38-6.3,9.92.97,4.57,5.4,7.5,9.8,6.57Z"/>
  <path class="st0" d="M122.86,421.26l-.68-7.01,15.72-1.53c.29-.03.53-.32.5-.61l-.34-3.5c-.03-.32-.32-.53-.61-.51l-19.49,1.9c-.29.03-.54.29-.51.61l1.08,11.07c.03.32.32.53.61.5l3.21-.31c.29-.03.54-.29.5-.61Z"/>
  <path class="st0" d="M306,538.47c78.41,0,141.97-63.56,141.97-141.97s-63.56-141.97-141.97-141.97-141.97,63.56-141.97,141.97,63.56,141.97,141.97,141.97ZM373.29,314.18c6.48-2.51,13.86-4.19,20.84-4.49-.57,6.17-7.17,10.03-12.88,10.31,1.29,3.93,12.31.41,12.88.86-5.77,12.08-16.39,4.42-24.52,4.25-3.92-.08-6.18,2.32-9.84-2.13-.6-2.41,11.22-7.91,13.52-8.8ZM309.6,278.72c.6.83,1.92.77,2.05.92,1.71,1.99-3.63,2.26-3.41,2.97,3.91,7.45,8.48,2.96,6.01-3.85,1.26-.55,4.67,1.17,5.1.84.3-.23,1.45-5.34,3.05-5.99,3.15,2.52,3.43,4.91,2.16,8.57l2.57-.85c.21,2.24-4.32,4.44-4.35,4.77-.32,3.99,3.47,3.78,6.03,2.03.68-.93-2.07-4.05.54-5.05l10.66,2.53c-4.48,1.21-8.91,3.88-10.44,8.49l-23.83-7.71c.07-4.37-.84-8.63-4.37-11.51,4.74-3.54,6.31,1.19,8.22,3.83ZM326.26,295.5c.06,1.56-2.26.95-3.24.69-1.91-.5-16.72-5.62-17.36-6.29-.06-.07-.32-1.81.41-1.69,2.39,1.61,20.14,5.94,20.19,7.29ZM278.16,297.65c.32,4.72,1.93,9.65,6.06,12.41,5.44,3.64,11.24.04,17.13,3.92.54,3.7-5.04.01-7.33-.06-4.15-.13-8.44,2.03-13.33.52-6.8-2.1-9.08-12.64-2.54-16.8ZM234.36,329.43c-2.47-4.48-4.76-9.25-4.29-14.59l8.58,3.43c2.65-7.72-5.86-12.07-1.7-20.62,2.49,1.16,5.77,1.82,7.77,3.82,1.97,1.97,1.52,4.35,3.38,5.63-.79-4.44-2.55-7.39-.84-12.02,12.42,3.09,2.69,17.8,1.8,25.43-1.07,9.2,1.29,16.36,8.48,22.24-8.8,5.69-6.86,15.87-4.29,24.48-2.08-.93-9.77-4.94-9.38-7.18.21-1.21,3.06-2.03,2.51-3.98-4.37.49-7.6-.27-10.29-3.87l3.41-4.71c-3.79-1.15-7.04-4.12-8.58-7.74l5.15-2.58c-2.54-.1-7.32-4.1-7.74-6.44-.46-2.74,5.04-.59,6.03-1.31ZM205.82,379.88c-7.7-1.92-7.39-4.03-.41-6.81,7.18-2.86,12.98-3.1,20.1.01,8.56,3.75,8.67,9.36,20.34,4.35,1.15-.49,9.61-5.06,10-5.47,1.82-1.91-2.28-9.32-2.63-12.84-.61-6.06-.3-12.91,6.91-14.22l-.78,8.95,2.49,6.5c-.21-7.67-.65-19.2,7.74-22.32l-1.8,9.01,1.79,7.3c.29-8.32.61-20.4,10.95-22.12,6.64-1.11,16.92,2.11,16.44-8.7l-6.69-1.89.03-2.83c2.12-4.15,9.1,1.57,11,.25-.18-2.05,2.91-7.87,2.64-8.91-.77-3-11.75.31-14.62-2.59-2.22-2.25.14-5.4,0-7.72-.09-1.44-1.54-2.88-1.51-3.48.15-2.45,11.23-4.32,13.55-4.72-.59,3.85,2.39,5.4,3.87,8.58,2.33-3.36,4.05-2.46,7.29-.84.95-4.11-8.67-2.45-9.33-3.55-1.17-4.66,1.64-3.63,4.89-2.73,3.59.99,12.9,5.96,15.34,6.13,1.39.1,3.96-3.29,6.96-.48,1.8,1.68-.57,4.36-.57,6.23,0,1.98,2.01,6.73,2.38,9.55,1.24,9.48.82,18.73-3.19,27.54-1.5,3.29-5.2,7.44-5.98,11.21-.73,3.52.89,7.8.7,11.86-.26,5.76-2.25,10.33-6.05,14.56-.94,1.04-7.34,5.13-6,6.45l8.13-4.29c6.58,10.16,21.18,12.79,26.35,23.98,9.46-1.08,12.14-9.78,9.93-18.14-2.75-10.42-12.52-16.56-13.53-27.7-.8-8.79,2.12-18.29,7.4-25.31,2.58-3.44,3.43-2.74,6.29.36-2.8,3.78-5.43,8.52-6.54,13.13-4.98,20.74,14.6,30.43,12.66,50.88,12.83-12.79,16.34-31.93,9.6-48.69-4.67-11.61-13.29-23.28-27.23-21.75-7.63.84-4.85,8.03-1.33,12.34l-2.21,2.2c-8.84-4.89-10.41-17.59.55-20.98,14.84-4.59,29.77,10.31,35.36,23.03,11.65,26.45,1.68,62.66-29.36,68.46,4.08,16.5,14.47,36.07,34.36,33.5-.73,2.86-2.94,4.86-3.7,7.89-1.45,5.76-.37,15.99,4.56,20.03l-4.29.43,3.43,10.3-6.01-2.56,2.57,8.58-4.29-1.71c-.66,5.8.89,10.9,2.57,16.31l-9.43-3.43c-1.87,6.47-10.94,14.61-17.65,15.45-2.86.36.11-4.93-2.09-6.48l-6.89.48c-.86-.76,7.19-8.21,8.1-9.5,12.1-16.94,13.85-40.59-6.67-51.63-14.93-8.03-15.13-3.68-23.77-20.47.7,4.23.94,7.75,2.58,12.02-10.12.84-18.02,5.28-24.89,12.49-1.37,1.44-2.73,4.52-3.94,5.59-.86.76-1.92-.03-2,.07-.46.58-1.49,6.21-2.69,7.62l-5.13-4.29-4.73,9.43-3.44-5.98c-3.4,4.63-6.69,10.21-13.31,9.43l.85-7.72c-3.39,1.04-5.38,4.08-8.96,5.2-1.58.49-9.76,2.06-8.65-.9l3.01-8.6c-9.48,3.34-14.8-1.53-20.61-8.17l11.16-2.16c-2.17-3.72-4.85-7.38-4.29-12.01,21.88,14.92,44.41,21.54,54.73-9.26,2.55-7.61,2.2-16.09,10.13-20.8l5.57,11.59c2.79,2.92,5.83,6.42,10.3,6.44l-7.31-6-2.13-4.3,10.3,3.87c-4.75-4.3-14.59-5.24-14.6-13.32,11.37-2.25,14.03,11.95,18.04,19.75-2.7-16.31-9.48-23.7-24.32-31.08-5.46-2.72-12.05-3.07-16.03-8.03l4.61-5.66c3.27-6.39,3.62-13.63,9.98-17.93-10.95,2.73-10.32,18.31-19.73,22.81-4.51,2.15-4.36-.58-8.62-1.33,1.88,2.67-5.93,6.88-6.87,6l1.29-6.86c-2.78,2.8-6.38,6.75-10.36,7.68-3.64.85,2.31-5.46-.8-5.1-2.93,2.81-7.48,7.24-11.6,6.44l2.56-5.59c-2.39,1.45-4.52,3.33-7.13,4.45-10.18,4.37-1.81-4.11-4.89-9.6-6.08,5.72-14.34,3.01-21.46.85l12.02-7.71c-4.06.48-7.32.76-11.36-.25Z"/>
  <path class="st0" d="M290.68,387.05c-1.8,1.57-4.26,1.07-3.91,3.38,5.11-2.33,10.45-2.65,12.3-8.74,2.04-6.73.66-9.98,7.02-15.32,1.36-1.14,3.51-1.14,3.87-2.56-12.81.74-12.11,17.02-19.27,23.24Z"/>
  <path class="st0" d="M300.06,387.82c14-3.78,8.33-17.27,16.76-24.88-9.01,2.31-7.31,13.13-12.86,19.34-1.47,1.64-6.53,3.95-3.9,5.54Z"/>
  <path class="st0" d="M505.02,312.42c-10.88-25.72-26.45-48.82-46.29-68.66-19.84-19.84-42.94-35.41-68.66-46.29-26.63-11.26-54.92-16.98-84.08-16.98s-57.45,5.71-84.08,16.98c-25.72,10.88-48.82,26.45-68.66,46.29-19.84,19.84-35.41,42.94-46.29,68.66-11.26,26.63-16.98,54.92-16.98,84.08s5.71,57.45,16.98,84.08c10.88,25.72,26.45,48.82,46.29,68.66,19.84,19.84,42.94,35.41,68.66,46.29,26.63,11.26,54.92,16.98,84.08,16.98s57.45-5.71,84.08-16.98c25.72-10.88,48.82-26.45,68.66-46.29,19.84-19.84,35.41-42.94,46.29-68.66,11.26-26.63,16.98-54.92,16.98-84.08s-5.71-57.45-16.98-84.08ZM499.58,478.27c-10.58,25.02-25.73,47.48-45.02,66.78-19.3,19.29-41.76,34.44-66.78,45.02-25.9,10.95-53.41,16.51-81.77,16.51s-55.88-5.55-81.77-16.51c-25.02-10.58-47.48-25.73-66.78-45.02-19.29-19.29-34.44-41.76-45.02-66.78-10.95-25.9-16.51-53.41-16.51-81.77s5.55-55.88,16.51-81.77c10.58-25.02,25.73-47.48,45.02-66.78,19.29-19.29,41.76-34.44,66.78-45.02,25.9-10.95,53.41-16.51,81.77-16.51s55.88,5.55,81.77,16.51c25.02,10.58,47.48,25.73,66.78,45.02,19.29,19.29,34.44,41.76,45.02,66.78,10.95,25.9,16.51,53.41,16.51,81.77s-5.55,55.88-16.51,81.77Z"/>
  <polygon class="st0" points="491.34 362.85 495.72 352.29 485.16 356.67 480.78 346.11 476.41 356.67 465.85 352.29 470.22 362.85 459.66 367.23 470.22 371.61 465.85 382.17 476.41 377.79 480.78 388.35 485.16 377.79 495.72 382.17 491.34 371.61 501.9 367.23 491.34 362.85"/>
  <polygon class="st0" points="125.23 377.79 129.61 388.35 133.99 377.79 144.55 382.17 140.17 371.61 150.73 367.23 140.17 362.85 144.55 352.29 133.99 356.67 129.61 346.11 125.23 356.67 114.67 352.29 119.05 362.85 108.49 367.23 119.05 371.61 114.67 382.17 125.23 377.79"/>
</svg>