<?xml version="1.0" encoding="UTF-8" standalone="no"?>
<!DOCTYPE svg PUBLIC "-//W3C//DTD SVG 1.1//EN" "http://www.w3.org/Graphics/SVG/1.1/DTD/svg11.dtd">
<svg width="100%" height="100%" viewBox="0 0 2245 600" version="1.1" xmlns="http://www.w3.org/2000/svg" xmlns:xlink="http://www.w3.org/1999/xlink" xml:space="preserve" xmlns:serif="http://www.serif.com/" style="fill-rule:evenodd;clip-rule:evenodd;stroke-linejoin:round;stroke-miterlimit:2;">
    <g transform="matrix(1,0,0,1,-152.026667,-1681.958333)">
        <g transform="matrix(4.166667,0,0,4.166667,0,0)">
            <g>
                <g transform="matrix(1,0,0,1,91.2563,403.724)">
                    <path d="M0,30.977L17,26.397L33.941,31.031L42.82,9.492L35.127,13.64C34.645,14.274 35.597,17.941 35.351,18.9L29.591,22.582L28.616,17.908C29.561,16.991 30.724,16.31 31.547,15.272L30.016,7.991L29.512,8.121L24.544,12.767C24.107,13.688 25.446,15.828 25.151,16.759C25.052,17.073 22.26,19.456 22.053,19.309L19.5,13.646C20.368,12.081 21.853,10.759 22.599,9.184L17.071,-0.054L16.929,-0.054L11.547,9.049C11.471,9.252 11.562,9.407 11.633,9.589C11.897,10.263 13.326,11.782 13.831,12.53C14.026,12.819 14.484,13.347 14.507,13.658C14.531,13.972 13.862,15.314 13.682,15.72C13.143,16.935 12.505,18.135 11.876,19.31C11.675,19.353 8.894,16.829 8.854,16.635C8.697,15.862 10.061,13.642 9.515,12.711L5.55,9.012L4.127,7.992L2.548,15.153C2.592,15.939 5.166,17.22 5.38,17.908C5.653,18.787 4.442,21.49 4.552,22.582C4.339,22.628 4.24,22.507 4.082,22.42C2.293,21.443 0.6,19.9 -1.208,18.9C-1.333,17.189 -0.893,15.446 -0.92,13.721L-8.819,9.492L-0.203,30.755L0,30.977Z" style="fill:rgb(251,251,249);fill-rule:nonzero;"/>
                </g>
                <g transform="matrix(1,0,0,1,147.4874,475.8736)">
                    <path d="M0,-14.49C-0.366,-14.405 -1.014,-14.658 -1.247,-14.658L-17.821,-14.658C-17.402,-16.336 -16.418,-17.908 -15.931,-19.596C-15.109,-22.441 -15.235,-25.049 -16.572,-27.72L-21.766,-29.216C-22.543,-29.399 -23.162,-29.101 -23.85,-28.823C-24.954,-28.377 -26.387,-27.55 -27.448,-26.954C-28.225,-26.518 -29.917,-25.653 -30.521,-25.164C-30.656,-25.054 -30.875,-24.758 -30.68,-24.602C-29.674,-23.797 -28.632,-22.974 -27.686,-22.11C-26.196,-20.749 -25.305,-20.314 -24.951,-18.255C-24.064,-13.099 -23.735,-7.815 -22.498,-2.743L0.355,14.909L32.397,0.751L32.397,0.069C21.551,-4.678 10.823,-9.689 0,-14.49" style="fill:rgb(251,251,249);fill-rule:nonzero;"/>
                </g>
                <g transform="matrix(1,0,0,1,113.9482,547.6697)">
                    <path d="M0,-59.183C-7.943,-50.944 -15.799,-42.304 -20.685,-31.98C-15.912,-21.235 -10.638,-10.701 -5.763,0L-5.62,0L9.458,-31.851L0.333,-58.956L0,-59.183Z" style="fill:rgb(251,251,249);fill-rule:nonzero;"/>
                </g>
                <g transform="matrix(1,0,0,1,96.798,487.9202)">
                    <path d="M0,-21.87L-5.614,-18.253C-5.637,-18.461 -5.432,-18.746 -5.317,-18.921C-3.6,-21.528 -1.321,-24.024 0.434,-26.636C0.819,-27.028 1.553,-27.024 2.112,-27.073C4.436,-27.274 7.867,-26.546 9.965,-25.546C10.198,-25.435 10.49,-25.379 10.325,-25.065C9.993,-24.43 8.374,-24.592 7.651,-24.218C7.184,-23.977 6.785,-23.374 6.313,-23.046C4.475,-21.769 2.125,-22.131 0,-21.87M-22.267,14.487C-22.212,14.649 -22.097,14.773 -21.952,14.867L-15.974,18.537L3.841,11.676C10.876,2.894 19.091,-5.141 25.054,-14.639L22.803,-31.033L22.267,-31.611L10.434,-40.176C9.631,-40.407 7.943,-39.736 7.122,-39.452C5.257,-38.808 3.462,-37.891 1.594,-37.251C0.847,-36.995 -1.732,-36.079 -2.31,-36.412C-2.819,-36.705 -3.004,-38.516 -2.981,-39.113C-3.197,-39.336 -4.912,-38.216 -5.183,-38.02C-6.514,-37.055 -8.207,-35.467 -9.456,-34.337C-10.537,-33.359 -14.843,-29.416 -15.18,-28.376C-15.282,-28.063 -15.528,-26.683 -15.144,-26.568C-14.773,-26.457 -13.005,-26.568 -12.441,-26.568C-12.035,-26.568 -12.447,-25.741 -12.53,-25.562C-13.201,-24.115 -15.009,-22.564 -16.209,-21.453C-19.163,-18.718 -23.561,-15.596 -25.861,-12.432C-26.797,-11.143 -27.297,-10.211 -25.251,-9.652C-22.571,-8.921 -20.834,-10.96 -18.425,-10.605C-17.637,-10.489 -17.009,-9.874 -16.018,-9.941C-15.301,-9.989 -12.643,-11.405 -12.371,-11.158C-13.209,-7.129 -19.797,-7.095 -20.325,-3.034C-20.572,-1.129 -20.16,0.816 -18.555,2.065C-16.729,3.485 -11.085,5.486 -8.748,5.619C-6.281,5.76 -2.869,4.561 -0.802,5.911C-0.024,6.419 0.345,6.865 -0.136,7.728C-1.228,9.683 -2.165,8.226 -3.621,8.068C-5.332,7.882 -6.956,8.487 -8.741,8.34C-12.071,8.065 -17.501,4.908 -20.112,5.217C-22.834,5.539 -22.716,9.691 -22.611,11.681C-22.581,12.262 -22.426,14.011 -22.267,14.487" style="fill:rgb(251,251,249);fill-rule:nonzero;"/>
                </g>
                <g transform="matrix(1,0,0,1,146.3727,508.5419)">
                    <path d="M0,-15.408C-7.319,-21.178 -14.862,-26.686 -22.121,-32.524C-22.477,-32.854 -22.9,-32.635 -23.242,-32.386C-24.214,-31.68 -27.556,-26.897 -28.43,-25.632C-28.928,-24.911 -30.101,-23.385 -30.083,-22.583C-27.037,-13.045 -23.709,-3.592 -20.528,5.905C-20.439,6.068 -20.284,6.126 -20.124,6.2C-18.884,6.772 -16.802,7.348 -15.42,7.827C-5.967,11.105 3.56,14.205 13.025,17.446C13.184,17.279 12.545,15.676 12.424,15.364C8.451,5.054 4.078,-5.135 0,-15.408" style="fill:rgb(251,251,249);fill-rule:nonzero;"/>
                </g>
                <g transform="matrix(1,0,0,1,122.6507,446.5958)">
                    <path d="M0,-7.719C-3.266,-6.064 -6.321,-4.013 -9.533,-2.266C-10.011,-2.006 -12.238,-1.05 -12.405,-0.788C-12.901,-0.012 -10.289,1.704 -9.672,2.048C-8.168,2.886 -7.894,2.762 -6.4,1.965C-4.286,0.838 -1.165,-1.952 0.984,-2.548C2.171,-2.878 6.211,-1.787 7.555,-1.374C9.065,-0.909 10.215,-0.703 10.86,0.776C11.497,2.237 12.473,6.343 12.246,7.837C12.143,8.51 10.64,11.956 10.999,12.302L24.372,12.302L36.723,-19.701L36.532,-20.021C33.582,-19.034 30.646,-17.982 27.673,-17.057C24.3,-16.007 20.609,-15.203 17.315,-14.036C15.235,-13.299 12.734,-12.75 10.533,-11.941C6.917,-10.613 3.4,-9.442 0,-7.719" style="fill:rgb(251,251,249);fill-rule:nonzero;"/>
                </g>
                <g transform="matrix(1,0,0,1,96.6617,515.5292)">
                    <path d="M0,-11.631C-0.172,-11.789 -2.207,-11.166 -2.59,-11.047C-5.634,-10.101 -8.457,-8.598 -11.449,-7.538C-12.369,-7.213 -15.729,-6.077 -16.505,-6.238C-17.344,-6.413 -19.306,-7.841 -20.103,-8.384C-21.184,-9.122 -22.393,-9.992 -23.397,-10.817C-24.557,-11.769 -25.067,-11.891 -25.185,-13.467C-25.329,-15.391 -24.473,-19.324 -25.651,-20.862C-25.882,-21.165 -27.32,-22.09 -27.57,-21.491L-39.547,10.459C-28.43,6.875 -17.41,2.996 -6.345,-0.738L-0.029,-11.32L0,-11.631Z" style="fill:rgb(232,217,197);fill-rule:nonzero;"/>
                </g>
                <g transform="matrix(1,0,0,1,96.5821,432.7365)">
                    <path d="M0,15.788C0.475,15.813 3.425,14.771 4.099,14.536C11.659,11.892 18.301,7.328 25.545,4.068C25.59,3.806 25.371,3.652 25.152,3.56L11.675,-0.025L-3.393,4.054L-3.489,4.273C-2.686,7.516 -2.026,10.845 -0.986,14.024C-0.842,14.465 -0.543,15.76 0,15.788" style="fill:rgb(251,251,249);fill-rule:nonzero;"/>
                </g>
                <g transform="matrix(1,0,0,1,71.2771,491.9698)">
                    <path d="M0,-9.08C-0.078,-9.173 -0.58,-10.262 -0.79,-9.55L-0.79,-3.413C-0.79,-3.122 0.465,-0.126 0.713,0.191C1.487,1.182 1.84,0.734 2.399,-0.083C3.769,-2.086 3.447,-4.228 2.365,-6.301C1.911,-7.171 0.675,-8.279 0,-9.08" style="fill:rgb(251,251,249);fill-rule:nonzero;"/>
                </g>
                <g transform="matrix(1,0,0,1,88.9147,439.5466)">
                    <path d="M0,8.986C2.225,8.189 3.796,6.592 3.446,4.179L2.329,0L1.802,0.018C0.258,1.714 -0.86,2.673 -0.793,5.107C-0.774,5.789 -0.46,8.058 -0.218,8.645C-0.164,8.776 -0.155,8.916 0,8.986" style="fill:rgb(251,251,249);fill-rule:nonzero;"/>
                </g>
                <g transform="matrix(1,0,0,1,68.3134,463.1798)">
                    <path d="M0,25.96C-0.336,24.418 -0.795,23.351 -0.67,21.697C-0.565,20.324 0.002,18.512 -0.342,17.152C-0.49,16.57 -0.992,16.062 -1.086,15.41C-1.742,10.896 4.931,7.195 7.496,4.025C8.279,3.057 8.434,2.885 7.279,2.21C5.083,0.926 2.617,-0.006 0.426,-1.312L-0.281,-1.393L-31.827,12.627L-31.827,13.309L0.181,27.353C0.243,27.288 0.042,26.154 0,25.96" style="fill:rgb(232,217,197);fill-rule:nonzero;"/>
                </g>
                <g transform="matrix(1,0,0,1,69.7916,431.9338)">
                    <path d="M0,27.289C2.742,29.036 5.766,30.446 8.527,32.208C9.79,32.643 9.075,30.065 9.077,29.348C9.096,24.304 12.48,23.294 15.777,20.352C15.998,20.155 16.988,19.256 17.034,19.092L15.369,11.246L19.058,5.768L19.181,5.369L-12.819,-5.354C-12.04,-2.95 -10.976,-0.62 -10.048,1.739C-6.708,10.235 -3.357,18.787 0,27.289" style="fill:rgb(232,217,197);fill-rule:nonzero;"/>
                </g>
                <g transform="matrix(1,0,0,1,91.2563,403.724)">
                    <path d="M0,30.977L17,26.397L33.941,31.031L42.82,9.492L35.127,13.64C34.645,14.274 35.597,17.941 35.351,18.9L29.591,22.582L28.616,17.908C29.561,16.991 30.724,16.31 31.547,15.272L30.016,7.991L29.512,8.121L24.544,12.767C24.107,13.688 25.446,15.828 25.151,16.759C25.052,17.073 22.26,19.456 22.053,19.309L19.5,13.646C20.368,12.081 21.853,10.759 22.599,9.184L17.071,-0.054L16.929,-0.054L11.547,9.049C11.471,9.252 11.562,9.407 11.633,9.589C11.897,10.263 13.326,11.782 13.831,12.53C14.026,12.819 14.484,13.347 14.507,13.658C14.531,13.972 13.862,15.314 13.682,15.72C13.143,16.935 12.505,18.135 11.876,19.31C11.675,19.353 8.894,16.829 8.854,16.635C8.697,15.862 10.061,13.642 9.515,12.711L5.55,9.012L4.127,7.992L2.548,15.153C2.592,15.939 5.166,17.22 5.38,17.908C5.653,18.787 4.442,21.49 4.552,22.582C4.339,22.628 4.24,22.507 4.082,22.42C2.293,21.443 0.6,19.9 -1.208,18.9C-1.333,17.189 -0.893,15.446 -0.92,13.721L-8.819,9.492L-0.203,30.755L0,30.977Z" style="fill:rgb(251,251,249);fill-rule:nonzero;"/>
                </g>
                <g transform="matrix(1,0,0,1,147.4874,475.8736)">
                    <path d="M0,-14.49C-0.366,-14.405 -1.014,-14.658 -1.247,-14.658L-17.821,-14.658C-17.402,-16.336 -16.418,-17.908 -15.931,-19.596C-15.109,-22.441 -15.235,-25.049 -16.572,-27.72L-21.766,-29.216C-22.543,-29.399 -23.162,-29.101 -23.85,-28.823C-24.954,-28.377 -26.387,-27.55 -27.448,-26.954C-28.225,-26.518 -29.917,-25.653 -30.521,-25.164C-30.656,-25.054 -30.875,-24.758 -30.68,-24.602C-29.674,-23.797 -28.632,-22.974 -27.686,-22.11C-26.196,-20.749 -25.305,-20.314 -24.951,-18.255C-24.064,-13.099 -23.735,-7.815 -22.498,-2.743L0.355,14.909L32.397,0.751L32.397,0.069C21.551,-4.678 10.823,-9.689 0,-14.49" style="fill:rgb(251,251,249);fill-rule:nonzero;"/>
                </g>
                <g transform="matrix(1,0,0,1,113.9482,547.6697)">
                    <path d="M0,-59.183C-7.943,-50.944 -15.799,-42.304 -20.685,-31.98C-15.912,-21.235 -10.638,-10.701 -5.763,0L-5.62,0L9.458,-31.851L0.333,-58.956L0,-59.183Z" style="fill:rgb(251,251,249);fill-rule:nonzero;"/>
                </g>
                <g transform="matrix(1,0,0,1,96.798,487.9202)">
                    <path d="M0,-21.87L-5.614,-18.253C-5.637,-18.461 -5.432,-18.746 -5.317,-18.921C-3.6,-21.528 -1.321,-24.024 0.434,-26.636C0.819,-27.028 1.553,-27.024 2.112,-27.073C4.436,-27.274 7.867,-26.546 9.965,-25.546C10.198,-25.435 10.49,-25.379 10.325,-25.065C9.993,-24.43 8.374,-24.592 7.651,-24.218C7.184,-23.977 6.785,-23.374 6.313,-23.046C4.475,-21.769 2.125,-22.131 0,-21.87M-22.267,14.487C-22.212,14.649 -22.097,14.773 -21.952,14.867L-15.974,18.537L3.841,11.676C10.876,2.894 19.091,-5.141 25.054,-14.639L22.803,-31.033L22.267,-31.611L10.434,-40.176C9.631,-40.407 7.943,-39.736 7.122,-39.452C5.257,-38.808 3.462,-37.891 1.594,-37.251C0.847,-36.995 -1.732,-36.079 -2.31,-36.412C-2.819,-36.705 -3.004,-38.516 -2.981,-39.113C-3.197,-39.336 -4.912,-38.216 -5.183,-38.02C-6.514,-37.055 -8.207,-35.467 -9.456,-34.337C-10.537,-33.359 -14.843,-29.416 -15.18,-28.376C-15.282,-28.063 -15.528,-26.683 -15.144,-26.568C-14.773,-26.457 -13.005,-26.568 -12.441,-26.568C-12.035,-26.568 -12.447,-25.741 -12.53,-25.562C-13.201,-24.115 -15.009,-22.564 -16.209,-21.453C-19.163,-18.718 -23.561,-15.596 -25.861,-12.432C-26.797,-11.143 -27.297,-10.211 -25.251,-9.652C-22.571,-8.921 -20.834,-10.96 -18.425,-10.605C-17.637,-10.489 -17.009,-9.874 -16.018,-9.941C-15.301,-9.989 -12.643,-11.405 -12.371,-11.158C-13.209,-7.129 -19.797,-7.095 -20.325,-3.034C-20.572,-1.129 -20.16,0.816 -18.555,2.065C-16.729,3.485 -11.085,5.486 -8.748,5.619C-6.281,5.76 -2.869,4.561 -0.802,5.911C-0.024,6.419 0.345,6.865 -0.136,7.728C-1.228,9.683 -2.165,8.226 -3.621,8.068C-5.332,7.882 -6.956,8.487 -8.741,8.34C-12.071,8.065 -17.501,4.908 -20.112,5.217C-22.834,5.539 -22.716,9.691 -22.611,11.681C-22.581,12.262 -22.426,14.011 -22.267,14.487" style="fill:rgb(251,251,249);fill-rule:nonzero;"/>
                </g>
                <g transform="matrix(1,0,0,1,146.3727,508.5419)">
                    <path d="M0,-15.408C-7.319,-21.178 -14.862,-26.686 -22.121,-32.524C-22.477,-32.854 -22.9,-32.635 -23.242,-32.386C-24.214,-31.68 -27.556,-26.897 -28.43,-25.632C-28.928,-24.911 -30.101,-23.385 -30.083,-22.583C-27.037,-13.045 -23.709,-3.592 -20.528,5.905C-20.439,6.068 -20.284,6.126 -20.124,6.2C-18.884,6.772 -16.802,7.348 -15.42,7.827C-5.967,11.105 3.56,14.205 13.025,17.446C13.184,17.279 12.545,15.676 12.424,15.364C8.451,5.054 4.078,-5.135 0,-15.408" style="fill:rgb(251,251,249);fill-rule:nonzero;"/>
                </g>
                <g transform="matrix(1,0,0,1,122.6507,446.5958)">
                    <path d="M0,-7.719C-3.266,-6.064 -6.321,-4.013 -9.533,-2.266C-10.011,-2.006 -12.238,-1.05 -12.405,-0.788C-12.901,-0.012 -10.289,1.704 -9.672,2.048C-8.168,2.886 -7.894,2.762 -6.4,1.965C-4.286,0.838 -1.165,-1.952 0.984,-2.548C2.171,-2.878 6.211,-1.787 7.555,-1.374C9.065,-0.909 10.215,-0.703 10.86,0.776C11.497,2.237 12.473,6.343 12.246,7.837C12.143,8.51 10.64,11.956 10.999,12.302L24.372,12.302L36.723,-19.701L36.532,-20.021C33.582,-19.034 30.646,-17.982 27.673,-17.057C24.3,-16.007 20.609,-15.203 17.315,-14.036C15.235,-13.299 12.734,-12.75 10.533,-11.941C6.917,-10.613 3.4,-9.442 0,-7.719" style="fill:rgb(251,251,249);fill-rule:nonzero;"/>
                </g>
                <g transform="matrix(1,0,0,1,96.6617,515.5292)">
                    <path d="M0,-11.631C-0.172,-11.789 -2.207,-11.166 -2.59,-11.047C-5.634,-10.101 -8.457,-8.598 -11.449,-7.538C-12.369,-7.213 -15.729,-6.077 -16.505,-6.238C-17.344,-6.413 -19.306,-7.841 -20.103,-8.384C-21.184,-9.122 -22.393,-9.992 -23.397,-10.817C-24.557,-11.769 -25.067,-11.891 -25.185,-13.467C-25.329,-15.391 -24.473,-19.324 -25.651,-20.862C-25.882,-21.165 -27.32,-22.09 -27.57,-21.491L-39.547,10.459C-28.43,6.875 -17.41,2.996 -6.345,-0.738L-0.029,-11.32L0,-11.631Z" style="fill:rgb(232,217,197);fill-rule:nonzero;"/>
                </g>
                <g transform="matrix(1,0,0,1,96.5821,432.7365)">
                    <path d="M0,15.788C0.475,15.813 3.425,14.771 4.099,14.536C11.659,11.892 18.301,7.328 25.545,4.068C25.59,3.806 25.371,3.652 25.152,3.56L11.675,-0.025L-3.393,4.054L-3.489,4.273C-2.686,7.516 -2.026,10.845 -0.986,14.024C-0.842,14.465 -0.543,15.76 0,15.788" style="fill:rgb(251,251,249);fill-rule:nonzero;"/>
                </g>
                <g transform="matrix(1,0,0,1,71.2771,491.9698)">
                    <path d="M0,-9.08C-0.078,-9.173 -0.58,-10.262 -0.79,-9.55L-0.79,-3.413C-0.79,-3.122 0.465,-0.126 0.713,0.191C1.487,1.182 1.84,0.734 2.399,-0.083C3.769,-2.086 3.447,-4.228 2.365,-6.301C1.911,-7.171 0.675,-8.279 0,-9.08" style="fill:rgb(251,251,249);fill-rule:nonzero;"/>
                </g>
                <g transform="matrix(1,0,0,1,88.9147,439.5466)">
                    <path d="M0,8.986C2.225,8.189 3.796,6.592 3.446,4.179L2.329,0L1.802,0.018C0.258,1.714 -0.86,2.673 -0.793,5.107C-0.774,5.789 -0.46,8.058 -0.218,8.645C-0.164,8.776 -0.155,8.916 0,8.986" style="fill:rgb(251,251,249);fill-rule:nonzero;"/>
                </g>
                <g transform="matrix(1,0,0,1,68.3134,463.1798)">
                    <path d="M0,25.96C-0.336,24.418 -0.795,23.351 -0.67,21.697C-0.565,20.324 0.002,18.512 -0.342,17.152C-0.49,16.57 -0.992,16.062 -1.086,15.41C-1.742,10.896 4.931,7.195 7.496,4.025C8.279,3.057 8.434,2.885 7.279,2.21C5.083,0.926 2.617,-0.006 0.426,-1.312L-0.281,-1.393L-31.827,12.627L-31.827,13.309L0.181,27.353C0.243,27.288 0.042,26.154 0,25.96" style="fill:rgb(232,217,197);fill-rule:nonzero;"/>
                </g>
                <g transform="matrix(1,0,0,1,69.7916,431.9338)">
                    <path d="M0,27.289C2.742,29.036 5.766,30.446 8.527,32.208C9.79,32.643 9.075,30.065 9.077,29.348C9.096,24.304 12.48,23.294 15.777,20.352C15.998,20.155 16.988,19.256 17.034,19.092L15.369,11.246L19.058,5.768L19.181,5.369L-12.819,-5.354C-12.04,-2.95 -10.976,-0.62 -10.048,1.739C-6.708,10.235 -3.357,18.787 0,27.289" style="fill:rgb(232,217,197);fill-rule:nonzero;"/>
                </g>
            </g>
            <g transform="matrix(0.292605,0,0,0.292605,-43.458711,246.366933)">
                <path d="M906.531,740.625L906.531,738.094L916.25,733.188L916.25,669.359L903.438,669.359L891.922,683.781L888.5,683.781L892,664.125L958.531,664.125L955.031,683.781L951.609,683.781L944.766,669.359L930.266,669.359L930.266,733.188L939.984,738.125L939.984,740.625L906.531,740.625Z" style="fill:rgb(232,217,197);fill-rule:nonzero;"/>
                <path d="M972.031,742.297L955.078,691.188L949.609,686.891L949.609,684.375L978.734,684.375L978.734,686.891L970.078,691.422L981.125,726.438L996.781,684.375L1002.047,684.375L1018.25,726.328L1028.734,691.422L1021.672,686.891L1021.672,684.375L1042.453,684.375L1042.453,686.891L1036.047,691.234L1019.203,739.297L1009.828,742.297L995.641,705.766L981.406,739.297L972.031,742.297Z" style="fill:rgb(232,217,197);fill-rule:nonzero;"/>
                <path d="M1044,740.625L1044,738.109L1052.109,733.719L1052.109,693.266L1043.594,690.109L1043.594,687.578L1061.5,682.703L1065.375,682.703L1065.375,733.719L1073.766,738.109L1073.766,740.625L1044,740.625ZM1059.25,674.234C1058.531,674.234 1057.654,674.013 1056.617,673.57C1055.581,673.128 1054.578,672.549 1053.609,671.836C1052.641,671.122 1051.818,670.357 1051.141,669.539C1050.464,668.721 1050.125,667.927 1050.125,667.156C1050.125,666.385 1050.406,665.521 1050.969,664.562C1051.531,663.604 1052.253,662.682 1053.133,661.797C1054.013,660.911 1054.922,660.182 1055.859,659.609C1056.797,659.036 1057.625,658.75 1058.344,658.75C1059.01,658.75 1059.862,658.971 1060.898,659.414C1061.935,659.857 1062.951,660.443 1063.945,661.172C1064.94,661.901 1065.776,662.674 1066.453,663.492C1067.13,664.31 1067.469,665.12 1067.469,665.922C1067.469,666.693 1067.167,667.549 1066.562,668.492C1065.958,669.435 1065.216,670.349 1064.336,671.234C1063.456,672.12 1062.547,672.841 1061.609,673.398C1060.672,673.956 1059.885,674.234 1059.25,674.234Z" style="fill:rgb(232,217,197);fill-rule:nonzero;"/>
                <path d="M1076.766,740.625L1076.766,738.109L1084.875,733.719L1084.875,693.266L1076.359,690.109L1076.359,687.578L1094.266,682.703L1098.141,682.703L1098.141,690.031C1102.036,687.552 1105.609,685.711 1108.859,684.508C1112.109,683.305 1114.875,682.703 1117.156,682.703C1120.188,682.703 1122.896,683.242 1125.281,684.32C1127.667,685.398 1129.552,686.987 1130.938,689.086C1132.323,691.185 1133.016,693.807 1133.016,696.953L1133.016,733.719L1141.125,738.109L1141.125,740.625L1116.359,740.625L1116.359,738.109L1119.75,733.719L1119.75,702.641C1119.75,700.151 1119.26,698.081 1118.281,696.43C1117.302,694.779 1115.99,693.531 1114.344,692.688C1112.698,691.844 1110.88,691.422 1108.891,691.422C1107.224,691.422 1105.453,691.635 1103.578,692.062C1101.703,692.49 1099.891,693.141 1098.141,694.016L1098.141,733.719L1105.266,738.109L1105.266,740.625L1076.766,740.625Z" style="fill:rgb(232,217,197);fill-rule:nonzero;"/>
                <path d="M1209.625,742.297C1202.438,742.297 1196.216,740.805 1190.961,737.82C1185.706,734.836 1181.667,730.474 1178.844,724.734C1176.021,718.995 1174.609,712.042 1174.609,703.875C1174.609,697.083 1175.677,691.12 1177.812,685.984C1179.948,680.849 1182.852,676.534 1186.523,673.039C1190.195,669.544 1194.383,666.906 1199.086,665.125C1203.789,663.344 1208.708,662.453 1213.844,662.453C1218.094,662.453 1221.984,662.758 1225.516,663.367C1229.047,663.977 1231.99,664.943 1234.344,666.266L1231.391,683.406L1228.078,683.406L1220.25,670.75C1218.51,670.177 1216.69,669.807 1214.789,669.641C1212.888,669.474 1211,669.391 1209.125,669.391C1204.896,669.391 1201.234,670.383 1198.141,672.367C1195.047,674.352 1192.682,677.62 1191.047,682.172C1189.411,686.724 1188.594,692.828 1188.594,700.484C1188.594,707.922 1189.672,714.271 1191.828,719.531C1193.984,724.792 1196.966,728.805 1200.773,731.57C1204.581,734.336 1208.943,735.719 1213.859,735.719C1215.026,735.719 1216.388,735.656 1217.945,735.531C1219.503,735.406 1220.823,735.219 1221.906,734.969L1232.984,719.969L1236.281,719.969L1233.141,737.891C1228.464,739.672 1224.219,740.852 1220.406,741.43C1216.594,742.008 1213,742.297 1209.625,742.297Z" style="fill:rgb(232,217,197);fill-rule:nonzero;"/>
                <path d="M1241.516,740.625L1241.516,738.109L1249.625,733.719L1249.625,693.266L1241.109,690.109L1241.109,687.578L1259.016,682.703L1262.891,682.703L1262.891,733.719L1271.281,738.109L1271.281,740.625L1241.516,740.625ZM1256.766,674.234C1256.047,674.234 1255.169,674.013 1254.133,673.57C1253.096,673.128 1252.094,672.549 1251.125,671.836C1250.156,671.122 1249.333,670.357 1248.656,669.539C1247.979,668.721 1247.641,667.927 1247.641,667.156C1247.641,666.385 1247.922,665.521 1248.484,664.562C1249.047,663.604 1249.768,662.682 1250.648,661.797C1251.529,660.911 1252.438,660.182 1253.375,659.609C1254.312,659.036 1255.141,658.75 1255.859,658.75C1256.526,658.75 1257.378,658.971 1258.414,659.414C1259.451,659.857 1260.466,660.443 1261.461,661.172C1262.456,661.901 1263.292,662.674 1263.969,663.492C1264.646,664.31 1264.984,665.12 1264.984,665.922C1264.984,666.693 1264.682,667.549 1264.078,668.492C1263.474,669.435 1262.732,670.349 1261.852,671.234C1260.971,672.12 1260.062,672.841 1259.125,673.398C1258.188,673.956 1257.401,674.234 1256.766,674.234Z" style="fill:rgb(232,217,197);fill-rule:nonzero;"/>
                <path d="M1296.406,742.297C1293.542,742.297 1290.87,741.714 1288.391,740.547C1285.911,739.38 1283.956,737.62 1282.523,735.266C1281.091,732.911 1280.406,730.016 1280.469,726.578L1281.156,689.375L1272.5,689.375L1272.5,686.516L1290.812,674L1294.375,674L1294.203,684.375L1300.062,684.375L1313.562,683.75L1312.141,690.375L1300.062,689.375L1294.156,689.375L1293.656,722.844C1293.573,726.573 1294.529,729.299 1296.523,731.023C1298.518,732.747 1300.854,733.609 1303.531,733.609C1305.583,733.609 1307.31,733.438 1308.711,733.094C1310.112,732.75 1311.635,732.307 1313.281,731.766L1314.516,735.141C1312.453,736.359 1310.393,737.518 1308.336,738.617C1306.279,739.716 1304.253,740.604 1302.258,741.281C1300.263,741.958 1298.312,742.297 1296.406,742.297Z" style="fill:rgb(232,217,197);fill-rule:nonzero;"/>
                <path d="M1316.438,740.625L1316.438,738.109L1324.547,733.719L1324.547,693.266L1316.031,690.109L1316.031,687.578L1333.938,682.703L1337.812,682.703L1337.812,733.719L1346.203,738.109L1346.203,740.625L1316.438,740.625ZM1331.688,674.234C1330.969,674.234 1330.091,674.013 1329.055,673.57C1328.018,673.128 1327.016,672.549 1326.047,671.836C1325.078,671.122 1324.255,670.357 1323.578,669.539C1322.901,668.721 1322.562,667.927 1322.562,667.156C1322.562,666.385 1322.844,665.521 1323.406,664.562C1323.969,663.604 1324.69,662.682 1325.57,661.797C1326.451,660.911 1327.359,660.182 1328.297,659.609C1329.234,659.036 1330.062,658.75 1330.781,658.75C1331.448,658.75 1332.299,658.971 1333.336,659.414C1334.372,659.857 1335.388,660.443 1336.383,661.172C1337.378,661.901 1338.214,662.674 1338.891,663.492C1339.568,664.31 1339.906,665.12 1339.906,665.922C1339.906,666.693 1339.604,667.549 1339,668.492C1338.396,669.435 1337.654,670.349 1336.773,671.234C1335.893,672.12 1334.984,672.841 1334.047,673.398C1333.109,673.956 1332.323,674.234 1331.688,674.234Z" style="fill:rgb(232,217,197);fill-rule:nonzero;"/>
                <path d="M1373.016,742.297C1368.141,742.297 1363.69,741.315 1359.664,739.352C1355.638,737.388 1352.44,734.305 1350.07,730.102C1347.701,725.898 1346.516,720.411 1346.516,713.641C1346.516,708.734 1347.227,704.378 1348.648,700.57C1350.07,696.763 1352.036,693.531 1354.547,690.875C1357.057,688.219 1359.94,686.193 1363.195,684.797C1366.451,683.401 1369.911,682.703 1373.578,682.703C1378.359,682.703 1382.237,683.589 1385.211,685.359C1388.185,687.13 1390.409,689.398 1391.883,692.164C1393.357,694.93 1394.258,697.888 1394.586,701.039C1394.914,704.19 1394.823,707.172 1394.312,709.984L1359.391,709.984C1359.443,715.526 1360.362,720.003 1362.148,723.414C1363.935,726.826 1366.346,729.294 1369.383,730.82C1372.419,732.346 1375.781,733.109 1379.469,733.109C1381.844,733.109 1384.221,732.789 1386.602,732.148C1388.982,731.508 1391.453,730.458 1394.016,729L1395.703,732.5C1392.255,735.052 1388.599,737.323 1384.734,739.312C1380.87,741.302 1376.964,742.297 1373.016,742.297ZM1359.422,705.406L1381.562,705.406C1381.562,701.677 1381.07,698.586 1380.086,696.133C1379.102,693.68 1377.685,691.836 1375.836,690.602C1373.987,689.367 1371.682,688.75 1368.922,688.75C1366.859,688.75 1365.159,689.203 1363.82,690.109C1362.482,691.016 1361.466,692.661 1360.773,695.047C1360.081,697.432 1359.63,700.885 1359.422,705.406Z" style="fill:rgb(232,217,197);fill-rule:nonzero;"/>
                <path d="M1419.297,742.297C1415.776,742.297 1412.435,742.034 1409.273,741.508C1406.112,740.982 1403.531,740.302 1401.531,739.469L1403.703,726.484L1406.719,726.484L1415.422,736.625C1415.984,736.76 1416.745,736.919 1417.703,737.102C1418.661,737.284 1419.635,737.375 1420.625,737.375C1424.229,737.375 1427.031,736.745 1429.031,735.484C1431.031,734.224 1432.031,731.995 1432.031,728.797C1432.031,726.505 1431.336,724.544 1429.945,722.914C1428.555,721.284 1425.703,719.688 1421.391,718.125L1416.75,716.297C1412.167,714.682 1408.641,712.552 1406.172,709.906C1403.703,707.26 1402.469,703.875 1402.469,699.75C1402.469,696.344 1403.495,693.362 1405.547,690.805C1407.599,688.247 1410.354,686.258 1413.812,684.836C1417.271,683.414 1421.099,682.703 1425.297,682.703C1428.911,682.703 1432.341,682.995 1435.586,683.578C1438.831,684.161 1441.286,684.786 1442.953,685.453L1440.734,698.266L1437.891,698.266L1428.766,688.109C1428.182,687.943 1427.427,687.799 1426.5,687.68C1425.573,687.56 1424.479,687.5 1423.219,687.5C1417.094,687.5 1414.031,690.005 1414.031,695.016C1414.031,697.443 1414.935,699.495 1416.742,701.172C1418.549,702.849 1421.057,704.255 1424.266,705.391L1429.125,707.234C1434.083,708.88 1437.81,710.995 1440.305,713.578C1442.799,716.161 1444.047,719.547 1444.047,723.734C1444.047,727.547 1442.893,730.841 1440.586,733.617C1438.279,736.393 1435.26,738.534 1431.531,740.039C1427.802,741.544 1423.724,742.297 1419.297,742.297Z" style="fill:rgb(232,217,197);fill-rule:nonzero;"/>
                <path d="M1480.281,740.625L1480.281,738.094L1489.531,733.375L1489.531,671.375L1480.281,666.531L1480.281,664.125L1514.703,664.125L1514.703,666.656L1503.5,671.375L1503.5,735.391L1524.25,735.391L1536.656,718.484L1540.031,718.484L1536.266,740.625L1480.281,740.625Z" style="fill:rgb(232,217,197);fill-rule:nonzero;"/>
                <path d="M1561.297,742.297C1557.026,742.297 1553.451,741.047 1550.57,738.547C1547.69,736.047 1546.25,732.547 1546.25,728.047L1546.25,693.266L1537.656,689.906L1537.656,687.484L1556.813,682.844L1560.688,682.844L1559.438,696.516L1559.438,722.328C1559.438,724.786 1559.904,726.854 1560.836,728.531C1561.768,730.208 1563.06,731.469 1564.711,732.312C1566.362,733.156 1568.193,733.578 1570.203,733.578C1571.703,733.578 1573.294,733.396 1574.977,733.031C1576.659,732.667 1578.708,731.984 1581.125,730.984L1581.125,693.266L1572.797,689.906L1572.797,687.484L1591.688,682.844L1595.563,682.844L1594.313,696.516L1594.313,732.734L1603.797,735.234L1603.797,737.781L1585,742.297L1581.125,742.297L1581.125,734.969C1577.01,737.531 1573.385,739.393 1570.25,740.555C1567.115,741.716 1564.13,742.297 1561.297,742.297Z" style="fill:rgb(232,217,197);fill-rule:nonzero;"/>
                <path d="M1605.438,740.625L1605.438,738.109L1612.484,733.734L1629.734,713.703L1612.469,690.953L1606.672,686.891L1606.672,684.375L1634.328,684.375L1634.328,686.891L1628.438,690.828L1639.375,705.922L1650.109,690.984L1644.828,686.891L1644.828,684.375L1665.047,684.375L1665.047,686.891L1658.047,691.266L1642.266,709.531L1660.813,734.047L1666.703,738.109L1666.703,740.625L1638.891,740.625L1638.891,738.109L1644.922,734.125L1632.703,717.391L1620.391,733.969L1625.828,738.109L1625.828,740.625L1605.438,740.625Z" style="fill:rgb(232,217,197);fill-rule:nonzero;"/>
                <path d="M1692.781,742.297C1687.906,742.297 1683.456,741.315 1679.43,739.352C1675.404,737.388 1672.206,734.305 1669.836,730.102C1667.466,725.898 1666.281,720.411 1666.281,713.641C1666.281,708.734 1666.992,704.378 1668.414,700.57C1669.836,696.763 1671.802,693.531 1674.313,690.875C1676.823,688.219 1679.706,686.193 1682.961,684.797C1686.216,683.401 1689.677,682.703 1693.344,682.703C1698.125,682.703 1702.003,683.589 1704.977,685.359C1707.951,687.13 1710.174,689.398 1711.648,692.164C1713.122,694.93 1714.023,697.888 1714.352,701.039C1714.68,704.19 1714.589,707.172 1714.078,709.984L1679.156,709.984C1679.208,715.526 1680.128,720.003 1681.914,723.414C1683.701,726.826 1686.112,729.294 1689.148,730.82C1692.185,732.346 1695.547,733.109 1699.234,733.109C1701.609,733.109 1703.987,732.789 1706.367,732.148C1708.747,731.508 1711.219,730.458 1713.781,729L1715.469,732.5C1712.021,735.052 1708.365,737.323 1704.5,739.312C1700.635,741.302 1696.729,742.297 1692.781,742.297ZM1679.188,705.406L1701.328,705.406C1701.328,701.677 1700.836,698.586 1699.852,696.133C1698.867,693.68 1697.451,691.836 1695.602,690.602C1693.753,689.367 1691.448,688.75 1688.688,688.75C1686.625,688.75 1684.924,689.203 1683.586,690.109C1682.247,691.016 1681.232,692.661 1680.539,695.047C1679.846,697.432 1679.396,700.885 1679.188,705.406Z" style="fill:rgb(232,217,197);fill-rule:nonzero;"/>
                <path d="M1720.672,740.625L1720.672,738.109L1728.781,733.719L1728.781,693.266L1720.266,690.109L1720.266,687.578L1738.172,682.703L1742.047,682.703L1742.047,690.062C1746.214,687.573 1749.878,685.724 1753.039,684.516C1756.201,683.307 1758.901,682.703 1761.141,682.703C1764.339,682.703 1767.102,683.37 1769.43,684.703C1771.758,686.036 1773.458,687.911 1774.531,690.328C1778.917,687.786 1782.794,685.88 1786.164,684.609C1789.534,683.339 1792.234,682.703 1794.266,682.703C1797.359,682.703 1800.068,683.266 1802.391,684.391C1804.714,685.516 1806.526,687.141 1807.828,689.266C1809.13,691.391 1809.781,693.953 1809.781,696.953L1809.781,733.719L1817.891,738.109L1817.891,740.625L1793.641,740.625L1793.641,738.109L1796.516,733.719L1796.516,702.359C1796.516,699.964 1796.102,697.964 1795.273,696.359C1794.445,694.755 1793.276,693.531 1791.766,692.688C1790.255,691.844 1788.479,691.422 1786.438,691.422C1784.792,691.422 1783.083,691.661 1781.313,692.141C1779.542,692.62 1777.641,693.255 1775.609,694.047C1775.745,694.484 1775.826,694.935 1775.852,695.398C1775.878,695.862 1775.891,696.38 1775.891,696.953L1775.891,733.719L1782.891,738.109L1782.891,740.625L1759.75,740.625L1759.75,738.109L1762.672,733.719L1762.672,702.359C1762.672,699.964 1762.255,697.964 1761.422,696.359C1760.589,694.755 1759.435,693.531 1757.961,692.688C1756.487,691.844 1754.755,691.422 1752.766,691.422C1751.047,691.422 1749.32,691.635 1747.586,692.062C1745.852,692.49 1744.005,693.141 1742.047,694.016L1742.047,733.719L1749.047,738.109L1749.047,740.625L1720.672,740.625Z" style="fill:rgb(232,217,197);fill-rule:nonzero;"/>
                <path d="M1826.516,744.016L1826.516,663.75L1817.641,661.234L1817.641,658.625L1837.266,654L1841.141,654L1839.781,667.547L1839.781,690.125C1842.344,688.583 1844.638,687.26 1846.664,686.156C1848.69,685.052 1850.635,684.201 1852.5,683.602C1854.365,683.003 1856.25,682.703 1858.156,682.703C1862,682.703 1865.523,683.677 1868.727,685.625C1871.93,687.573 1874.495,690.505 1876.422,694.422C1878.349,698.339 1879.313,703.312 1879.313,709.344C1879.313,714.625 1878.419,719.294 1876.633,723.352C1874.846,727.409 1872.456,730.852 1869.461,733.68C1866.466,736.508 1863.135,738.651 1859.469,740.109C1855.802,741.568 1852.104,742.297 1848.375,742.297C1845.865,742.297 1843.31,742.086 1840.711,741.664C1838.112,741.242 1835.948,740.719 1834.219,740.094L1829.406,744.984L1826.516,744.016ZM1839.828,731.969C1841.214,732.781 1843.06,733.466 1845.367,734.023C1847.674,734.581 1849.896,734.859 1852.031,734.859C1854.781,734.859 1857.198,734.25 1859.281,733.031C1861.365,731.812 1862.987,729.745 1864.148,726.828C1865.31,723.911 1865.891,719.932 1865.891,714.891C1865.891,709.391 1865.208,704.911 1863.844,701.453C1862.479,697.995 1860.674,695.458 1858.43,693.844C1856.185,692.229 1853.646,691.422 1850.813,691.422C1849.24,691.422 1847.464,691.693 1845.484,692.234C1843.505,692.776 1841.604,693.479 1839.781,694.344L1839.828,731.969Z" style="fill:rgb(232,217,197);fill-rule:nonzero;"/>
                <path d="M1909.891,742.297C1904.828,742.297 1900.424,741.185 1896.68,738.961C1892.935,736.737 1890.049,733.5 1888.023,729.25C1885.997,725 1884.984,719.828 1884.984,713.734C1884.984,707.255 1886.268,701.698 1888.836,697.062C1891.404,692.427 1894.971,688.862 1899.539,686.367C1904.107,683.872 1909.354,682.625 1915.281,682.625C1920.396,682.625 1924.792,683.737 1928.469,685.961C1932.146,688.185 1934.997,691.435 1937.023,695.711C1939.049,699.987 1940.063,705.172 1940.063,711.266C1940.063,717.693 1938.786,723.224 1936.234,727.859C1933.682,732.495 1930.156,736.06 1925.656,738.555C1921.156,741.049 1915.901,742.297 1909.891,742.297ZM1914.141,735.453C1917.224,735.453 1919.661,734.885 1921.453,733.75C1923.245,732.615 1924.534,730.521 1925.32,727.469C1926.107,724.417 1926.5,720.089 1926.5,714.484C1926.5,706.318 1925.13,700.109 1922.391,695.859C1919.651,691.609 1915.807,689.484 1910.859,689.484C1907.891,689.484 1905.497,690.068 1903.68,691.234C1901.862,692.401 1900.552,694.492 1899.75,697.508C1898.948,700.523 1898.547,704.859 1898.547,710.516C1898.547,718.682 1899.945,724.88 1902.742,729.109C1905.539,733.339 1909.339,735.453 1914.141,735.453Z" style="fill:rgb(232,217,197);fill-rule:nonzero;"/>
                <path d="M1966.172,742.297C1961.901,742.297 1958.326,741.047 1955.445,738.547C1952.565,736.047 1951.125,732.547 1951.125,728.047L1951.125,693.266L1942.531,689.906L1942.531,687.484L1961.688,682.844L1965.563,682.844L1964.313,696.516L1964.313,722.328C1964.313,724.786 1964.779,726.854 1965.711,728.531C1966.643,730.208 1967.935,731.469 1969.586,732.312C1971.237,733.156 1973.068,733.578 1975.078,733.578C1976.578,733.578 1978.169,733.396 1979.852,733.031C1981.534,732.667 1983.583,731.984 1986,730.984L1986,693.266L1977.672,689.906L1977.672,687.484L1996.563,682.844L2000.438,682.844L1999.188,696.516L1999.188,732.734L2008.672,735.234L2008.672,737.781L1989.875,742.297L1986,742.297L1986,734.969C1981.885,737.531 1978.26,739.393 1975.125,740.555C1971.99,741.716 1969.005,742.297 1966.172,742.297Z" style="fill:rgb(232,217,197);fill-rule:nonzero;"/>
                <path d="M2011.828,740.625L2011.828,738.109L2019.938,733.719L2019.938,693.266L2011.422,690.109L2011.422,687.578L2029.328,682.703L2033.203,682.703L2033.203,690.75C2037.005,687.865 2040.161,685.802 2042.672,684.562C2045.182,683.323 2047.354,682.703 2049.188,682.703C2051.604,682.703 2053.604,683.12 2055.188,683.953L2052.734,698.297L2049.844,698.297L2039.969,692C2038.896,692.188 2037.75,692.529 2036.531,693.023C2035.313,693.518 2034.203,694.099 2033.203,694.766L2033.203,733.719L2044.094,738.109L2044.094,740.625L2011.828,740.625Z" style="fill:rgb(232,217,197);fill-rule:nonzero;"/>
                <path d="M2075.906,767.234C2068.979,767.234 2063.88,766.062 2060.609,763.719C2057.339,761.375 2055.703,758.599 2055.703,755.391C2055.703,753.578 2056.229,751.81 2057.281,750.086C2058.333,748.362 2060.049,746.57 2062.43,744.711C2064.81,742.852 2068.016,740.854 2072.047,738.719C2068.766,737.677 2066.516,736.419 2065.297,734.945C2064.078,733.471 2063.469,731.74 2063.469,729.75C2063.469,728.083 2064.099,726.508 2065.359,725.023C2066.62,723.539 2068.865,721.443 2072.094,718.734C2069.49,718.141 2067.128,717.159 2065.008,715.789C2062.888,714.419 2061.229,712.615 2060.031,710.375C2058.833,708.135 2058.234,705.464 2058.234,702.359C2058.234,698.203 2059.349,694.654 2061.578,691.711C2063.807,688.768 2066.737,686.536 2070.367,685.016C2073.997,683.495 2077.917,682.734 2082.125,682.734C2085.344,682.734 2088.141,683.034 2090.516,683.633C2092.891,684.232 2094.891,685.13 2096.516,686.328L2113.969,681.016L2111.938,692.75L2109.297,692.75L2098.812,688.844C2100.354,690.271 2101.536,692.018 2102.359,694.086C2103.182,696.154 2103.594,698.359 2103.594,700.703C2103.594,704.526 2102.474,707.844 2100.234,710.656C2097.995,713.469 2095.044,715.643 2091.383,717.18C2087.721,718.716 2083.677,719.484 2079.25,719.484C2078.698,719.484 2078.141,719.469 2077.578,719.438C2077.016,719.406 2076.464,719.375 2075.922,719.344C2075.068,720.562 2074.401,721.617 2073.922,722.508C2073.443,723.398 2073.203,724.146 2073.203,724.75C2073.203,725.833 2073.831,726.633 2075.086,727.148C2076.341,727.664 2078.583,728.224 2081.812,728.828L2092.984,729.797C2096.828,730.401 2099.878,731.258 2102.133,732.367C2104.388,733.477 2106.018,734.917 2107.023,736.688C2108.029,738.458 2108.531,740.646 2108.531,743.25C2108.531,745.958 2107.651,748.721 2105.891,751.539C2104.13,754.357 2101.74,756.945 2098.719,759.305C2095.698,761.664 2092.224,763.576 2088.297,765.039C2084.37,766.503 2080.24,767.234 2075.906,767.234ZM2082.406,758.953C2085.906,758.953 2088.966,758.523 2091.586,757.664C2094.206,756.805 2096.26,755.599 2097.75,754.047C2099.24,752.495 2099.984,750.734 2099.984,748.766C2099.984,747.339 2099.529,746.117 2098.617,745.102C2097.706,744.086 2096.151,743.302 2093.953,742.75C2092.214,742.427 2090.156,742.094 2087.781,741.75C2085.406,741.406 2083.089,741.089 2080.828,740.797C2079.964,740.661 2079.13,740.526 2078.328,740.391C2077.526,740.255 2076.74,740.115 2075.969,739.969C2073.177,741.677 2070.854,743.43 2069,745.227C2067.146,747.023 2066.219,748.833 2066.219,750.656C2066.219,752.833 2067.51,754.76 2070.094,756.438C2072.677,758.115 2076.781,758.953 2082.406,758.953ZM2082.375,714.344C2085.208,714.344 2087.352,713.573 2088.805,712.031C2090.258,710.49 2090.984,707.229 2090.984,702.25C2090.984,697.302 2089.872,693.594 2087.648,691.125C2085.424,688.656 2082.63,687.422 2079.266,687.422C2076.38,687.422 2074.234,688.255 2072.828,689.922C2071.422,691.589 2070.719,694.88 2070.719,699.797C2070.719,704.724 2071.849,708.38 2074.109,710.766C2076.37,713.151 2079.125,714.344 2082.375,714.344Z" style="fill:rgb(232,217,197);fill-rule:nonzero;"/>
                <path d="M886.719,890.625L886.719,888.094L894.578,883.375L922.875,814.891L931.391,811.594L959.156,883.375L965.891,888.094L965.891,890.625L934.328,890.625L934.328,888.094L944.828,883.375L936.938,862.75L910.125,862.75L901.828,883.453L910.75,888.094L910.75,890.625L886.719,890.625ZM912.203,857.516L934.938,857.516L923.797,828.281L912.203,857.516Z" style="fill:rgb(232,217,197);fill-rule:nonzero;"/>
                <path d="M966.125,890.625L966.125,888.109L974.234,883.719L974.234,843.266L965.719,840.109L965.719,837.578L983.625,832.703L987.5,832.703L987.5,840.063C991.667,837.573 995.331,835.724 998.492,834.516C1001.654,833.307 1004.354,832.703 1006.594,832.703C1009.792,832.703 1012.555,833.37 1014.883,834.703C1017.211,836.036 1018.911,837.911 1019.984,840.328C1024.37,837.786 1028.247,835.88 1031.617,834.609C1034.987,833.339 1037.688,832.703 1039.719,832.703C1042.812,832.703 1045.521,833.266 1047.844,834.391C1050.167,835.516 1051.979,837.141 1053.281,839.266C1054.583,841.391 1055.234,843.953 1055.234,846.953L1055.234,883.719L1063.344,888.109L1063.344,890.625L1039.094,890.625L1039.094,888.109L1041.969,883.719L1041.969,852.359C1041.969,849.964 1041.555,847.964 1040.727,846.359C1039.898,844.755 1038.729,843.531 1037.219,842.688C1035.708,841.844 1033.932,841.422 1031.891,841.422C1030.245,841.422 1028.536,841.661 1026.766,842.141C1024.995,842.62 1023.094,843.255 1021.062,844.047C1021.198,844.484 1021.279,844.935 1021.305,845.398C1021.331,845.862 1021.344,846.38 1021.344,846.953L1021.344,883.719L1028.344,888.109L1028.344,890.625L1005.203,890.625L1005.203,888.109L1008.125,883.719L1008.125,852.359C1008.125,849.964 1007.708,847.964 1006.875,846.359C1006.042,844.755 1004.888,843.531 1003.414,842.688C1001.94,841.844 1000.208,841.422 998.219,841.422C996.5,841.422 994.773,841.635 993.039,842.063C991.305,842.49 989.458,843.141 987.5,844.016L987.5,883.719L994.5,888.109L994.5,890.625L966.125,890.625Z" style="fill:rgb(232,217,197);fill-rule:nonzero;"/>
                <path d="M1090.047,892.297C1085.172,892.297 1080.721,891.315 1076.695,889.352C1072.669,887.388 1069.471,884.305 1067.102,880.102C1064.732,875.898 1063.547,870.411 1063.547,863.641C1063.547,858.734 1064.258,854.378 1065.68,850.57C1067.102,846.763 1069.068,843.531 1071.578,840.875C1074.089,838.219 1076.971,836.193 1080.227,834.797C1083.482,833.401 1086.943,832.703 1090.609,832.703C1095.391,832.703 1099.268,833.589 1102.242,835.359C1105.216,837.13 1107.44,839.398 1108.914,842.164C1110.388,844.93 1111.289,847.888 1111.617,851.039C1111.945,854.19 1111.854,857.172 1111.344,859.984L1076.422,859.984C1076.474,865.526 1077.393,870.003 1079.18,873.414C1080.966,876.826 1083.378,879.294 1086.414,880.82C1089.451,882.346 1092.812,883.109 1096.5,883.109C1098.875,883.109 1101.253,882.789 1103.633,882.148C1106.013,881.508 1108.484,880.458 1111.047,879L1112.734,882.5C1109.286,885.052 1105.63,887.323 1101.766,889.313C1097.901,891.302 1093.995,892.297 1090.047,892.297ZM1076.453,855.406L1098.594,855.406C1098.594,851.677 1098.102,848.586 1097.117,846.133C1096.133,843.68 1094.716,841.836 1092.867,840.602C1091.018,839.367 1088.714,838.75 1085.953,838.75C1083.891,838.75 1082.19,839.203 1080.852,840.109C1079.513,841.016 1078.497,842.661 1077.805,845.047C1077.112,847.432 1076.661,850.885 1076.453,855.406Z" style="fill:rgb(232,217,197);fill-rule:nonzero;"/>
                <path d="M1116.688,890.625L1116.688,888.109L1124.797,883.719L1124.797,843.266L1116.281,840.109L1116.281,837.578L1134.188,832.703L1138.062,832.703L1138.062,840.75C1141.865,837.865 1145.021,835.802 1147.531,834.563C1150.042,833.323 1152.214,832.703 1154.047,832.703C1156.464,832.703 1158.464,833.12 1160.047,833.953L1157.594,848.297L1154.703,848.297L1144.828,842C1143.755,842.188 1142.609,842.529 1141.391,843.023C1140.172,843.518 1139.062,844.099 1138.062,844.766L1138.062,883.719L1148.953,888.109L1148.953,890.625L1116.688,890.625Z" style="fill:rgb(232,217,197);fill-rule:nonzero;"/>
                <path d="M1161.109,890.625L1161.109,888.109L1169.219,883.719L1169.219,843.266L1160.703,840.109L1160.703,837.578L1178.609,832.703L1182.484,832.703L1182.484,883.719L1190.875,888.109L1190.875,890.625L1161.109,890.625ZM1176.359,824.234C1175.641,824.234 1174.763,824.013 1173.727,823.57C1172.69,823.128 1171.688,822.549 1170.719,821.836C1169.75,821.122 1168.927,820.357 1168.25,819.539C1167.573,818.721 1167.234,817.927 1167.234,817.156C1167.234,816.385 1167.516,815.521 1168.078,814.563C1168.641,813.604 1169.362,812.682 1170.242,811.797C1171.122,810.911 1172.031,810.182 1172.969,809.609C1173.906,809.036 1174.734,808.75 1175.453,808.75C1176.12,808.75 1176.971,808.971 1178.008,809.414C1179.044,809.857 1180.06,810.443 1181.055,811.172C1182.049,811.901 1182.885,812.674 1183.562,813.492C1184.24,814.31 1184.578,815.12 1184.578,815.922C1184.578,816.693 1184.276,817.549 1183.672,818.492C1183.068,819.435 1182.326,820.349 1181.445,821.234C1180.565,822.12 1179.656,822.841 1178.719,823.398C1177.781,823.956 1176.995,824.234 1176.359,824.234Z" style="fill:rgb(232,217,197);fill-rule:nonzero;"/>
                <path d="M1216.766,892.297C1213.089,892.297 1209.706,891.721 1206.617,890.57C1203.529,889.419 1200.833,887.693 1198.531,885.391C1196.229,883.089 1194.432,880.219 1193.141,876.781C1191.849,873.344 1191.203,869.339 1191.203,864.766C1191.203,857.87 1192.484,852.055 1195.047,847.32C1197.609,842.586 1201.117,838.966 1205.57,836.461C1210.023,833.956 1215.089,832.703 1220.766,832.703C1223.276,832.703 1225.815,832.88 1228.383,833.234C1230.951,833.589 1233.203,834.224 1235.141,835.141L1232.75,849.266L1229.906,849.266L1220.906,838.938C1220.448,838.802 1219.622,838.698 1218.43,838.625C1217.237,838.552 1216.312,838.516 1215.656,838.516C1213.177,838.516 1211.016,839.102 1209.172,840.273C1207.328,841.445 1205.924,843.432 1204.961,846.234C1203.997,849.036 1203.516,852.958 1203.516,858C1203.516,864.26 1204.422,869.229 1206.234,872.906C1208.047,876.583 1210.456,879.208 1213.461,880.781C1216.466,882.354 1219.693,883.141 1223.141,883.141C1225.214,883.141 1227.362,882.906 1229.586,882.438C1231.81,881.969 1234.13,881.224 1236.547,880.203L1237.906,883.703C1235.594,885.276 1233.497,886.612 1231.617,887.711C1229.737,888.81 1227.997,889.693 1226.398,890.359C1224.799,891.026 1223.216,891.516 1221.648,891.828C1220.081,892.141 1218.453,892.297 1216.766,892.297Z" style="fill:rgb(232,217,197);fill-rule:nonzero;"/>
                <path d="M1255.781,892.297C1253.198,892.297 1250.763,891.695 1248.477,890.492C1246.19,889.289 1244.344,887.625 1242.938,885.5C1241.531,883.375 1240.828,880.953 1240.828,878.234C1240.828,874.911 1242.104,871.841 1244.656,869.023C1247.208,866.206 1250.862,863.891 1255.617,862.078C1260.372,860.266 1266.031,859.318 1272.594,859.234L1272.594,850.516C1272.594,848.12 1272.167,846.026 1271.312,844.234C1270.458,842.443 1269.161,841.016 1267.422,839.953C1265.682,838.891 1263.458,838.359 1260.75,838.359C1260.448,838.359 1260.036,838.38 1259.516,838.422C1258.995,838.464 1258.604,838.526 1258.344,838.609L1247.953,850.672L1245.109,850.672L1243.906,838.594C1247.583,837.146 1250.854,835.987 1253.719,835.117C1256.583,834.247 1259.156,833.628 1261.438,833.258C1263.719,832.888 1265.781,832.703 1267.625,832.703C1271.229,832.703 1274.352,833.266 1276.992,834.391C1279.633,835.516 1281.68,837.18 1283.133,839.383C1284.586,841.586 1285.312,844.349 1285.312,847.672L1285.312,882.734L1294.188,885.281L1294.188,887.781L1276.469,892.297L1272.594,892.297L1272.594,885.047C1270.115,886.766 1267.88,888.164 1265.891,889.242C1263.901,890.32 1262.102,891.099 1260.492,891.578C1258.883,892.057 1257.312,892.297 1255.781,892.297ZM1262.75,883.891C1264.25,883.891 1265.794,883.677 1267.383,883.25C1268.971,882.823 1270.708,882.13 1272.594,881.172L1272.594,866.344C1271.448,866.083 1270.016,865.854 1268.297,865.656C1266.578,865.458 1264.677,865.359 1262.594,865.359C1259.542,865.359 1257.112,866.044 1255.305,867.414C1253.497,868.784 1252.594,871.021 1252.594,874.125C1252.594,877.208 1253.581,879.607 1255.555,881.32C1257.529,883.034 1259.927,883.891 1262.75,883.891Z" style="fill:rgb(232,217,197);fill-rule:nonzero;"/>
                <path d="M1295.344,890.625L1295.344,888.109L1303.453,883.719L1303.453,843.266L1294.938,840.109L1294.938,837.578L1312.844,832.703L1316.719,832.703L1316.719,840.031C1320.615,837.552 1324.188,835.711 1327.438,834.508C1330.688,833.305 1333.453,832.703 1335.734,832.703C1338.766,832.703 1341.474,833.242 1343.859,834.32C1346.245,835.398 1348.13,836.987 1349.516,839.086C1350.901,841.185 1351.594,843.807 1351.594,846.953L1351.594,883.719L1359.703,888.109L1359.703,890.625L1334.938,890.625L1334.938,888.109L1338.328,883.719L1338.328,852.641C1338.328,850.151 1337.839,848.081 1336.859,846.43C1335.88,844.779 1334.568,843.531 1332.922,842.688C1331.276,841.844 1329.458,841.422 1327.469,841.422C1325.802,841.422 1324.031,841.635 1322.156,842.063C1320.281,842.49 1318.469,843.141 1316.719,844.016L1316.719,883.719L1323.844,888.109L1323.844,890.625L1295.344,890.625Z" style="fill:rgb(232,217,197);fill-rule:nonzero;"/>
                <path d="M1414.422,892.297C1410.255,892.297 1406.375,892.026 1402.781,891.484C1399.188,890.943 1396.057,890.172 1393.391,889.172L1396.422,871.703L1399.875,871.703L1406.188,884.094C1408.49,884.833 1410.904,885.341 1413.43,885.617C1415.956,885.893 1418.505,886.057 1421.078,886.109C1423.349,886.109 1425.396,885.706 1427.219,884.898C1429.042,884.091 1430.49,882.823 1431.562,881.094C1432.635,879.365 1433.172,877.182 1433.172,874.547C1433.172,871.005 1432.161,867.982 1430.141,865.477C1428.12,862.971 1424.453,860.651 1419.141,858.516L1412.266,855.625C1408.703,854.146 1405.63,852.448 1403.047,850.531C1400.464,848.615 1398.479,846.352 1397.094,843.742C1395.708,841.133 1395.016,838.141 1395.016,834.766C1395.016,830.589 1396.156,826.826 1398.438,823.477C1400.719,820.128 1404.013,817.453 1408.32,815.453C1412.628,813.453 1417.792,812.453 1423.812,812.453C1428.167,812.453 1432.081,812.766 1435.555,813.391C1439.029,814.016 1441.87,814.786 1444.078,815.703L1441.172,832.672L1437.719,832.672L1431.234,820.531C1429.224,819.76 1427.068,819.229 1424.766,818.938C1422.464,818.646 1420.182,818.5 1417.922,818.5C1414.474,818.5 1411.805,819.401 1409.914,821.203C1408.023,823.005 1407.078,825.651 1407.078,829.141C1407.078,833.005 1408.224,836.047 1410.516,838.266C1412.807,840.484 1415.953,842.427 1419.953,844.094L1426.828,846.969C1431.516,848.865 1435.214,850.852 1437.922,852.93C1440.63,855.008 1442.544,857.276 1443.664,859.734C1444.784,862.193 1445.344,865.036 1445.344,868.266C1445.344,873.016 1443.987,877.193 1441.273,880.797C1438.56,884.401 1434.883,887.219 1430.242,889.25C1425.602,891.281 1420.328,892.297 1414.422,892.297Z" style="fill:rgb(232,217,197);fill-rule:nonzero;"/>
                <path d="M1476.359,892.297C1471.297,892.297 1466.893,891.185 1463.148,888.961C1459.404,886.737 1456.518,883.5 1454.492,879.25C1452.466,875 1451.453,869.828 1451.453,863.734C1451.453,857.255 1452.737,851.698 1455.305,847.063C1457.872,842.427 1461.44,838.862 1466.008,836.367C1470.576,833.872 1475.823,832.625 1481.75,832.625C1486.865,832.625 1491.26,833.737 1494.938,835.961C1498.615,838.185 1501.466,841.435 1503.492,845.711C1505.518,849.987 1506.531,855.172 1506.531,861.266C1506.531,867.693 1505.255,873.224 1502.703,877.859C1500.151,882.495 1496.625,886.06 1492.125,888.555C1487.625,891.049 1482.37,892.297 1476.359,892.297ZM1480.609,885.453C1483.693,885.453 1486.13,884.885 1487.922,883.75C1489.714,882.615 1491.003,880.521 1491.789,877.469C1492.576,874.417 1492.969,870.089 1492.969,864.484C1492.969,856.318 1491.599,850.109 1488.859,845.859C1486.12,841.609 1482.276,839.484 1477.328,839.484C1474.359,839.484 1471.966,840.068 1470.148,841.234C1468.331,842.401 1467.021,844.492 1466.219,847.508C1465.417,850.523 1465.016,854.859 1465.016,860.516C1465.016,868.682 1466.414,874.88 1469.211,879.109C1472.008,883.339 1475.807,885.453 1480.609,885.453Z" style="fill:rgb(232,217,197);fill-rule:nonzero;"/>
                <path d="M1537.906,892.297C1534.229,892.297 1530.846,891.721 1527.758,890.57C1524.669,889.419 1521.974,887.693 1519.672,885.391C1517.37,883.089 1515.573,880.219 1514.281,876.781C1512.99,873.344 1512.344,869.339 1512.344,864.766C1512.344,857.87 1513.625,852.055 1516.188,847.32C1518.75,842.586 1522.258,838.966 1526.711,836.461C1531.164,833.956 1536.229,832.703 1541.906,832.703C1544.417,832.703 1546.956,832.88 1549.523,833.234C1552.091,833.589 1554.344,834.224 1556.281,835.141L1553.891,849.266L1551.047,849.266L1542.047,838.938C1541.589,838.802 1540.763,838.698 1539.57,838.625C1538.378,838.552 1537.453,838.516 1536.797,838.516C1534.318,838.516 1532.156,839.102 1530.312,840.273C1528.469,841.445 1527.065,843.432 1526.102,846.234C1525.138,849.036 1524.656,852.958 1524.656,858C1524.656,864.26 1525.562,869.229 1527.375,872.906C1529.188,876.583 1531.596,879.208 1534.602,880.781C1537.607,882.354 1540.833,883.141 1544.281,883.141C1546.354,883.141 1548.503,882.906 1550.727,882.438C1552.951,881.969 1555.271,881.224 1557.688,880.203L1559.047,883.703C1556.734,885.276 1554.638,886.612 1552.758,887.711C1550.878,888.81 1549.138,889.693 1547.539,890.359C1545.94,891.026 1544.357,891.516 1542.789,891.828C1541.221,892.141 1539.594,892.297 1537.906,892.297Z" style="fill:rgb(232,217,197);fill-rule:nonzero;"/>
                <path d="M1563.484,890.625L1563.484,888.109L1571.594,883.719L1571.594,843.266L1563.078,840.109L1563.078,837.578L1580.984,832.703L1584.859,832.703L1584.859,883.719L1593.25,888.109L1593.25,890.625L1563.484,890.625ZM1578.734,824.234C1578.016,824.234 1577.138,824.013 1576.102,823.57C1575.065,823.128 1574.063,822.549 1573.094,821.836C1572.125,821.122 1571.302,820.357 1570.625,819.539C1569.948,818.721 1569.609,817.927 1569.609,817.156C1569.609,816.385 1569.891,815.521 1570.453,814.563C1571.016,813.604 1571.737,812.682 1572.617,811.797C1573.497,810.911 1574.406,810.182 1575.344,809.609C1576.281,809.036 1577.109,808.75 1577.828,808.75C1578.495,808.75 1579.346,808.971 1580.383,809.414C1581.419,809.857 1582.435,810.443 1583.43,811.172C1584.424,811.901 1585.26,812.674 1585.938,813.492C1586.615,814.31 1586.953,815.12 1586.953,815.922C1586.953,816.693 1586.651,817.549 1586.047,818.492C1585.443,819.435 1584.701,820.349 1583.82,821.234C1582.94,822.12 1582.031,822.841 1581.094,823.398C1580.156,823.956 1579.37,824.234 1578.734,824.234Z" style="fill:rgb(232,217,197);fill-rule:nonzero;"/>
                <path d="M1620.063,892.297C1615.188,892.297 1610.737,891.315 1606.711,889.352C1602.685,887.388 1599.487,884.305 1597.117,880.102C1594.747,875.898 1593.563,870.411 1593.563,863.641C1593.563,858.734 1594.273,854.378 1595.695,850.57C1597.117,846.763 1599.083,843.531 1601.594,840.875C1604.104,838.219 1606.987,836.193 1610.242,834.797C1613.497,833.401 1616.958,832.703 1620.625,832.703C1625.406,832.703 1629.284,833.589 1632.258,835.359C1635.232,837.13 1637.456,839.398 1638.93,842.164C1640.404,844.93 1641.305,847.888 1641.633,851.039C1641.961,854.19 1641.87,857.172 1641.359,859.984L1606.438,859.984C1606.49,865.526 1607.409,870.003 1609.195,873.414C1610.982,876.826 1613.393,879.294 1616.43,880.82C1619.466,882.346 1622.828,883.109 1626.516,883.109C1628.891,883.109 1631.268,882.789 1633.648,882.148C1636.029,881.508 1638.5,880.458 1641.063,879L1642.75,882.5C1639.302,885.052 1635.646,887.323 1631.781,889.313C1627.917,891.302 1624.01,892.297 1620.063,892.297ZM1606.469,855.406L1628.609,855.406C1628.609,851.677 1628.117,848.586 1627.133,846.133C1626.148,843.68 1624.732,841.836 1622.883,840.602C1621.034,839.367 1618.729,838.75 1615.969,838.75C1613.906,838.75 1612.206,839.203 1610.867,840.109C1609.529,841.016 1608.513,842.661 1607.82,845.047C1607.128,847.432 1606.677,850.885 1606.469,855.406Z" style="fill:rgb(232,217,197);fill-rule:nonzero;"/>
                <path d="M1668.578,892.297C1665.714,892.297 1663.042,891.714 1660.563,890.547C1658.083,889.38 1656.128,887.62 1654.695,885.266C1653.263,882.911 1652.578,880.016 1652.641,876.578L1653.328,839.375L1644.672,839.375L1644.672,836.516L1662.984,824L1666.547,824L1666.375,834.375L1672.234,834.375L1685.734,833.75L1684.313,840.375L1672.234,839.375L1666.328,839.375L1665.828,872.844C1665.745,876.573 1666.701,879.299 1668.695,881.023C1670.69,882.747 1673.026,883.609 1675.703,883.609C1677.755,883.609 1679.482,883.438 1680.883,883.094C1682.284,882.75 1683.807,882.307 1685.453,881.766L1686.688,885.141C1684.625,886.359 1682.565,887.518 1680.508,888.617C1678.451,889.716 1676.424,890.604 1674.43,891.281C1672.435,891.958 1670.484,892.297 1668.578,892.297Z" style="fill:rgb(232,217,197);fill-rule:nonzero;"/>
                <path d="M1696.516,919.719C1695.151,919.719 1693.724,919.552 1692.234,919.219C1690.745,918.885 1689.464,918.432 1688.391,917.859L1690.25,907.109L1692.703,907.109L1700.609,913.078C1702.432,912.703 1704.326,911.849 1706.289,910.516C1708.253,909.182 1710.206,906.919 1712.148,903.727C1714.091,900.534 1715.911,896.036 1717.609,890.234L1713.063,890.797L1692.75,841.266L1686.891,836.891L1686.891,834.375L1716.328,834.375L1716.328,836.891L1707.828,841.422L1722.219,877.594L1735.109,841.422L1728.125,836.891L1728.125,834.375L1749,834.375L1749,836.891L1742.422,841.281L1723.094,889.281C1721.594,895.292 1719.82,900.266 1717.773,904.203C1715.727,908.141 1713.531,911.245 1711.188,913.516C1708.844,915.786 1706.424,917.388 1703.93,918.32C1701.435,919.253 1698.964,919.719 1696.516,919.719Z" style="fill:rgb(232,217,197);fill-rule:nonzero;"/>
            </g>
        </g>
    </g>
</svg>
