<?xml version="1.0" encoding="UTF-8"?>
<svg xmlns="http://www.w3.org/2000/svg" viewBox="0 0 321.9 144">
  <defs>
    <style>
      .cls-1 {
        fill: #2B6282;
      }

      .cls-2 {
        fill: #2B6282;
      }

      .cls-3 {
        fill: #8B3A3A;
      }
    </style>
  </defs>
  <g>
    <g>
      <path class="cls-1" d="M174.85,60.25h-10.57v-7.32h29.89v7.32h-10.57v31.19h-8.74v-31.19Z"/>
      <path class="cls-1" d="M196.05,72.42c0-12.76,8.45-20.2,18.19-20.2,4.96,0,8.98,2.24,11.58,5.02l-4.61,5.26c-1.95-1.77-4.02-2.78-6.79-2.78-5.2,0-9.45,4.78-9.45,12.4s3.96,12.52,9.81,12.52c2.95,0,5.38-1.36,7.15-3.19l4.37,5.14c-3.31,3.72-7.32,5.55-12.11,5.55-9.86,0-18.13-6.79-18.13-19.73Z"/>
      <path class="cls-1" d="M230.57,52.92h8.68v31.19h15.24v7.32h-23.92v-38.51Z"/>
      <path class="cls-1" d="M268.96,52.92h10.46l12.05,38.51h-9.22l-2.36-9.16h-11.75l-2.36,9.16h-8.86l12.05-38.51ZM269.9,75.49h8.21l-.89-3.54c-1.06-3.84-2.13-8.39-3.13-12.4h-.24c-.94,4.08-1.95,8.57-3.01,12.4l-.94,3.54Z"/>
      <path class="cls-1" d="M293.14,86.53l4.61-5.67c2.72,2.42,6.5,3.78,9.87,3.78,3.6,0,5.38-1.42,5.38-3.72,0-2.42-2.19-3.19-5.55-4.61l-5.02-2.07c-3.96-1.65-7.74-4.96-7.74-10.57,0-6.38,5.67-11.46,13.7-11.46,4.61,0,9.1,1.77,12.4,4.84l-4.61,5.61c-2.54-1.83-5.2-2.95-7.8-2.95-3.01,0-4.9,1.3-4.9,3.49,0,2.36,2.54,3.19,5.85,4.55l4.96,2.01c4.73,1.89,7.62,5.02,7.62,10.46,0,6.38-5.32,11.93-14.53,11.93-5.2,0-10.34-1.77-14.24-5.61Z"/>
    </g>
    <g>
      <path class="cls-3" d="M54.77,31.03l17-4.58,16.94,4.63,8.88-21.54-7.69,4.15c-.48.63.47,4.3.22,5.26l-5.76,3.68-.98-4.67c.95-.92,2.11-1.6,2.93-2.64l-1.53-7.28-.5.13-4.97,4.65c-.44.92.9,3.06.61,3.99-.1.31-2.89,2.7-3.1,2.55l-2.55-5.66c.87-1.57,2.35-2.89,3.1-4.46l-5.53-9.24h-.14l-5.38,9.1c-.08.2.01.36.09.54.26.67,1.69,2.19,2.2,2.94.2.29.65.82.68,1.13.02.31-.65,1.66-.83,2.06-.54,1.22-1.18,2.41-1.81,3.59-.2.04-2.98-2.48-3.02-2.68-.16-.77,1.21-2.99.66-3.92l-3.97-3.7-1.42-1.02-1.58,7.16c.04.79,2.62,2.07,2.83,2.76.27.88-.94,3.58-.83,4.67-.21.05-.31-.08-.47-.16-1.79-.98-3.48-2.52-5.29-3.52-.13-1.71.31-3.45.29-5.18l-7.9-4.23,8.62,21.26.2.22Z"/>
      <path class="cls-3" d="M111,57.71c-.37.09-1.01-.17-1.25-.17h-16.57c.42-1.68,1.4-3.25,1.89-4.94.82-2.85.7-5.45-.64-8.12l-5.19-1.5c-.78-.18-1.4.11-2.08.39-1.1.45-2.54,1.27-3.6,1.87-.78.44-2.47,1.3-3.07,1.79-.14.11-.35.41-.16.56,1.01.8,2.05,1.63,2.99,2.49,1.49,1.36,2.38,1.8,2.74,3.86.89,5.16,1.22,10.44,2.45,15.51l22.85,17.65,32.04-14.16v-.68c-10.85-4.75-21.57-9.76-32.4-14.56Z"/>
      <path class="cls-3" d="M77.46,84.82c-7.94,8.24-15.8,16.88-20.69,27.2,4.77,10.74,10.05,21.28,14.92,31.98h.14l15.08-31.85-9.13-27.1-.33-.23Z"/>
      <path class="cls-3" d="M38.04,98.74c.05.16.17.29.32.38l5.98,3.67,19.81-6.86c7.03-8.78,15.25-16.82,21.21-26.31l-2.25-16.39-.54-.58-11.83-8.57c-.8-.23-2.49.44-3.31.72-1.86.64-3.66,1.56-5.53,2.2-.75.26-3.33,1.17-3.9.84-.51-.29-.69-2.1-.67-2.7-.22-.22-1.93.9-2.2,1.09-1.33.97-3.02,2.55-4.27,3.68-1.08.98-5.39,4.92-5.72,5.96-.1.31-.35,1.69.04,1.81.37.11,2.14,0,2.7,0,.41,0,0,.83-.09,1.01-.67,1.45-2.48,3-3.68,4.11-2.95,2.73-7.35,5.86-9.65,9.02-.94,1.29-1.44,2.22.61,2.78,2.68.73,4.42-1.31,6.83-.95.79.12,1.42.73,2.41.66.72-.05,3.38-1.46,3.65-1.22-.84,4.03-7.43,4.06-7.95,8.12-.25,1.91.16,3.85,1.77,5.1,1.83,1.42,7.47,3.42,9.81,3.55,2.47.14,5.88-1.06,7.95.29.78.51,1.15.95.67,1.82-1.09,1.96-2.03.5-3.48.34-1.71-.19-3.34.42-5.12.27-3.33-.27-8.76-3.43-11.37-3.12-2.72.32-2.6,4.47-2.5,6.46.03.58.18,2.33.34,2.81ZM60.31,62.38l-5.61,3.62c-.02-.21.18-.49.3-.67,1.72-2.61,4-5.1,5.75-7.72.39-.39,1.12-.39,1.68-.44,2.32-.2,5.75.53,7.85,1.53.23.11.52.17.36.48-.33.64-1.95.47-2.67.85-.47.24-.87.84-1.34,1.17-1.84,1.28-4.19.91-6.31,1.18Z"/>
      <path class="cls-3" d="M109.89,89.46c-7.32-5.77-14.86-11.28-22.12-17.12-.36-.33-.78-.11-1.12.14-.97.71-4.31,5.49-5.19,6.75-.5.72-1.67,2.25-1.65,3.05,3.05,9.54,6.37,18.99,9.56,28.49.09.16.24.22.4.29,1.24.57,3.32,1.15,4.7,1.63,9.45,3.28,18.98,6.38,28.45,9.62.16-.17-.48-1.77-.6-2.08-3.97-10.31-8.35-20.5-12.42-30.77Z"/>
      <path class="cls-3" d="M86.16,35.21c-3.27,1.66-6.32,3.71-9.53,5.45-.48.26-2.7,1.22-2.87,1.48-.5.78,2.12,2.49,2.73,2.84,1.5.84,1.78.71,3.27-.08,2.11-1.13,5.23-3.92,7.38-4.51,1.19-.33,5.23.76,6.57,1.17,1.51.46,2.66.67,3.31,2.15.64,1.46,1.61,5.57,1.39,7.06-.1.67-1.61,4.12-1.25,4.46h13.37l12.35-32-.19-.32c-2.95.99-5.89,2.04-8.86,2.96-3.37,1.05-7.06,1.85-10.36,3.02-2.08.74-4.58,1.29-6.78,2.09-3.62,1.33-7.13,2.5-10.53,4.22Z"/>
      <path class="cls-2" d="M60.18,100.23c-.17-.16-2.21.47-2.59.58-3.04.95-5.87,2.45-8.86,3.51-.92.33-4.28,1.46-5.06,1.3-.84-.17-2.8-1.6-3.6-2.15-1.08-.74-2.29-1.61-3.29-2.43-1.16-.95-1.67-1.07-1.79-2.65-.14-1.92.71-5.86-.47-7.4-.23-.3-1.67-1.23-1.92-.63l-11.98,31.95c11.12-3.58,22.14-7.46,33.2-11.2l6.32-10.58.03-.31Z"/>
      <path class="cls-3" d="M60.1,44.85c.48.02,3.42-1.02,4.1-1.25,7.56-2.64,14.2-7.21,21.45-10.47.05-.26-.17-.42-.39-.51l-13.48-3.58-15.07,4.08-.1.22c.8,3.24,1.46,6.57,2.5,9.75.14.44.44,1.74.99,1.76Z"/>
      <path class="cls-3" d="M34.79,79.22c-.08-.09-.58-1.18-.79-.47v6.14c0,.29,1.26,3.29,1.5,3.6.77.99,1.13.54,1.69-.27,1.37-2,1.05-4.14-.03-6.22-.45-.87-1.69-1.98-2.36-2.78Z"/>
      <path class="cls-3" d="M52.43,44.86c2.23-.8,3.8-2.39,3.45-4.81l-1.12-4.18-.53.02c-1.54,1.7-2.66,2.65-2.6,5.09.02.68.33,2.95.58,3.54.05.13.06.27.22.34Z"/>
      <path class="cls-2" d="M31.83,85.47c-.34-1.54-.8-2.61-.67-4.26.1-1.37.67-3.19.33-4.55-.15-.58-.65-1.09-.74-1.74-.66-4.51,6.02-8.22,8.58-11.39.78-.97.94-1.14-.22-1.81-2.2-1.28-4.66-2.22-6.85-3.52l-.71-.08L0,72.14v.68l32.01,14.04c.06-.07-.14-1.2-.18-1.39Z"/>
      <path class="cls-2" d="M33.31,55.55c2.74,1.75,5.77,3.16,8.53,4.92,1.26.43.55-2.14.55-2.86.02-5.04,3.4-6.05,6.7-9,.22-.2,1.21-1.1,1.26-1.26l-1.66-7.85,3.69-5.48.12-.4-32-10.72c.78,2.4,1.84,4.73,2.77,7.09,3.34,8.5,6.69,17.05,10.05,25.55Z"/>
    </g>
  </g>
</svg>