<?xml version="1.0" encoding="UTF-8"?>
<svg id="Layer_2" data-name="Layer 2" xmlns="http://www.w3.org/2000/svg" viewBox="0 0 507.15 144">
  <defs>
    <style>
      .cls-1 {
        fill: #faf9f6;
      }

      .cls-2 {
        fill: #e8d9c5;
      }
    </style>
  </defs>
  <g id="Layer_1-2" data-name="Layer 1">
    <g>
      <path class="cls-2" d="M188.87,47.37l-.77-3.24c-.4-1.43-.73-1.94-5.14-2h-.07v17.68c0,.3.23.43,1.17.53l2,.17.1,1.17h-9.71l.1-1.17,2-.17c.87-.1,1.17-.3,1.17-.6v-17.62h-.07c-4.17,0-4.84.2-5.27,1.67l-.93,3.57h-1.67l.57-6.54h18.12v6.54h-1.6Z"/>
      <path class="cls-2" d="M215.3,47.87l-.7.17c-1.17.17-1.47.5-2.14,2.54l-3.7,11.41h-1.6l-3.7-9.68-3.87,9.68h-1.6l-4.47-12.58c-.33-.93-.63-1.2-1.53-1.33l-.73-.13-.1-1.2h7.07l-.1,1.17-.77.13c-.73.1-1.1.53-.83,1.27l3.17,9.18,3.04-7.94-.4-1.13c-.37-.93-.67-1.13-1.7-1.3l-.77-.2-.1-1.17h7.21l-.1,1.13-.77.17c-.73.07-1.1.5-.83,1.27l3.3,9.28,2.44-8.01c.47-1.67.43-2.37-1-2.57l-.67-.13-.1-1.13h6.17l-.1,1.13Z"/>
      <path class="cls-2" d="M216.38,61.68l.1-1.17.93-.1c.8-.07,1.13-.23,1.13-.63v-8.44c0-2.1-.23-2.4-1.43-2.7l-.8-.2.03-.9,4.94-1.3v13.58c0,.33.2.53,1.27.6l.97.1.1,1.17h-7.24ZM219.58,43.36c-1.23,0-1.8-.93-1.8-1.97s.57-1.97,1.8-1.97,1.8.93,1.8,1.97-.57,1.97-1.8,1.97Z"/>
      <path class="cls-2" d="M234.74,61.68l.1-1.17.87-.1c.97-.07,1.13-.3,1.13-.63v-6.97c0-3.27-1.07-4.27-3.07-4.27-1.43,0-2.8.73-3.7,1.4v9.88c0,.33.2.53,1.27.6l1.13.1.1,1.17h-7.41l.1-1.17.93-.1c.8-.07,1.13-.23,1.13-.63v-8.44c0-2.1-.23-2.4-1.43-2.7l-.8-.2.03-.9,4.94-1.3v2.37h.17c1.7-1.4,3.54-2.37,5.34-2.37.97,0,2.04.33,2.74,1.03.9.9,1.27,2.14,1.27,3.74v8.78c0,.3.17.5,1.37.63l.87.1.1,1.17h-7.17Z"/>
      <path class="cls-2" d="M269.64,61.68l-1.7-.3c-1.23.43-3.2.8-5.07.8-6.51,0-11.65-3.84-11.65-10.71s5.21-11.11,11.75-11.11c1.97,0,3.8.4,4.6.67l2.67-.5v6.84h-1.54l-.9-4.27c-1.33-.8-2.74-1.33-5.01-1.33-4.81,0-8.04,3.94-8.04,9.28,0,5.81,3.04,9.81,8.48,9.81,1.37,0,2.9-.33,4.1-1l1.43-4.6h1.6l-.73,6.44Z"/>
      <path class="cls-2" d="M272.74,61.68l.1-1.17.93-.1c.8-.07,1.13-.23,1.13-.63v-8.44c0-2.1-.23-2.4-1.43-2.7l-.8-.2.03-.9,4.94-1.3v13.58c0,.33.2.53,1.27.6l.97.1.1,1.17h-7.24ZM275.94,43.36c-1.23,0-1.8-.93-1.8-1.97s.57-1.97,1.8-1.97,1.8.93,1.8,1.97-.57,1.97-1.8,1.97Z"/>
      <path class="cls-2" d="M286.38,62.18c-2.2,0-4-1.3-3.94-4.7l.23-8.98-2.7-.17.03-1,2.17-1.8,2.17-1.84,1.07.2-.03,2.84h5.47l-.23,1.67h-5.21l-.27,8.34c-.07,2.44,1.1,3.27,2.87,3.27.87,0,1.87-.33,2.77-.83l.17.83c-1.2,1.33-3,2.17-4.57,2.17Z"/>
      <path class="cls-2" d="M292.37,61.68l.1-1.17.93-.1c.8-.07,1.13-.23,1.13-.63v-8.44c0-2.1-.23-2.4-1.43-2.7l-.8-.2.03-.9,4.94-1.3v13.58c0,.33.2.53,1.27.6l.97.1.1,1.17h-7.24ZM295.57,43.36c-1.23,0-1.8-.93-1.8-1.97s.57-1.97,1.8-1.97,1.8.93,1.8,1.97-.57,1.97-1.8,1.97Z"/>
      <path class="cls-2" d="M307.25,62.18c-3.94,0-6.71-3.27-6.71-7.47,0-4.97,3.5-8.48,7.77-8.48,3.17,0,5.21,2,5.21,5.01,0,.53-.07,1.27-.2,1.8l-9.91-.13v.37c0,3.84,2.2,6.51,5.17,6.51,1.4,0,2.94-.5,4.07-1.77l.67.37c-1.23,2.44-3.44,3.8-6.07,3.8ZM307.58,47.47c-1.8,0-3.67,1.57-4.07,4.37h6.94c.17-2.7-1.03-4.37-2.87-4.37Z"/>
      <path class="cls-2" d="M320.62,62.18c-1.7,0-3.27-.23-4.5-.7l-.2-4.4h1.67l.77,2.94c.73.53,1.7.93,2.67.93,1.33,0,3.04-1,3.04-2.67,0-1.57-1.77-2.2-3.67-2.94-2.2-.87-4.4-1.84-4.4-4.7,0-2.2,1.87-4.47,5.34-4.47,1.6,0,2.54.27,3.34.57l1.03-.43.2,4.74h-1.64l-.67-2.77c-.7-.53-1.74-.83-2.54-.83-1.47,0-2.64.9-2.64,2.2,0,1.53,1.3,2.07,3.57,2.97,2.17.87,4.47,1.9,4.47,4.74,0,2.5-2.1,4.84-5.84,4.84Z"/>
      <path class="cls-2" d="M352.32,61.68h-15.85l.1-1.17,1.37-.17c.87-.1,1.17-.3,1.17-.6v-17.05c0-.3-.2-.4-1.17-.53l-1.37-.17-.1-1.17h8.74l-.1,1.17-1.67.17c-.87.1-1.17.3-1.17.6v17.62h1.03c6.01,0,6.57-.2,7.04-1.67l.97-3.7h1.73l-.73,6.67Z"/>
      <path class="cls-2" d="M370.67,61.58l-5.24.6v-2.37h-.17c-1.7,1.4-3.54,2.37-5.34,2.37-.97,0-2.04-.33-2.74-1.03-.9-.9-1.27-2.14-1.27-3.74l.1-8.78c0-.63-.27-.47-1.47-.63l-.8-.1-.1-1.17h5.27l-.27,8.88c0,3.27,1.07,4.27,3.07,4.27,1.43,0,2.8-.73,3.7-1.4v-9.88c0-.33-.2-.5-1.27-.6l-1.3-.1-.13-1.17h5.44v12.58c0,.4.1.67.37.77l2.24.67-.1.83Z"/>
      <path class="cls-2" d="M380.57,61.68l.1-1.13.67-.2c1.03-.2,1.07-.6.1-1.94l-2.2-3.07h-.03l-2.3,3.07c-1.07,1.4-1.13,1.84.03,1.97l.87.17.1,1.13h-6.41l.1-1.13.97-.2c1-.13,1.43-.6,2.8-2.2l3.07-3.74-3.14-4.14c-1.23-1.64-1.7-2-2.7-2.17l-.73-.2-.1-1.17h7.27l-.1,1.13-.67.2c-1.03.17-.97.6.03,1.94l1.8,2.54h.03l1.9-2.54c1-1.33,1.13-1.84-.03-1.97l-.87-.17-.1-1.13h6.51l-.1,1.13-.97.2c-1.13.13-1.54.57-2.9,2.2l-2.64,3.2,3.47,4.67c1.23,1.64,1.74,2,2.6,2.17l.67.2.1,1.17h-7.21Z"/>
      <path class="cls-2" d="M394.65,62.18c-3.94,0-6.71-3.27-6.71-7.47,0-4.97,3.5-8.48,7.77-8.48,3.17,0,5.21,2,5.21,5.01,0,.53-.07,1.27-.2,1.8l-9.91-.13v.37c0,3.84,2.2,6.51,5.17,6.51,1.4,0,2.94-.5,4.07-1.77l.67.37c-1.23,2.44-3.44,3.8-6.07,3.8ZM394.98,47.47c-1.8,0-3.67,1.57-4.07,4.37h6.94c.17-2.7-1.03-4.37-2.87-4.37Z"/>
      <path class="cls-2" d="M420.97,61.68l.1-1.17.87-.1c.97-.07,1.13-.3,1.13-.63v-6.97c0-3.27-1.33-4.27-3.07-4.27-1.2,0-2.47.73-3.4,1.53.03.3.03.6.03.93v8.78c0,.3.17.5,1.37.63l.87.1.1,1.17h-7.17l.1-1.17.87-.1c.97-.07,1.13-.3,1.13-.63v-6.97c0-3.27-1.33-4.27-3.07-4.27-1.2,0-2.47.73-3.37,1.4v9.88c0,.33.2.53,1.27.6l1.13.1.1,1.17h-7.41l.1-1.17.93-.1c.8-.07,1.13-.23,1.13-.63v-8.44c0-2.1-.23-2.4-1.43-2.7l-.8-.2.03-.9,4.94-1.3v2.37h.1c1.63-1.43,3.37-2.37,5.07-2.37.97,0,2.04.33,2.74,1.03.43.43.77.97.97,1.57h.13c1.7-1.57,3.54-2.6,5.34-2.6.97,0,2.04.33,2.74,1.03.9.9,1.27,2.14,1.27,3.74v8.78c0,.3.17.5,1.37.63l.87.1.1,1.17h-7.17Z"/>
      <path class="cls-2" d="M436.12,62.18c-.8,0-2.87-.37-3.77-.73h-.03l-1.6.93h-.4v-19.99c0-.4-.1-.67-.37-.77l-2.24-.93.1-.83,5.24-1.43v10.51h.17c1.3-1.47,3.07-2.47,4.77-2.47,3.74,0,5.94,3.24,5.94,7.17,0,4.3-2.8,8.54-7.81,8.54ZM436.82,48.8c-1.6,0-2.94.93-3.77,1.97v8.01c.93,1.03,2.17,2.04,3.8,2.04,2.14,0,4.1-2.34,4.1-5.94s-1.7-6.07-4.14-6.07Z"/>
      <path class="cls-2" d="M453.01,62.18c-4.47,0-7.27-3.5-7.27-7.91s3.5-8.04,7.91-8.04,7.24,3.3,7.24,7.54c0,4.6-3.37,8.41-7.88,8.41ZM456.08,48.87c-.47-.5-1.43-1.27-2.9-1.27-2.47,0-4.4,2.07-4.4,5.64,0,2.57.57,5.01,1.8,6.31.47.5,1.4,1.27,2.9,1.27,2.37,0,4.37-2.07,4.37-5.64,0-2.57-.53-5.01-1.77-6.31Z"/>
      <path class="cls-2" d="M478.5,61.58l-5.24.6v-2.37h-.17c-1.7,1.4-3.54,2.37-5.34,2.37-.97,0-2.04-.33-2.74-1.03-.9-.9-1.27-2.14-1.27-3.74l.1-8.78c0-.63-.27-.47-1.47-.63l-.8-.1-.1-1.17h5.27l-.27,8.88c0,3.27,1.07,4.27,3.07,4.27,1.43,0,2.8-.73,3.7-1.4v-9.88c0-.33-.2-.5-1.27-.6l-1.3-.1-.13-1.17h5.44v12.58c0,.4.1.67.37.77l2.24.67-.1.83Z"/>
      <path class="cls-2" d="M489.76,49.97c-.7,0-1.33-.53-1.7-1.1-.97.57-2.37,1.8-3.27,3.57v7.37c0,.33.2.53,1.27.6l1.3.1.1,1.17h-7.57l.1-1.17.93-.1c.8-.07,1.13-.23,1.13-.63v-8.44c0-2.1-.23-2.4-1.43-2.7l-.8-.2.03-.9,4.94-1.3v4.27h.17c1.84-3,2.97-4.27,4.54-4.27,1.3,0,2,.8,2,1.87s-.57,1.87-1.73,1.87Z"/>
      <path class="cls-2" d="M503.51,48.6v.2c.53.7.93,1.5.93,2.77,0,2.94-2.64,5.34-5.91,5.34-.67,0-1.47-.1-2-.23-.5.23-1.43.9-1.43,1.57,0,.87.93,1.57,2.14,1.57,1.47,0,2.87-.1,3.94-.1,2.74,0,4.87,1.97,4.87,4.47,0,3.54-3.57,6.01-8.61,6.01-3.5,0-5.81-1.57-5.81-3.9,0-2.1,1.54-3.2,3.24-3.9v-.13c-1.33-.23-2.27-1.4-2.27-2.5,0-1.33,1.2-2.57,2.74-3.27,0-.17.13-.17.13-.17-1.7-.8-2.84-2.3-2.84-4.6,0-3.1,2.57-5.47,5.97-5.47,1.6,0,2.8.37,4,.93h4.54v2.07l-3.64-.63ZM500.01,62.45c-1.3-.03-2.34.07-3.8.07-.6.23-2,1.27-2,2.87,0,2.17,1.97,3.54,4.77,3.54s4.54-1.5,4.54-3.47c0-1.7-.87-2.9-3.5-3ZM500.54,48.2c-.53-.53-1.17-.83-1.94-.83-1.83,0-3.14,1.57-3.14,3.8,0,1.67.53,3.04,1.37,3.87.47.47,1.07.73,1.7.73.9,0,1.6-.23,2.1-.73.7-.67,1.03-1.8,1.03-3.37,0-1.47-.37-2.7-1.13-3.47Z"/>
      <path class="cls-2" d="M182.47,101.72l.1-1.17,1.63-.27c1.2-.23,1.13-.7.23-3.47l-.83-2.6h-6.87l-.8,2.57c-.93,2.54-1.03,3.3.07,3.5l1.33.27.1,1.17h-6.97l.1-1.17.93-.23c1.4-.33,1.84-.9,3.9-6.71l3.87-10.84v-1.2l3-1.4,6.31,19.22c.13.4.43.7,1.07.8l1.8.37.1,1.17h-9.08ZM180.4,83.83h-.2l-3,8.98h5.97l-2.77-8.98Z"/>
      <path class="cls-2" d="M211.12,101.72l.1-1.17.87-.1c.97-.07,1.13-.3,1.13-.63v-6.97c0-3.27-1.33-4.27-3.07-4.27-1.2,0-2.47.73-3.4,1.53.03.3.03.6.03.93v8.78c0,.3.17.5,1.37.63l.87.1.1,1.17h-7.17l.1-1.17.87-.1c.97-.07,1.13-.3,1.13-.63v-6.97c0-3.27-1.33-4.27-3.07-4.27-1.2,0-2.47.73-3.37,1.4v9.88c0,.33.2.53,1.27.6l1.13.1.1,1.17h-7.41l.1-1.17.93-.1c.8-.07,1.13-.23,1.13-.63v-8.44c0-2.1-.23-2.4-1.43-2.7l-.8-.2.03-.9,4.94-1.3v2.37h.1c1.63-1.43,3.37-2.37,5.07-2.37.97,0,2.04.33,2.74,1.03.43.43.77.97.97,1.57h.13c1.7-1.57,3.54-2.6,5.34-2.6.97,0,2.04.33,2.74,1.03.9.9,1.27,2.14,1.27,3.74v8.78c0,.3.17.5,1.37.63l.87.1.1,1.17h-7.17Z"/>
      <path class="cls-2" d="M225.73,102.22c-3.94,0-6.71-3.27-6.71-7.47,0-4.97,3.5-8.48,7.77-8.48,3.17,0,5.21,2,5.21,5.01,0,.53-.07,1.27-.2,1.8l-9.91-.13v.37c0,3.84,2.2,6.51,5.17,6.51,1.4,0,2.94-.5,4.07-1.77l.67.37c-1.23,2.44-3.44,3.8-6.07,3.8ZM226.07,87.5c-1.8,0-3.67,1.57-4.07,4.37h6.94c.17-2.7-1.03-4.37-2.87-4.37Z"/>
      <path class="cls-2" d="M243.51,90c-.7,0-1.33-.53-1.7-1.1-.97.57-2.37,1.8-3.27,3.57v7.37c0,.33.2.53,1.27.6l1.3.1.1,1.17h-7.57l.1-1.17.93-.1c.8-.07,1.13-.23,1.13-.63v-8.44c0-2.1-.23-2.4-1.43-2.7l-.8-.2.03-.9,4.94-1.3v4.27h.17c1.84-3,2.97-4.27,4.54-4.27,1.3,0,2,.8,2,1.87s-.57,1.87-1.73,1.87Z"/>
      <path class="cls-2" d="M246.56,101.72l.1-1.17.93-.1c.8-.07,1.13-.23,1.13-.63v-8.44c0-2.1-.23-2.4-1.43-2.7l-.8-.2.03-.9,4.94-1.3v13.58c0,.33.2.53,1.27.6l.97.1.1,1.17h-7.24ZM249.76,83.4c-1.23,0-1.8-.93-1.8-1.97s.57-1.97,1.8-1.97,1.8.93,1.8,1.97-.57,1.97-1.8,1.97Z"/>
      <path class="cls-2" d="M261.33,102.22c-3.94,0-6.71-3.27-6.71-7.47,0-4.97,3.7-8.48,7.91-8.48,3.07,0,4.74,1.6,4.74,3.2,0,1.43-1.07,1.8-1.87,1.8-1.27,0-2.14-1.43-1.77-3.1v-.07c-.47-.33-1.1-.53-1.84-.53-2.4,0-4.3,2.1-4.3,5.64,0,3.77,2.2,6.61,5.17,6.61,1.4,0,2.94-.5,4.07-1.77l.67.37c-1.23,2.44-3.44,3.8-6.07,3.8Z"/>
      <path class="cls-2" d="M279.63,102.25c-1.3,0-2.14-.77-2.24-2.44h-.17c-1.17,1.3-2.47,2.4-4.14,2.4-2.1,0-4-1.67-4-3.9,0-2.77,2.64-4.34,8.34-5.67v-.3c0-3.7-1.3-4.54-3.24-4.54-1.1,0-2.47.47-2.47.77,0,.17.77.77.77,1.67,0,.83-.67,1.6-1.77,1.6-1.03,0-1.74-.7-1.74-1.57,0-1.64,3.7-4.04,6.34-4.04,3.94,0,5.07,1.6,4.84,6.87l-.23,5.67c-.03.83.23,1.3.77,1.3.47,0,.93-.27,1.63-.8l.57.73c-1.03,1.33-2.1,2.24-3.27,2.24ZM277.36,93.74c-4.4,1.1-5.47,2.44-5.47,3.87,0,1.54,1.13,2.5,2.4,2.5.97,0,1.87-.47,2.9-1.4l.17-4.97Z"/>
      <path class="cls-2" d="M293.59,101.72l.1-1.17.87-.1c.97-.07,1.13-.3,1.13-.63v-6.97c0-3.27-1.07-4.27-3.07-4.27-1.43,0-2.8.73-3.7,1.4v9.88c0,.33.2.53,1.27.6l1.13.1.1,1.17h-7.41l.1-1.17.93-.1c.8-.07,1.13-.23,1.13-.63v-8.44c0-2.1-.23-2.4-1.43-2.7l-.8-.2.03-.9,4.94-1.3v2.37h.17c1.7-1.4,3.54-2.37,5.34-2.37.97,0,2.04.33,2.74,1.03.9.9,1.27,2.14,1.27,3.74v8.78c0,.3.17.5,1.37.63l.87.1.1,1.17h-7.17Z"/>
      <path class="cls-2" d="M316.47,102.22c-2.34.03-4.14-.4-5.91-1l-.47-5.94h1.4l1.5,4.57c1.1.53,2.8,1,4.07.97,2.87-.03,4.34-1.9,4.34-3.74,0-2.97-2.4-3.84-5.14-4.87-2.97-1.17-5.77-2.4-5.77-6.11,0-2.77,2.07-5.64,6.94-5.71,1.87-.03,2.94.17,4,.37l1.74-.47v6.64h-1.4l-1.03-4.27c-1.23-.53-2.64-.8-3.77-.8-2.5,0-3.7,1.57-3.7,3.2,0,2.77,2.4,3.57,5.01,4.6,3.1,1.2,6.01,2.47,6.01,6.34,0,3.14-2.87,6.14-7.81,6.21Z"/>
      <path class="cls-2" d="M333.79,102.22c-4.47,0-7.27-3.5-7.27-7.91s3.5-8.04,7.91-8.04,7.24,3.3,7.24,7.54c0,4.6-3.37,8.41-7.88,8.41ZM336.86,88.9c-.47-.5-1.43-1.27-2.9-1.27-2.47,0-4.4,2.07-4.4,5.64,0,2.57.57,5.01,1.8,6.31.47.5,1.4,1.27,2.9,1.27,2.37,0,4.37-2.07,4.37-5.64,0-2.57-.53-5.01-1.77-6.31Z"/>
      <path class="cls-2" d="M350.1,102.22c-3.94,0-6.71-3.27-6.71-7.47,0-4.97,3.7-8.48,7.91-8.48,3.07,0,4.74,1.6,4.74,3.2,0,1.43-1.07,1.8-1.87,1.8-1.27,0-2.14-1.43-1.77-3.1v-.07c-.47-.33-1.1-.53-1.84-.53-2.4,0-4.3,2.1-4.3,5.64,0,3.77,2.2,6.61,5.17,6.61,1.4,0,2.94-.5,4.07-1.77l.67.37c-1.23,2.44-3.44,3.8-6.07,3.8Z"/>
      <path class="cls-2" d="M357.7,101.72l.1-1.17.93-.1c.8-.07,1.13-.23,1.13-.63v-8.44c0-2.1-.23-2.4-1.43-2.7l-.8-.2.03-.9,4.94-1.3v13.58c0,.33.2.53,1.27.6l.97.1.1,1.17h-7.24ZM360.91,83.4c-1.23,0-1.8-.93-1.8-1.97s.57-1.97,1.8-1.97,1.8.93,1.8,1.97-.57,1.97-1.8,1.97Z"/>
      <path class="cls-2" d="M372.58,102.22c-3.94,0-6.71-3.27-6.71-7.47,0-4.97,3.5-8.48,7.77-8.48,3.17,0,5.21,2,5.21,5.01,0,.53-.07,1.27-.2,1.8l-9.91-.13v.37c0,3.84,2.2,6.51,5.17,6.51,1.4,0,2.94-.5,4.07-1.77l.67.37c-1.23,2.44-3.44,3.8-6.07,3.8ZM372.91,87.5c-1.8,0-3.67,1.57-4.07,4.37h6.94c.17-2.7-1.03-4.37-2.87-4.37Z"/>
      <path class="cls-2" d="M386.45,102.22c-2.2,0-4-1.3-3.94-4.7l.23-8.98-2.7-.17.03-1,2.17-1.8,2.17-1.84,1.07.2-.03,2.84h5.47l-.23,1.67h-5.21l-.27,8.34c-.07,2.44,1.1,3.27,2.87,3.27.87,0,1.87-.33,2.77-.83l.17.83c-1.2,1.33-3,2.17-4.57,2.17Z"/>
      <path class="cls-2" d="M408.37,87.9l-.87.23c-.97.13-1.3.53-2.07,2.47l-3.9,10.28-1.67,5.11c-.97,2.9-1.9,4.44-3.84,4.44-1.43,0-2.24-.77-2.24-1.84,0-.97.5-1.77,1.64-1.77,1.03,0,1.6.5,1.97,1.07.5-.27.8-.87,1.3-2.2l1.4-3.9v-.07l-5.94-12.28c-.43-.9-.6-1.1-1.7-1.27l-.7-.2-.13-1.2h7.34l-.1,1.17-.83.13c-.7.07-1.1.4-.73,1.2l4,8.84,2.74-7.74c.53-1.57.4-2.1-.83-2.24l-.9-.23-.1-1.13h6.27l-.1,1.13Z"/>
    </g>
    <g>
      <path class="cls-1" d="M54.77,31.03l17-4.58,16.94,4.63,8.88-21.54-7.69,4.15c-.48.63.47,4.3.22,5.26l-5.76,3.68-.98-4.67c.95-.92,2.11-1.6,2.93-2.64l-1.53-7.28-.5.13-4.97,4.65c-.44.92.9,3.06.61,3.99-.1.31-2.89,2.7-3.1,2.55l-2.55-5.66c.87-1.57,2.35-2.89,3.1-4.46l-5.53-9.24h-.14l-5.38,9.1c-.08.2.01.36.09.54.26.67,1.69,2.19,2.2,2.94.2.29.65.82.68,1.13.02.31-.65,1.66-.83,2.06-.54,1.22-1.18,2.41-1.81,3.59-.2.04-2.98-2.48-3.02-2.68-.16-.77,1.21-2.99.66-3.92l-3.97-3.7-1.42-1.02-1.58,7.16c.04.79,2.62,2.07,2.83,2.76.27.88-.94,3.58-.83,4.67-.21.05-.31-.08-.47-.16-1.79-.98-3.48-2.52-5.29-3.52-.13-1.71.31-3.45.29-5.18l-7.9-4.23,8.62,21.26.2.22Z"/>
      <path class="cls-1" d="M111,57.71c-.37.09-1.01-.17-1.25-.17h-16.57c.42-1.68,1.4-3.25,1.89-4.94.82-2.85.7-5.45-.64-8.12l-5.19-1.5c-.78-.18-1.4.11-2.08.39-1.1.45-2.54,1.27-3.6,1.87-.78.44-2.47,1.3-3.07,1.79-.14.11-.35.41-.16.56,1.01.8,2.05,1.63,2.99,2.49,1.49,1.36,2.38,1.8,2.74,3.86.89,5.16,1.22,10.44,2.45,15.51l22.85,17.65,32.04-14.16v-.68c-10.85-4.75-21.57-9.76-32.4-14.56Z"/>
      <path class="cls-1" d="M77.46,84.82c-7.94,8.24-15.8,16.88-20.69,27.2,4.77,10.74,10.05,21.28,14.92,31.98h.14l15.08-31.85-9.13-27.1-.33-.23Z"/>
      <path class="cls-1" d="M38.04,98.74c.05.16.17.29.32.38l5.98,3.67,19.81-6.86c7.03-8.78,15.25-16.82,21.21-26.31l-2.25-16.39-.54-.58-11.83-8.57c-.8-.23-2.49.44-3.31.72-1.86.64-3.66,1.56-5.53,2.2-.75.26-3.33,1.17-3.9.84-.51-.29-.69-2.1-.67-2.7-.22-.22-1.93.9-2.2,1.09-1.33.97-3.02,2.55-4.27,3.68-1.08.98-5.39,4.92-5.72,5.96-.1.31-.35,1.69.04,1.81.37.11,2.14,0,2.7,0,.41,0,0,.83-.09,1.01-.67,1.45-2.48,3-3.68,4.11-2.95,2.73-7.35,5.86-9.65,9.02-.94,1.29-1.44,2.22.61,2.78,2.68.73,4.42-1.31,6.83-.95.79.12,1.42.73,2.41.66.72-.05,3.38-1.46,3.65-1.22-.84,4.03-7.43,4.06-7.95,8.12-.25,1.91.16,3.85,1.77,5.1,1.83,1.42,7.47,3.42,9.81,3.55,2.47.14,5.88-1.06,7.95.29.78.51,1.15.95.67,1.82-1.09,1.96-2.03.5-3.48.34-1.71-.19-3.34.42-5.12.27-3.33-.27-8.76-3.43-11.37-3.12-2.72.32-2.6,4.47-2.5,6.46.03.58.18,2.33.34,2.81ZM60.31,62.38l-5.61,3.62c-.02-.21.18-.49.3-.67,1.72-2.61,4-5.1,5.75-7.72.39-.39,1.12-.39,1.68-.44,2.32-.2,5.75.53,7.85,1.53.23.11.52.17.36.48-.33.64-1.95.47-2.67.85-.47.24-.87.84-1.34,1.17-1.84,1.28-4.19.91-6.31,1.18Z"/>
      <path class="cls-1" d="M109.89,89.46c-7.32-5.77-14.86-11.28-22.12-17.12-.36-.33-.78-.11-1.12.14-.97.71-4.31,5.49-5.19,6.75-.5.72-1.67,2.25-1.65,3.05,3.05,9.54,6.37,18.99,9.56,28.49.09.16.24.22.4.29,1.24.57,3.32,1.15,4.7,1.63,9.45,3.28,18.98,6.38,28.45,9.62.16-.17-.48-1.77-.6-2.08-3.97-10.31-8.35-20.5-12.42-30.77Z"/>
      <path class="cls-1" d="M86.16,35.21c-3.27,1.66-6.32,3.71-9.53,5.45-.48.26-2.7,1.22-2.87,1.48-.5.78,2.12,2.49,2.73,2.84,1.5.84,1.78.71,3.27-.08,2.11-1.13,5.23-3.92,7.38-4.51,1.19-.33,5.23.76,6.57,1.17,1.51.46,2.66.67,3.31,2.15.64,1.46,1.61,5.57,1.39,7.06-.1.67-1.61,4.12-1.25,4.46h13.37l12.35-32-.19-.32c-2.95.99-5.89,2.04-8.86,2.96-3.37,1.05-7.06,1.85-10.36,3.02-2.08.74-4.58,1.29-6.78,2.09-3.62,1.33-7.13,2.5-10.53,4.22Z"/>
      <path class="cls-2" d="M60.18,100.23c-.17-.16-2.21.47-2.59.58-3.04.95-5.87,2.45-8.86,3.51-.92.33-4.28,1.46-5.06,1.3-.84-.17-2.8-1.6-3.6-2.15-1.08-.74-2.29-1.61-3.29-2.43-1.16-.95-1.67-1.07-1.79-2.65-.14-1.92.71-5.86-.47-7.4-.23-.3-1.67-1.23-1.92-.63l-11.98,31.95c11.12-3.58,22.14-7.46,33.2-11.2l6.32-10.58.03-.31Z"/>
      <path class="cls-1" d="M60.1,44.85c.48.02,3.42-1.02,4.1-1.25,7.56-2.64,14.2-7.21,21.45-10.47.05-.26-.17-.42-.39-.51l-13.48-3.58-15.07,4.08-.1.22c.8,3.24,1.46,6.57,2.5,9.75.14.44.44,1.74.99,1.76Z"/>
      <path class="cls-1" d="M34.79,79.22c-.08-.09-.58-1.18-.79-.47v6.14c0,.29,1.26,3.29,1.5,3.6.77.99,1.13.54,1.69-.27,1.37-2,1.05-4.14-.03-6.22-.45-.87-1.69-1.98-2.36-2.78Z"/>
      <path class="cls-1" d="M52.43,44.86c2.23-.8,3.8-2.39,3.45-4.81l-1.12-4.18-.53.02c-1.54,1.7-2.66,2.65-2.6,5.09.02.68.33,2.95.58,3.54.05.13.06.27.22.34Z"/>
      <path class="cls-2" d="M31.83,85.47c-.34-1.54-.8-2.61-.67-4.26.1-1.37.67-3.19.33-4.55-.15-.58-.65-1.09-.74-1.74-.66-4.51,6.02-8.22,8.58-11.39.78-.97.94-1.14-.22-1.81-2.2-1.28-4.66-2.22-6.85-3.52l-.71-.08L0,72.14v.68l32.01,14.04c.06-.07-.14-1.2-.18-1.39Z"/>
      <path class="cls-2" d="M33.31,55.55c2.74,1.75,5.77,3.16,8.53,4.92,1.26.43.55-2.14.55-2.86.02-5.04,3.4-6.05,6.7-9,.22-.2,1.21-1.1,1.26-1.26l-1.66-7.85,3.69-5.48.12-.4-32-10.72c.78,2.4,1.84,4.73,2.77,7.09,3.34,8.5,6.69,17.05,10.05,25.55Z"/>
    </g>
  </g>
</svg>