<?xml version="1.0" encoding="UTF-8" standalone="no"?><!DOCTYPE svg PUBLIC "-//W3C//DTD SVG 1.1//EN" "http://www.w3.org/Graphics/SVG/1.1/DTD/svg11.dtd"><svg width="100%" height="100%" viewBox="0 0 2051 2198" version="1.1" xmlns="http://www.w3.org/2000/svg" xmlns:xlink="http://www.w3.org/1999/xlink" xml:space="preserve" xmlns:serif="http://www.serif.com/" style="fill-rule:evenodd;clip-rule:evenodd;stroke-linejoin:round;stroke-miterlimit:2;"><g><path d="M832.278,345.048l189.031,-50.927l188.375,51.528l98.73,-239.502l-85.542,46.124c-5.36,7.05 5.226,47.825 2.491,58.488l-64.048,40.942l-10.841,-51.961c10.508,-10.208 23.44,-17.78 32.591,-29.322l-17.024,-80.961l-5.604,1.446l-55.242,51.661c-4.859,10.241 10.03,34.037 6.75,44.389c-1.101,3.492 -32.146,29.989 -34.448,28.366l-28.388,-62.981c9.652,-17.402 26.164,-32.102 34.459,-49.615l-61.468,-102.722l-1.579,0l-59.845,101.221c-0.845,2.257 0.167,3.981 0.956,6.005c2.936,7.495 18.825,24.385 24.441,32.702c2.168,3.214 7.261,9.085 7.517,12.543c0.267,3.492 -7.172,18.414 -9.174,22.928c-5.993,13.51 -13.088,26.854 -20.082,39.919c-2.235,0.478 -33.158,-27.587 -33.603,-29.745c-1.746,-8.595 13.421,-33.281 7.35,-43.633l-44.089,-41.131l-15.823,-11.342l-17.558,79.627c0.489,8.74 29.122,22.984 31.49,30.634c3.036,9.774 -10.43,39.83 -9.207,51.972c-2.368,0.511 -3.469,-0.834 -5.226,-1.801c-19.893,-10.864 -38.718,-28.01 -58.822,-39.141c-1.39,-19.025 3.503,-38.407 3.202,-57.588l-87.833,-47.024l95.805,236.433l2.257,2.469Z" style="fill:#8b3a3a;fill-rule:nonzero;"/><path d="M1457.537,641.745c-4.07,0.945 -11.275,-1.868 -13.866,-1.868l-184.294,0c4.659,-18.658 15.601,-36.138 21.016,-54.908c9.14,-31.635 7.739,-60.634 -7.128,-90.335l-57.755,-16.635c-8.64,-2.035 -15.523,1.279 -23.173,4.37c-12.276,4.959 -28.21,14.155 -40.008,20.782c-8.64,4.848 -27.454,14.466 -34.17,19.904c-1.501,1.223 -3.936,4.515 -1.768,6.249c11.186,8.951 22.773,18.103 33.292,27.71c16.568,15.134 26.475,19.971 30.412,42.866c9.863,57.332 13.521,116.087 27.276,172.485l254.113,196.281l356.29,-157.429l0,-7.583c-120.602,-52.784 -239.892,-108.504 -360.238,-161.888" style="fill:#8b3a3a;fill-rule:nonzero;"/><path d="M1084.599,943.118c-88.322,91.613 -175.665,187.686 -230.006,302.483c53.073,119.479 111.717,236.611 165.925,355.601l1.59,0l167.659,-354.166l-101.465,-301.393l-3.703,-2.524Z" style="fill:#8b3a3a;fill-rule:nonzero;"/><path d="M893.897,693.635l-62.425,40.219c-0.256,-2.313 2.024,-5.482 3.302,-7.428c19.092,-28.988 44.433,-56.743 63.948,-85.787c4.281,-4.359 12.443,-4.314 18.658,-4.859c25.842,-2.235 63.993,5.86 87.321,16.979c2.591,1.234 5.838,1.857 4.014,5.348c-3.703,7.061 -21.705,5.26 -29.745,9.418c-5.193,2.68 -9.629,9.385 -14.878,13.032c-20.438,14.2 -46.568,10.174 -70.197,13.076m-247.597,404.271c0.612,1.801 1.89,3.18 3.503,4.225l66.472,40.808l220.332,-76.291c78.225,-97.651 169.572,-186.996 235.877,-292.609l-25.03,-182.293l-5.96,-6.427l-131.566,-95.238c-8.94,-2.569 -27.71,4.893 -36.839,8.05c-20.738,7.161 -40.697,17.357 -61.468,24.474c-8.306,2.847 -36.983,13.032 -43.41,9.329c-5.66,-3.258 -7.717,-23.395 -7.472,-30.034c-2.391,-2.48 -21.461,9.974 -24.474,12.154c-14.8,10.73 -33.625,28.388 -47.514,40.953c-12.02,10.875 -59.901,54.719 -63.648,66.283c-1.134,3.48 -3.87,18.825 0.4,20.104c4.125,1.234 23.785,0 30.056,0c4.515,0 -0.067,9.207 -0.99,11.186c-7.461,16.09 -27.565,33.336 -40.909,45.69c-32.847,30.412 -81.75,65.127 -107.325,100.309c-10.408,14.333 -15.968,24.696 6.783,30.912c29.8,8.128 49.115,-14.544 75.902,-10.597c8.762,1.29 15.745,8.128 26.765,7.383c7.973,-0.534 37.528,-16.279 40.553,-13.532c-9.318,44.8 -82.573,45.178 -88.444,90.335c-2.758,21.183 1.835,42.81 19.681,56.698c20.304,15.79 83.062,38.04 109.049,39.519c27.432,1.568 65.371,-11.764 88.355,3.247c8.651,5.649 12.754,10.608 7.406,20.204c-12.142,21.739 -22.561,5.537 -38.751,3.781c-19.025,-2.068 -37.083,4.659 -56.932,3.024c-37.028,-3.058 -97.407,-38.162 -126.44,-34.726c-30.267,3.58 -28.955,49.76 -27.788,71.876c0.334,6.46 2.057,25.908 3.825,31.201" style="fill:#8b3a3a;fill-rule:nonzero;"/><path d="M1445.142,994.793c-81.383,-64.159 -165.258,-125.405 -245.974,-190.321c-3.959,-3.669 -8.662,-1.234 -12.465,1.534c-10.808,7.85 -47.969,61.035 -57.688,75.101c-5.537,8.017 -18.581,24.985 -18.38,33.903c33.87,106.058 70.876,211.17 106.247,316.772c0.99,1.812 2.713,2.457 4.492,3.28c13.788,6.36 36.939,12.765 52.306,18.091c105.112,36.45 211.048,70.92 316.293,106.958c1.768,-1.857 -5.337,-19.681 -6.683,-23.151c-44.178,-114.642 -92.803,-227.938 -138.148,-342.168" style="fill:#8b3a3a;fill-rule:nonzero;"/><path d="M1181.366,391.481c-36.316,18.403 -70.286,41.209 -106.002,60.634c-5.315,2.891 -30.078,13.521 -31.935,16.435c-5.515,8.618 23.529,27.71 30.39,31.535c16.724,9.318 19.77,7.939 36.383,-0.923c23.507,-12.532 58.21,-43.555 82.106,-50.182c13.199,-3.669 58.121,8.462 73.066,13.054c16.79,5.171 29.578,7.461 36.75,23.907c7.083,16.246 17.936,61.902 15.412,78.515c-1.145,7.483 -17.858,45.801 -13.866,49.648l148.701,0l137.337,-355.856l-2.124,-3.558c-32.802,10.975 -65.449,22.673 -98.507,32.958c-37.506,11.675 -78.548,20.616 -115.175,33.592c-23.129,8.195 -50.938,14.3 -75.412,23.295c-40.208,14.767 -79.315,27.788 -117.121,46.946" style="fill:#8b3a3a;fill-rule:nonzero;"/><path d="M892.383,1114.485c-1.913,-1.757 -24.541,5.171 -28.799,6.494c-33.848,10.519 -65.238,27.232 -98.507,39.018c-10.23,3.625 -47.591,16.246 -56.22,14.455c-9.329,-1.946 -31.146,-17.825 -40.008,-23.862c-12.02,-8.206 -25.464,-17.88 -36.628,-27.054c-12.899,-10.586 -18.57,-11.942 -19.882,-29.467c-1.601,-21.394 7.917,-65.127 -5.182,-82.229c-2.569,-3.369 -18.558,-13.655 -21.338,-6.994l-133.178,355.267c123.615,-39.852 246.152,-82.985 369.178,-124.505l70.242,-117.666l0.322,-3.458Z" style="fill:#2a6383;fill-rule:nonzero;"/><path d="M891.498,498.758c5.282,0.278 38.084,-11.309 45.579,-13.922c84.063,-29.4 157.919,-80.149 238.457,-116.399c0.511,-2.913 -1.924,-4.626 -4.359,-5.649l-149.857,-39.863l-167.548,45.356l-1.067,2.435c8.929,36.06 16.268,73.077 27.832,108.426c1.601,4.904 4.926,19.303 10.964,19.615" style="fill:#8b3a3a;fill-rule:nonzero;"/><path d="M610.12,880.882c-0.867,-1.034 -6.449,-13.143 -8.784,-5.226l0,68.24c0,3.236 13.955,36.561 16.713,40.075c8.606,11.019 12.532,6.038 18.747,-3.047c15.234,-22.261 11.653,-46.09 -0.378,-69.141c-5.048,-9.674 -18.792,-21.994 -26.298,-30.901" style="fill:#8b3a3a;fill-rule:nonzero;"/><path d="M806.239,498.848c24.741,-8.862 42.21,-26.62 38.318,-53.451l-12.42,-46.468l-5.86,0.2c-17.168,18.859 -29.6,29.522 -28.855,56.587c0.211,7.583 3.692,32.814 6.394,39.341c0.6,1.457 0.701,3.013 2.424,3.792" style="fill:#8b3a3a;fill-rule:nonzero;"/><path d="M577.164,950.379c-3.736,-17.146 -8.84,-29.011 -7.45,-47.402c1.168,-15.267 7.472,-35.416 3.647,-50.538c-1.646,-6.472 -7.228,-12.12 -8.273,-19.37c-7.294,-50.193 66.906,-91.346 95.427,-126.595c8.707,-10.764 10.43,-12.676 -2.413,-20.182c-24.418,-14.277 -51.839,-24.641 -76.202,-39.163l-7.861,-0.901l-350.775,155.895l0,7.583l355.912,156.162c0.689,-0.723 -1.546,-13.332 -2.013,-15.489" style="fill:#2a6383;fill-rule:nonzero;"/><path d="M593.602,617.718c30.49,19.426 64.115,35.104 94.816,54.697c14.044,4.837 6.093,-23.829 6.116,-31.802c0.211,-56.087 37.84,-67.317 74.489,-100.031c2.469,-2.191 13.477,-12.187 13.988,-13.999l-18.514,-87.255l41.009,-60.912l1.368,-4.437l-355.812,-119.234c8.662,26.731 20.493,52.64 30.812,78.87c37.139,94.471 74.4,189.565 111.728,284.103" style="fill:#2a6383;fill-rule:nonzero;"/></g><g><path d="M30.175,1897.7l0,-4.236l16.264,-8.21l0,-106.815l-21.441,0l-19.271,24.135l-5.726,0l5.857,-32.894l111.338,0l-5.857,32.894l-5.726,0l-11.453,-24.135l-24.265,0l0,106.815l16.264,8.263l0,4.184l-55.983,0Z" style="fill:#2a6383;fill-rule:nonzero;"/><path d="M139.788,1900.497l-28.371,-85.53l-9.152,-7.191l0,-4.21l48.74,0l0,4.21l-14.486,7.583l18.487,58.598l26.2,-70.391l8.812,0l27.116,70.208l17.545,-58.415l-11.819,-7.583l0,-4.21l34.777,0l0,4.21l-10.721,7.269l-28.188,80.431l-15.689,5.02l-23.742,-61.134l-23.821,56.114l-15.689,5.02Z" style="fill:#2a6383;fill-rule:nonzero;"/><path d="M260.225,1897.7l0,-4.21l13.571,-7.348l0,-67.697l-14.251,-5.282l0,-4.236l29.966,-8.158l6.485,0l0,85.373l14.042,7.348l0,4.21l-49.812,0Zm25.521,-111.103c-1.203,0 -2.671,-0.37 -4.406,-1.111c-1.734,-0.741 -3.412,-1.708 -5.034,-2.902c-1.621,-1.194 -2.998,-2.475 -4.131,-3.844c-1.133,-1.368 -1.7,-2.698 -1.7,-3.988c0,-1.29 0.471,-2.737 1.412,-4.341c0.941,-1.604 2.148,-3.146 3.622,-4.628c1.473,-1.482 2.994,-2.702 4.563,-3.661c1.569,-0.959 2.955,-1.438 4.158,-1.438c1.116,0 2.541,0.37 4.275,1.111c1.734,0.741 3.434,1.721 5.099,2.942c1.665,1.22 3.064,2.515 4.197,3.883c1.133,1.368 1.7,2.724 1.7,4.066c0,1.29 -0.506,2.724 -1.517,4.301c-1.011,1.578 -2.253,3.107 -3.726,4.589c-1.473,1.482 -2.994,2.689 -4.563,3.622c-1.569,0.933 -2.885,1.399 -3.948,1.399Z" style="fill:#2a6383;fill-rule:nonzero;"/><path d="M315.058,1897.7l0,-4.21l13.571,-7.348l0,-67.697l-14.251,-5.282l0,-4.236l29.966,-8.158l6.485,0l0,12.263c6.52,-4.149 12.499,-7.23 17.938,-9.243c5.439,-2.013 10.067,-3.02 13.885,-3.02c5.073,0 9.605,0.902 13.597,2.706c3.992,1.804 7.147,4.463 9.466,7.975c2.318,3.513 3.478,7.901 3.478,13.166l0,61.526l13.571,7.348l0,4.21l-41.445,0l0,-4.21l5.674,-7.348l0,-52.008c0,-4.166 -0.819,-7.631 -2.458,-10.394c-1.639,-2.763 -3.835,-4.85 -6.589,-6.262c-2.754,-1.412 -5.796,-2.118 -9.126,-2.118c-2.789,0 -5.753,0.357 -8.89,1.072c-3.138,0.715 -6.171,1.804 -9.1,3.269l0,66.442l11.924,7.348l0,4.21l-47.694,0Z" style="fill:#2a6383;fill-rule:nonzero;"/><path d="M537.395,1900.497c-12.028,0 -22.439,-2.497 -31.234,-7.491c-8.794,-4.994 -15.554,-12.294 -20.278,-21.899c-4.724,-9.605 -7.086,-21.241 -7.086,-34.908c0,-11.366 1.787,-21.346 5.36,-29.94c3.574,-8.594 8.433,-15.815 14.578,-21.664c6.145,-5.848 13.152,-10.263 21.023,-13.244c7.871,-2.981 16.103,-4.471 24.697,-4.471c7.112,0 13.623,0.51 19.533,1.53c5.909,1.02 10.834,2.637 14.774,4.85l-4.942,28.684l-5.543,0l-13.1,-21.18c-2.911,-0.959 -5.957,-1.578 -9.139,-1.857c-3.181,-0.279 -6.341,-0.418 -9.479,-0.418c-7.077,0 -13.205,1.66 -18.382,4.981c-5.177,3.321 -9.134,8.79 -11.871,16.408c-2.737,7.618 -4.105,17.833 -4.105,30.646c0,12.446 1.804,23.071 5.413,31.874c3.608,8.803 8.598,15.519 14.97,20.147c6.371,4.628 13.671,6.942 21.899,6.942c1.952,0 4.232,-0.105 6.838,-0.314c2.606,-0.209 4.816,-0.523 6.629,-0.941l18.539,-25.102l5.517,0l-5.256,29.992c-7.827,2.981 -14.931,4.955 -21.311,5.923c-6.38,0.967 -12.394,1.451 -18.042,1.451Z" style="fill:#2a6383;fill-rule:nonzero;"/><path d="M590.763,1897.7l0,-4.21l13.571,-7.348l0,-67.697l-14.251,-5.282l0,-4.236l29.966,-8.158l6.485,0l0,85.373l14.042,7.348l0,4.21l-49.812,0Zm25.521,-111.103c-1.203,0 -2.671,-0.37 -4.406,-1.111c-1.734,-0.741 -3.412,-1.708 -5.034,-2.902c-1.621,-1.194 -2.998,-2.475 -4.131,-3.844c-1.133,-1.368 -1.7,-2.698 -1.7,-3.988c0,-1.29 0.471,-2.737 1.412,-4.341c0.941,-1.604 2.148,-3.146 3.622,-4.628c1.473,-1.482 2.994,-2.702 4.563,-3.661c1.569,-0.959 2.955,-1.438 4.158,-1.438c1.116,0 2.541,0.37 4.275,1.111c1.734,0.741 3.434,1.721 5.099,2.942c1.665,1.22 3.064,2.515 4.197,3.883c1.133,1.368 1.7,2.724 1.7,4.066c0,1.29 -0.506,2.724 -1.517,4.301c-1.011,1.578 -2.253,3.107 -3.726,4.589c-1.473,1.482 -2.994,2.689 -4.563,3.622c-1.569,0.933 -2.885,1.399 -3.948,1.399Z" style="fill:#2a6383;fill-rule:nonzero;"/><path d="M682.621,1900.497c-4.794,0 -9.265,-0.976 -13.414,-2.929c-4.149,-1.952 -7.422,-4.898 -9.819,-8.838c-2.397,-3.94 -3.543,-8.786 -3.438,-14.538l1.151,-62.259l-14.486,0l0,-4.785l30.646,-20.945l5.962,0l-0.288,17.362l9.806,0l22.592,-1.046l-2.379,11.087l-20.212,-1.673l-9.884,0l-0.837,56.009c-0.139,6.241 1.46,10.804 4.798,13.689c3.338,2.885 7.247,4.328 11.727,4.328c3.434,0 6.323,-0.288 8.668,-0.863c2.345,-0.575 4.894,-1.316 7.648,-2.223l2.066,5.648c-3.452,2.04 -6.899,3.979 -10.342,5.818c-3.443,1.839 -6.833,3.325 -10.172,4.458c-3.338,1.133 -6.602,1.7 -9.792,1.7Z" style="fill:#2a6383;fill-rule:nonzero;"/><path d="M716.143,1897.7l0,-4.21l13.571,-7.348l0,-67.697l-14.251,-5.282l0,-4.236l29.966,-8.158l6.485,0l0,85.373l14.042,7.348l0,4.21l-49.812,0Zm25.521,-111.103c-1.203,0 -2.671,-0.37 -4.406,-1.111c-1.734,-0.741 -3.412,-1.708 -5.034,-2.902c-1.621,-1.194 -2.998,-2.475 -4.131,-3.844c-1.133,-1.368 -1.7,-2.698 -1.7,-3.988c0,-1.29 0.471,-2.737 1.412,-4.341c0.941,-1.604 2.148,-3.146 3.622,-4.628c1.473,-1.482 2.994,-2.702 4.563,-3.661c1.569,-0.959 2.955,-1.438 4.158,-1.438c1.116,0 2.541,0.37 4.275,1.111c1.734,0.741 3.434,1.721 5.099,2.942c1.665,1.22 3.064,2.515 4.197,3.883c1.133,1.368 1.7,2.724 1.7,4.066c0,1.29 -0.506,2.724 -1.517,4.301c-1.011,1.578 -2.253,3.107 -3.726,4.589c-1.473,1.482 -2.994,2.689 -4.563,3.622c-1.569,0.933 -2.885,1.399 -3.948,1.399Z" style="fill:#2a6383;fill-rule:nonzero;"/><path d="M810.825,1900.497c-8.158,0 -15.606,-1.643 -22.344,-4.929c-6.737,-3.286 -12.089,-8.446 -16.055,-15.48c-3.966,-7.034 -5.949,-16.216 -5.949,-27.547c0,-8.21 1.19,-15.501 3.569,-21.873c2.379,-6.371 5.67,-11.78 9.871,-16.225c4.201,-4.445 9.025,-7.836 14.473,-10.172c5.448,-2.336 11.239,-3.504 17.375,-3.504c8.001,0 14.49,1.482 19.467,4.445c4.977,2.963 8.699,6.759 11.165,11.387c2.467,4.628 3.975,9.579 4.524,14.852c0.549,5.273 0.397,10.263 -0.458,14.97l-58.441,0c0.087,9.274 1.626,16.765 4.615,22.474c2.99,5.709 7.025,9.84 12.107,12.394c5.081,2.554 10.708,3.831 16.879,3.831c3.975,0 7.953,-0.536 11.937,-1.608c3.983,-1.072 8.119,-2.828 12.407,-5.269l2.824,5.857c-5.77,4.271 -11.889,8.071 -18.356,11.401c-6.467,3.33 -13.004,4.994 -19.611,4.994Zm-22.749,-61.736l37.052,0c0,-6.241 -0.824,-11.414 -2.471,-15.519c-1.647,-4.105 -4.018,-7.191 -7.112,-9.256c-3.094,-2.066 -6.951,-3.099 -11.571,-3.099c-3.452,0 -6.297,0.758 -8.537,2.275c-2.24,1.517 -3.94,4.271 -5.099,8.263c-1.159,3.992 -1.913,9.771 -2.262,17.336Z" style="fill:#2a6383;fill-rule:nonzero;"/><path d="M888.276,1900.497c-5.892,0 -11.483,-0.44 -16.774,-1.32c-5.291,-0.88 -9.609,-2.018 -12.956,-3.412l3.635,-21.729l5.047,0l14.564,16.97c0.941,0.227 2.214,0.492 3.818,0.798c1.604,0.305 3.234,0.458 4.89,0.458c6.031,0 10.721,-1.055 14.068,-3.164c3.347,-2.109 5.02,-5.84 5.02,-11.191c0,-3.835 -1.164,-7.117 -3.491,-9.845c-2.327,-2.728 -7.099,-5.4 -14.316,-8.014l-7.766,-3.059c-7.67,-2.702 -13.571,-6.267 -17.702,-10.695c-4.131,-4.428 -6.197,-10.093 -6.197,-16.996c0,-5.7 1.717,-10.69 5.151,-14.97c3.434,-4.28 8.045,-7.609 13.832,-9.989c5.787,-2.379 12.194,-3.569 19.219,-3.569c6.049,0 11.788,0.488 17.218,1.464c5.43,0.976 9.54,2.022 12.329,3.138l-3.713,21.441l-4.759,0l-15.27,-16.996c-0.976,-0.279 -2.24,-0.519 -3.791,-0.719c-1.551,-0.2 -3.382,-0.301 -5.491,-0.301c-10.25,0 -15.375,4.192 -15.375,12.577c0,4.062 1.512,7.496 4.537,10.302c3.024,2.807 7.221,5.16 12.59,7.06l8.132,3.085c8.298,2.754 14.534,6.293 18.709,10.616c4.175,4.323 6.262,9.989 6.262,16.996c0,6.38 -1.931,11.893 -5.792,16.539c-3.861,4.646 -8.912,8.228 -15.153,10.747c-6.241,2.519 -13.065,3.778 -20.474,3.778Z" style="fill:#2a6383;fill-rule:nonzero;"/><path d="M990.332,1897.7l0,-4.236l15.48,-7.897l0,-103.755l-15.48,-8.106l0,-4.027l57.604,0l0,4.236l-18.748,7.897l0,107.129l34.725,0l20.762,-28.292l5.648,0l-6.302,37.052l-93.688,0Z" style="fill:#2a6383;fill-rule:nonzero;"/><path d="M1125.909,1900.497c-7.147,0 -13.131,-2.092 -17.951,-6.276c-4.82,-4.184 -7.23,-10.041 -7.23,-17.571l0,-58.206l-14.381,-5.622l0,-4.053l32.058,-7.766l6.485,0l-2.092,22.88l0,43.197c0,4.114 0.78,7.574 2.34,10.381c1.56,2.807 3.722,4.916 6.485,6.328c2.763,1.412 5.827,2.118 9.191,2.118c2.51,0 5.173,-0.305 7.988,-0.915c2.815,-0.61 6.245,-1.752 10.289,-3.425l0,-63.121l-13.937,-5.622l0,-4.053l31.613,-7.766l6.485,0l-2.092,22.88l0,60.611l15.872,4.184l0,4.262l-31.456,7.557l-6.485,0l0,-12.263c-6.886,4.288 -12.952,7.404 -18.199,9.348c-5.247,1.944 -10.241,2.916 -14.983,2.916Z" style="fill:#2a6383;fill-rule:nonzero;"/><path d="M1199.777,1897.7l0,-4.21l11.793,-7.321l28.867,-33.522l-28.894,-38.072l-9.701,-6.798l0,-4.21l46.282,0l0,4.21l-9.858,6.589l18.304,25.259l17.964,-24.998l-8.838,-6.851l0,-4.21l33.836,0l0,4.21l-11.714,7.321l-26.41,30.567l31.038,41.026l9.858,6.798l0,4.21l-46.544,0l0,-4.21l10.093,-6.668l-20.448,-28.005l-20.605,27.743l9.1,6.929l0,4.21l-34.123,0Z" style="fill:#2a6383;fill-rule:nonzero;"/><path d="M1345.945,1900.497c-8.158,0 -15.606,-1.643 -22.344,-4.929c-6.737,-3.286 -12.089,-8.446 -16.055,-15.48c-3.966,-7.034 -5.949,-16.216 -5.949,-27.547c0,-8.21 1.19,-15.501 3.569,-21.873c2.379,-6.371 5.67,-11.78 9.871,-16.225c4.201,-4.445 9.025,-7.836 14.473,-10.172c5.448,-2.336 11.239,-3.504 17.375,-3.504c8.001,0 14.49,1.482 19.467,4.445c4.977,2.963 8.699,6.759 11.165,11.387c2.467,4.628 3.975,9.579 4.524,14.852c0.549,5.273 0.397,10.263 -0.458,14.97l-58.441,0c0.087,9.274 1.626,16.765 4.615,22.474c2.99,5.709 7.025,9.84 12.107,12.394c5.081,2.554 10.708,3.831 16.879,3.831c3.975,0 7.953,-0.536 11.937,-1.608c3.983,-1.072 8.119,-2.828 12.407,-5.269l2.824,5.857c-5.77,4.271 -11.889,8.071 -18.356,11.401c-6.467,3.33 -13.004,4.994 -19.611,4.994Zm-22.749,-61.736l37.052,0c0,-6.241 -0.824,-11.414 -2.471,-15.519c-1.647,-4.105 -4.018,-7.191 -7.112,-9.256c-3.094,-2.066 -6.951,-3.099 -11.571,-3.099c-3.452,0 -6.297,0.758 -8.537,2.275c-2.24,1.517 -3.94,4.271 -5.099,8.263c-1.159,3.992 -1.913,9.771 -2.262,17.336Z" style="fill:#2a6383;fill-rule:nonzero;"/><path d="M1392.619,1897.7l0,-4.21l13.571,-7.348l0,-67.697l-14.251,-5.282l0,-4.236l29.966,-8.158l6.485,0l0,12.316c6.973,-4.166 13.105,-7.26 18.395,-9.283c5.291,-2.022 9.81,-3.033 13.558,-3.033c5.352,0 9.975,1.116 13.872,3.347c3.896,2.231 6.742,5.369 8.537,9.413c7.339,-4.253 13.828,-7.443 19.467,-9.57c5.639,-2.127 10.159,-3.19 13.558,-3.19c5.177,0 9.71,0.941 13.597,2.824c3.887,1.883 6.921,4.602 9.1,8.158c2.179,3.556 3.269,7.844 3.269,12.865l0,61.526l13.571,7.348l0,4.21l-40.582,0l0,-4.21l4.811,-7.348l0,-52.479c0,-4.009 -0.693,-7.356 -2.079,-10.041c-1.386,-2.685 -3.343,-4.733 -5.87,-6.145c-2.528,-1.412 -5.5,-2.118 -8.916,-2.118c-2.754,0 -5.613,0.401 -8.577,1.203c-2.963,0.802 -6.145,1.865 -9.544,3.19c0.227,0.732 0.362,1.486 0.405,2.262c0.044,0.776 0.065,1.643 0.065,2.602l0,61.526l11.714,7.348l0,4.21l-38.725,0l0,-4.21l4.89,-7.348l0,-52.479c0,-4.009 -0.697,-7.356 -2.092,-10.041c-1.395,-2.685 -3.325,-4.733 -5.792,-6.145c-2.467,-1.412 -5.365,-2.118 -8.694,-2.118c-2.876,0 -5.766,0.357 -8.668,1.072c-2.902,0.715 -5.992,1.804 -9.269,3.269l0,66.442l11.714,7.348l0,4.21l-47.485,0Z" style="fill:#2a6383;fill-rule:nonzero;"/><path d="M1569.746,1903.374l0,-134.323l-14.852,-4.21l0,-4.367l32.842,-7.74l6.485,0l-2.275,22.67l0,37.784c4.288,-2.58 8.128,-4.794 11.518,-6.642c3.391,-1.848 6.646,-3.273 9.766,-4.275c3.12,-1.002 6.276,-1.504 9.466,-1.504c6.432,0 12.329,1.63 17.689,4.89c5.36,3.26 9.653,8.167 12.878,14.721c3.225,6.554 4.837,14.878 4.837,24.971c0,8.838 -1.495,16.652 -4.484,23.442c-2.99,6.79 -6.99,12.551 -12.002,17.284c-5.012,4.733 -10.586,8.319 -16.722,10.76c-6.136,2.44 -12.324,3.661 -18.565,3.661c-4.201,0 -8.476,-0.353 -12.826,-1.059c-4.349,-0.706 -7.971,-1.582 -10.865,-2.628l-8.054,8.184l-4.837,-1.621Zm22.278,-20.16c2.318,1.36 5.408,2.506 9.269,3.438c3.861,0.933 7.579,1.399 11.152,1.399c4.602,0 8.646,-1.02 12.133,-3.059c3.486,-2.04 6.201,-5.5 8.145,-10.381c1.944,-4.881 2.916,-11.54 2.916,-19.977c0,-9.204 -1.142,-16.7 -3.425,-22.487c-2.284,-5.787 -5.304,-10.032 -9.06,-12.734c-3.757,-2.702 -8.006,-4.053 -12.747,-4.053c-2.632,0 -5.604,0.453 -8.916,1.36c-3.312,0.906 -6.493,2.083 -9.544,3.53l0.078,62.965Z" style="fill:#2a6383;fill-rule:nonzero;"/><path d="M1709.272,1900.497c-8.472,0 -15.841,-1.861 -22.108,-5.583c-6.267,-3.722 -11.095,-9.139 -14.486,-16.251c-3.391,-7.112 -5.086,-15.767 -5.086,-25.965c0,-10.843 2.148,-20.143 6.445,-27.9c4.297,-7.757 10.267,-13.723 17.911,-17.898c7.644,-4.175 16.425,-6.262 26.344,-6.262c8.559,0 15.915,1.861 22.069,5.583c6.154,3.722 10.926,9.161 14.316,16.316c3.391,7.156 5.086,15.833 5.086,26.03c0,10.756 -2.135,20.012 -6.406,27.769c-4.271,7.757 -10.172,13.723 -17.702,17.898c-7.531,4.175 -16.325,6.262 -26.383,6.262Zm7.112,-11.453c5.16,0 9.239,-0.95 12.237,-2.85c2.998,-1.9 5.156,-5.404 6.472,-10.512c1.316,-5.108 1.974,-12.351 1.974,-21.729c0,-13.667 -2.292,-24.056 -6.877,-31.168c-4.585,-7.112 -11.017,-10.668 -19.297,-10.668c-4.968,0 -8.973,0.976 -12.015,2.929c-3.042,1.952 -5.234,5.452 -6.576,10.498c-1.342,5.047 -2.013,12.303 -2.013,21.768c0,13.667 2.34,24.039 7.021,31.116c4.681,7.077 11.039,10.616 19.075,10.616Z" style="fill:#2a6383;fill-rule:nonzero;"/><path d="M1803.458,1900.497c-7.147,0 -13.131,-2.092 -17.951,-6.276c-4.82,-4.184 -7.23,-10.041 -7.23,-17.571l0,-58.206l-14.381,-5.622l0,-4.053l32.058,-7.766l6.485,0l-2.092,22.88l0,43.197c0,4.114 0.78,7.574 2.34,10.381c1.56,2.807 3.722,4.916 6.485,6.328c2.763,1.412 5.827,2.118 9.191,2.118c2.51,0 5.173,-0.305 7.988,-0.915c2.815,-0.61 6.245,-1.752 10.289,-3.425l0,-63.121l-13.937,-5.622l0,-4.053l31.613,-7.766l6.485,0l-2.092,22.88l0,60.611l15.872,4.184l0,4.262l-31.456,7.557l-6.485,0l0,-12.263c-6.886,4.288 -12.952,7.404 -18.199,9.348c-5.247,1.944 -10.241,2.916 -14.983,2.916Z" style="fill:#2a6383;fill-rule:nonzero;"/><path d="M1879.862,1897.7l0,-4.21l13.571,-7.348l0,-67.697l-14.251,-5.282l0,-4.236l29.966,-8.158l6.485,0l0,13.466c6.363,-4.829 11.645,-8.28 15.846,-10.355c4.201,-2.074 7.836,-3.112 10.904,-3.112c4.044,0 7.391,0.697 10.041,2.092l-4.105,24.004l-4.837,0l-16.526,-10.538c-1.795,0.314 -3.713,0.885 -5.753,1.713c-2.04,0.828 -3.896,1.8 -5.57,2.916l0,65.187l18.225,7.348l0,4.21l-53.996,0Z" style="fill:#2a6383;fill-rule:nonzero;"/><path d="M1987.095,1942.23c-11.592,0 -20.125,-1.961 -25.599,-5.883c-5.474,-3.922 -8.21,-8.568 -8.21,-13.937c0,-3.033 0.88,-5.992 2.641,-8.877c1.761,-2.885 4.633,-5.883 8.616,-8.995c3.983,-3.112 9.348,-6.454 16.094,-10.028c-5.491,-1.743 -9.256,-3.848 -11.296,-6.315c-2.04,-2.467 -3.059,-5.365 -3.059,-8.694c0,-2.789 1.055,-5.426 3.164,-7.91c2.109,-2.484 5.866,-5.992 11.27,-10.525c-4.358,-0.994 -8.311,-2.637 -11.858,-4.929c-3.547,-2.292 -6.323,-5.312 -8.328,-9.06c-2.005,-3.748 -3.007,-8.219 -3.007,-13.414c0,-6.955 1.865,-12.895 5.596,-17.82c3.73,-4.925 8.633,-8.659 14.708,-11.204c6.075,-2.545 12.634,-3.818 19.676,-3.818c5.386,0 10.067,0.501 14.042,1.504c3.975,1.002 7.321,2.506 10.041,4.511l29.207,-8.89l-3.399,19.637l-4.419,0l-17.545,-6.537c2.58,2.388 4.558,5.312 5.936,8.773c1.377,3.46 2.066,7.151 2.066,11.074c0,6.398 -1.874,11.95 -5.622,16.656c-3.748,4.707 -8.686,8.346 -14.813,10.917c-6.127,2.571 -12.895,3.857 -20.304,3.857c-0.924,0 -1.857,-0.026 -2.798,-0.078c-0.941,-0.052 -1.865,-0.105 -2.772,-0.157c-1.429,2.04 -2.545,3.805 -3.347,5.295c-0.802,1.49 -1.203,2.741 -1.203,3.752c0,1.813 1.05,3.151 3.151,4.014c2.101,0.863 5.853,1.8 11.257,2.811l18.696,1.621c6.432,1.011 11.536,2.445 15.31,4.301c3.774,1.857 6.502,4.266 8.184,7.23c1.682,2.963 2.523,6.624 2.523,10.982c0,4.532 -1.473,9.156 -4.419,13.872c-2.946,4.715 -6.947,9.047 -12.002,12.996c-5.055,3.948 -10.869,7.147 -17.441,9.596c-6.572,2.449 -13.484,3.674 -20.735,3.674Zm10.878,-13.858c5.857,0 10.978,-0.719 15.362,-2.157c4.384,-1.438 7.823,-3.456 10.315,-6.053c2.493,-2.597 3.739,-5.543 3.739,-8.838c0,-2.388 -0.763,-4.432 -2.288,-6.132c-1.525,-1.7 -4.127,-3.011 -7.805,-3.935c-2.911,-0.54 -6.354,-1.098 -10.328,-1.673c-3.975,-0.575 -7.853,-1.107 -11.636,-1.595c-1.447,-0.227 -2.841,-0.453 -4.184,-0.68c-1.342,-0.227 -2.658,-0.462 -3.948,-0.706c-4.672,2.859 -8.559,5.792 -11.662,8.799c-3.103,3.007 -4.654,6.036 -4.654,9.086c0,3.643 2.162,6.868 6.485,9.675c4.323,2.807 11.191,4.21 20.605,4.21Zm-0.052,-74.653c4.742,0 8.328,-1.29 10.76,-3.87c2.432,-2.58 3.648,-8.036 3.648,-16.369c0,-8.28 -1.861,-14.486 -5.583,-18.617c-3.722,-4.131 -8.398,-6.197 -14.028,-6.197c-4.829,0 -8.42,1.395 -10.773,4.184c-2.353,2.789 -3.53,8.298 -3.53,16.526c0,8.245 1.891,14.364 5.674,18.356c3.783,3.992 8.394,5.988 13.832,5.988Z" style="fill:#2a6383;fill-rule:nonzero;"/><path d="M301.369,2148.721l0,-4.236l13.152,-7.897l47.354,-114.607l14.251,-5.517l46.465,120.124l11.27,7.897l0,4.236l-52.819,0l0,-4.236l17.571,-7.897l-13.205,-34.515l-44.87,0l-13.885,34.646l14.931,7.766l0,4.236l-40.216,0Zm42.647,-55.408l38.045,0l-18.644,-48.923l-19.402,48.923Z" style="fill:#2a6383;fill-rule:nonzero;"/><path d="M434.254,2148.721l0,-4.21l13.571,-7.348l0,-67.697l-14.251,-5.282l0,-4.236l29.966,-8.158l6.485,0l0,12.316c6.973,-4.166 13.105,-7.26 18.395,-9.283c5.291,-2.022 9.81,-3.033 13.558,-3.033c5.352,0 9.975,1.116 13.872,3.347c3.896,2.231 6.742,5.369 8.537,9.413c7.339,-4.253 13.828,-7.443 19.467,-9.57c5.639,-2.127 10.159,-3.19 13.558,-3.19c5.177,0 9.71,0.941 13.597,2.824c3.887,1.883 6.921,4.602 9.1,8.158c2.179,3.556 3.269,7.844 3.269,12.865l0,61.526l13.571,7.348l0,4.21l-40.582,0l0,-4.21l4.811,-7.348l0,-52.479c0,-4.009 -0.693,-7.356 -2.079,-10.041c-1.386,-2.685 -3.343,-4.733 -5.87,-6.145c-2.528,-1.412 -5.5,-2.118 -8.916,-2.118c-2.754,0 -5.613,0.401 -8.577,1.203c-2.963,0.802 -6.145,1.865 -9.544,3.19c0.227,0.732 0.362,1.486 0.405,2.262c0.044,0.776 0.065,1.643 0.065,2.602l0,61.526l11.714,7.348l0,4.21l-38.725,0l0,-4.21l4.89,-7.348l0,-52.479c0,-4.009 -0.697,-7.356 -2.092,-10.041c-1.395,-2.685 -3.325,-4.733 -5.792,-6.145c-2.467,-1.412 -5.365,-2.118 -8.694,-2.118c-2.876,0 -5.766,0.357 -8.668,1.072c-2.902,0.715 -5.992,1.804 -9.269,3.269l0,66.442l11.714,7.348l0,4.21l-47.485,0Z" style="fill:#2a6383;fill-rule:nonzero;"/><path d="M641.634,2151.519c-8.158,0 -15.606,-1.643 -22.344,-4.929c-6.737,-3.286 -12.089,-8.446 -16.055,-15.48c-3.966,-7.034 -5.949,-16.216 -5.949,-27.547c0,-8.21 1.19,-15.501 3.569,-21.873c2.379,-6.371 5.67,-11.78 9.871,-16.225c4.201,-4.445 9.025,-7.836 14.473,-10.172c5.448,-2.336 11.239,-3.504 17.375,-3.504c8.001,0 14.49,1.482 19.467,4.445c4.977,2.963 8.699,6.759 11.165,11.387c2.467,4.628 3.975,9.579 4.524,14.852c0.549,5.273 0.397,10.263 -0.458,14.97l-58.441,0c0.087,9.274 1.626,16.765 4.615,22.474c2.99,5.709 7.025,9.84 12.107,12.394c5.081,2.554 10.708,3.831 16.879,3.831c3.975,0 7.953,-0.536 11.937,-1.608c3.983,-1.072 8.119,-2.828 12.407,-5.269l2.824,5.857c-5.77,4.271 -11.889,8.071 -18.356,11.401c-6.467,3.33 -13.004,4.994 -19.611,4.994Zm-22.749,-61.736l37.052,0c0,-6.241 -0.824,-11.414 -2.471,-15.519c-1.647,-4.105 -4.018,-7.191 -7.112,-9.256c-3.094,-2.066 -6.951,-3.099 -11.571,-3.099c-3.452,0 -6.297,0.758 -8.537,2.275c-2.24,1.517 -3.94,4.271 -5.099,8.263c-1.159,3.992 -1.913,9.771 -2.262,17.336Z" style="fill:#2a6383;fill-rule:nonzero;"/><path d="M686.217,2148.721l0,-4.21l13.571,-7.348l0,-67.697l-14.251,-5.282l0,-4.236l29.966,-8.158l6.485,0l0,13.466c6.363,-4.829 11.645,-8.28 15.846,-10.355c4.201,-2.074 7.836,-3.112 10.904,-3.112c4.044,0 7.391,0.697 10.041,2.092l-4.105,24.004l-4.837,0l-16.526,-10.538c-1.795,0.314 -3.713,0.885 -5.753,1.713c-2.04,0.828 -3.896,1.8 -5.57,2.916l0,65.187l18.225,7.348l0,4.21l-53.996,0Z" style="fill:#2a6383;fill-rule:nonzero;"/><path d="M760.555,2148.721l0,-4.21l13.571,-7.348l0,-67.697l-14.251,-5.282l0,-4.236l29.966,-8.158l6.485,0l0,85.373l14.042,7.348l0,4.21l-49.812,0Zm25.521,-111.103c-1.203,0 -2.671,-0.37 -4.406,-1.111c-1.734,-0.741 -3.412,-1.708 -5.034,-2.902c-1.621,-1.194 -2.998,-2.475 -4.131,-3.844c-1.133,-1.368 -1.7,-2.698 -1.7,-3.988c0,-1.29 0.471,-2.737 1.412,-4.341c0.941,-1.604 2.148,-3.146 3.622,-4.628c1.473,-1.482 2.994,-2.702 4.563,-3.661c1.569,-0.959 2.955,-1.438 4.158,-1.438c1.116,0 2.541,0.37 4.275,1.111c1.734,0.741 3.434,1.721 5.099,2.942c1.665,1.22 3.064,2.515 4.197,3.883c1.133,1.368 1.7,2.724 1.7,4.066c0,1.29 -0.506,2.724 -1.517,4.301c-1.011,1.578 -2.253,3.107 -3.726,4.589c-1.473,1.482 -2.994,2.689 -4.563,3.622c-1.569,0.933 -2.885,1.399 -3.948,1.399Z" style="fill:#2a6383;fill-rule:nonzero;"/><path d="M853.695,2151.519c-6.154,0 -11.815,-0.963 -16.983,-2.889c-5.169,-1.926 -9.679,-4.816 -13.532,-8.668c-3.852,-3.852 -6.86,-8.655 -9.021,-14.408c-2.162,-5.753 -3.242,-12.455 -3.242,-20.108c0,-11.54 2.144,-21.271 6.432,-29.194c4.288,-7.923 10.159,-13.98 17.611,-18.173c7.452,-4.192 15.929,-6.289 25.429,-6.289c4.201,0 8.45,0.296 12.747,0.889c4.297,0.593 8.067,1.656 11.309,3.19l-4.001,23.638l-4.759,0l-15.061,-17.284c-0.767,-0.227 -2.148,-0.401 -4.144,-0.523c-1.996,-0.122 -3.543,-0.183 -4.641,-0.183c-4.149,0 -7.766,0.981 -10.851,2.942c-3.085,1.961 -5.434,5.286 -7.047,9.975c-1.612,4.689 -2.419,11.252 -2.419,19.689c0,10.477 1.517,18.792 4.55,24.945c3.033,6.154 7.064,10.546 12.093,13.179c5.029,2.632 10.429,3.948 16.199,3.948c3.469,0 7.064,-0.392 10.786,-1.177c3.722,-0.784 7.605,-2.031 11.649,-3.739l2.275,5.857c-3.87,2.632 -7.378,4.868 -10.525,6.707c-3.146,1.839 -6.058,3.316 -8.733,4.432c-2.676,1.116 -5.325,1.935 -7.949,2.458c-2.624,0.523 -5.347,0.784 -8.171,0.784Z" style="fill:#2a6383;fill-rule:nonzero;"/><path d="M918.987,2151.519c-4.323,0 -8.398,-1.007 -12.224,-3.02c-3.826,-2.013 -6.916,-4.798 -9.269,-8.354c-2.353,-3.556 -3.53,-7.609 -3.53,-12.159c0,-5.561 2.135,-10.699 6.406,-15.414c4.271,-4.715 10.385,-8.59 18.343,-11.623c7.958,-3.033 17.428,-4.619 28.41,-4.759l0,-14.591c0,-4.009 -0.715,-7.513 -2.144,-10.512c-1.429,-2.998 -3.6,-5.386 -6.511,-7.165c-2.911,-1.778 -6.633,-2.667 -11.165,-2.667c-0.506,0 -1.194,0.035 -2.066,0.105c-0.872,0.07 -1.525,0.174 -1.961,0.314l-17.388,20.186l-4.759,0l-2.013,-20.212c6.154,-2.423 11.627,-4.362 16.421,-5.818c4.794,-1.456 9.1,-2.493 12.917,-3.112c3.818,-0.619 7.269,-0.928 10.355,-0.928c6.031,0 11.257,0.941 15.676,2.824c4.419,1.883 7.844,4.667 10.276,8.354c2.432,3.687 3.648,8.311 3.648,13.872l0,58.676l14.852,4.262l0,4.184l-29.652,7.557l-6.485,0l0,-12.133c-4.149,2.876 -7.888,5.217 -11.218,7.021c-3.33,1.804 -6.341,3.107 -9.034,3.909c-2.693,0.802 -5.321,1.203 -7.884,1.203Zm11.662,-14.068c2.51,0 5.095,-0.357 7.753,-1.072c2.658,-0.715 5.565,-1.874 8.72,-3.478l0,-24.815c-1.918,-0.436 -4.314,-0.819 -7.191,-1.151c-2.876,-0.331 -6.058,-0.497 -9.544,-0.497c-5.108,0 -9.174,1.146 -12.198,3.438c-3.024,2.292 -4.537,6.036 -4.537,11.231c0,5.16 1.652,9.174 4.955,12.041c3.303,2.868 7.317,4.301 12.041,4.301Z" style="fill:#2a6383;fill-rule:nonzero;"/><path d="M985.193,2148.721l0,-4.21l13.571,-7.348l0,-67.697l-14.251,-5.282l0,-4.236l29.966,-8.158l6.485,0l0,12.263c6.52,-4.149 12.499,-7.23 17.938,-9.243c5.439,-2.013 10.067,-3.02 13.885,-3.02c5.073,0 9.605,0.902 13.597,2.706c3.992,1.804 7.147,4.463 9.466,7.975c2.318,3.513 3.478,7.901 3.478,13.166l0,61.526l13.571,7.348l0,4.21l-41.445,0l0,-4.21l5.674,-7.348l0,-52.008c0,-4.166 -0.819,-7.631 -2.458,-10.394c-1.639,-2.763 -3.835,-4.85 -6.589,-6.262c-2.754,-1.412 -5.796,-2.118 -9.126,-2.118c-2.789,0 -5.753,0.357 -8.89,1.072c-3.138,0.715 -6.171,1.804 -9.1,3.269l0,66.442l11.924,7.348l0,4.21l-47.694,0Z" style="fill:#2a6383;fill-rule:nonzero;"/><path d="M1184.468,2151.519c-6.973,0 -13.466,-0.453 -19.48,-1.36c-6.014,-0.906 -11.252,-2.196 -15.715,-3.87l5.073,-29.234l5.779,0l10.564,20.735c3.852,1.238 7.892,2.087 12.12,2.549c4.227,0.462 8.494,0.737 12.799,0.824c3.8,0 7.226,-0.675 10.276,-2.026c3.051,-1.351 5.474,-3.473 7.269,-6.367c1.795,-2.894 2.693,-6.546 2.693,-10.956c0,-5.927 -1.691,-10.987 -5.073,-15.179c-3.382,-4.192 -9.518,-8.075 -18.408,-11.649l-11.505,-4.837c-5.962,-2.475 -11.104,-5.317 -15.427,-8.524c-4.323,-3.207 -7.644,-6.995 -9.962,-11.361c-2.318,-4.367 -3.478,-9.374 -3.478,-15.022c0,-6.99 1.909,-13.288 5.726,-18.892c3.818,-5.604 9.33,-10.08 16.539,-13.427c7.208,-3.347 15.85,-5.02 25.926,-5.02c7.287,0 13.837,0.523 19.65,1.569c5.814,1.046 10.568,2.336 14.264,3.87l-4.864,28.397l-5.779,0l-10.851,-20.317c-3.364,-1.29 -6.973,-2.179 -10.825,-2.667c-3.852,-0.488 -7.67,-0.732 -11.453,-0.732c-5.77,0 -10.237,1.508 -13.401,4.524c-3.164,3.016 -4.746,7.443 -4.746,13.283c0,6.467 1.918,11.557 5.753,15.27c3.835,3.713 9.1,6.964 15.793,9.753l11.505,4.811c7.844,3.173 14.033,6.498 18.565,9.975c4.532,3.478 7.735,7.274 9.609,11.387c1.874,4.114 2.811,8.873 2.811,14.277c0,7.949 -2.271,14.939 -6.812,20.971c-4.541,6.031 -10.695,10.747 -18.461,14.146c-7.766,3.399 -16.591,5.099 -26.475,5.099Z" style="fill:#2a6383;fill-rule:nonzero;"/><path d="M1288.119,2151.519c-8.472,0 -15.841,-1.861 -22.108,-5.583c-6.267,-3.722 -11.095,-9.139 -14.486,-16.251c-3.391,-7.112 -5.086,-15.767 -5.086,-25.965c0,-10.843 2.148,-20.143 6.445,-27.9c4.297,-7.757 10.267,-13.723 17.911,-17.898c7.644,-4.175 16.425,-6.262 26.344,-6.262c8.559,0 15.915,1.861 22.069,5.583c6.154,3.722 10.926,9.161 14.316,16.316c3.391,7.156 5.086,15.833 5.086,26.03c0,10.756 -2.135,20.012 -6.406,27.769c-4.271,7.757 -10.172,13.723 -17.702,17.898c-7.531,4.175 -16.325,6.262 -26.383,6.262Zm7.112,-11.453c5.16,0 9.239,-0.95 12.237,-2.85c2.998,-1.9 5.156,-5.404 6.472,-10.512c1.316,-5.108 1.974,-12.351 1.974,-21.729c0,-13.667 -2.292,-24.056 -6.877,-31.168c-4.585,-7.112 -11.017,-10.668 -19.297,-10.668c-4.968,0 -8.973,0.976 -12.015,2.929c-3.042,1.952 -5.234,5.452 -6.576,10.498c-1.342,5.047 -2.013,12.303 -2.013,21.768c0,13.667 2.34,24.039 7.021,31.116c4.681,7.077 11.039,10.616 19.075,10.616Z" style="fill:#2a6383;fill-rule:nonzero;"/><path d="M1391.116,2151.519c-6.154,0 -11.815,-0.963 -16.983,-2.889c-5.169,-1.926 -9.679,-4.816 -13.532,-8.668c-3.852,-3.852 -6.86,-8.655 -9.021,-14.408c-2.162,-5.753 -3.242,-12.455 -3.242,-20.108c0,-11.54 2.144,-21.271 6.432,-29.194c4.288,-7.923 10.159,-13.98 17.611,-18.173c7.452,-4.192 15.929,-6.289 25.429,-6.289c4.201,0 8.45,0.296 12.747,0.889c4.297,0.593 8.067,1.656 11.309,3.19l-4.001,23.638l-4.759,0l-15.061,-17.284c-0.767,-0.227 -2.148,-0.401 -4.144,-0.523c-1.996,-0.122 -3.543,-0.183 -4.641,-0.183c-4.149,0 -7.766,0.981 -10.851,2.942c-3.085,1.961 -5.434,5.286 -7.047,9.975c-1.612,4.689 -2.419,11.252 -2.419,19.689c0,10.477 1.517,18.792 4.55,24.945c3.033,6.154 7.064,10.546 12.093,13.179c5.029,2.632 10.429,3.948 16.199,3.948c3.469,0 7.064,-0.392 10.786,-1.177c3.722,-0.784 7.605,-2.031 11.649,-3.739l2.275,5.857c-3.87,2.632 -7.378,4.868 -10.525,6.707c-3.146,1.839 -6.058,3.316 -8.733,4.432c-2.676,1.116 -5.325,1.935 -7.949,2.458c-2.624,0.523 -5.347,0.784 -8.171,0.784Z" style="fill:#2a6383;fill-rule:nonzero;"/><path d="M1433.92,2148.721l0,-4.21l13.571,-7.348l0,-67.697l-14.251,-5.282l0,-4.236l29.966,-8.158l6.485,0l0,85.373l14.042,7.348l0,4.21l-49.812,0Zm25.521,-111.103c-1.203,0 -2.671,-0.37 -4.406,-1.111c-1.734,-0.741 -3.412,-1.708 -5.034,-2.902c-1.621,-1.194 -2.998,-2.475 -4.131,-3.844c-1.133,-1.368 -1.7,-2.698 -1.7,-3.988c0,-1.29 0.471,-2.737 1.412,-4.341c0.941,-1.604 2.148,-3.146 3.622,-4.628c1.473,-1.482 2.994,-2.702 4.563,-3.661c1.569,-0.959 2.955,-1.438 4.158,-1.438c1.116,0 2.541,0.37 4.275,1.111c1.734,0.741 3.434,1.721 5.099,2.942c1.665,1.22 3.064,2.515 4.197,3.883c1.133,1.368 1.7,2.724 1.7,4.066c0,1.29 -0.506,2.724 -1.517,4.301c-1.011,1.578 -2.253,3.107 -3.726,4.589c-1.473,1.482 -2.994,2.689 -4.563,3.622c-1.569,0.933 -2.885,1.399 -3.948,1.399Z" style="fill:#2a6383;fill-rule:nonzero;"/><path d="M1528.602,2151.519c-8.158,0 -15.606,-1.643 -22.344,-4.929c-6.737,-3.286 -12.089,-8.446 -16.055,-15.48c-3.966,-7.034 -5.949,-16.216 -5.949,-27.547c0,-8.21 1.19,-15.501 3.569,-21.873c2.379,-6.371 5.67,-11.78 9.871,-16.225c4.201,-4.445 9.025,-7.836 14.473,-10.172c5.448,-2.336 11.239,-3.504 17.375,-3.504c8.001,0 14.49,1.482 19.467,4.445c4.977,2.963 8.699,6.759 11.165,11.387c2.467,4.628 3.975,9.579 4.524,14.852c0.549,5.273 0.397,10.263 -0.458,14.97l-58.441,0c0.087,9.274 1.626,16.765 4.615,22.474c2.99,5.709 7.025,9.84 12.107,12.394c5.081,2.554 10.708,3.831 16.879,3.831c3.975,0 7.953,-0.536 11.937,-1.608c3.983,-1.072 8.119,-2.828 12.407,-5.269l2.824,5.857c-5.77,4.271 -11.889,8.071 -18.356,11.401c-6.467,3.33 -13.004,4.994 -19.611,4.994Zm-22.749,-61.736l37.052,0c0,-6.241 -0.824,-11.414 -2.471,-15.519c-1.647,-4.105 -4.018,-7.191 -7.112,-9.256c-3.094,-2.066 -6.951,-3.099 -11.571,-3.099c-3.452,0 -6.297,0.758 -8.537,2.275c-2.24,1.517 -3.94,4.271 -5.099,8.263c-1.159,3.992 -1.913,9.771 -2.262,17.336Z" style="fill:#2a6383;fill-rule:nonzero;"/><path d="M1609.792,2151.519c-4.794,0 -9.265,-0.976 -13.414,-2.929c-4.149,-1.952 -7.422,-4.898 -9.819,-8.838c-2.397,-3.94 -3.543,-8.786 -3.438,-14.538l1.151,-62.259l-14.486,0l0,-4.785l30.646,-20.945l5.962,0l-0.288,17.362l9.806,0l22.592,-1.046l-2.379,11.087l-20.212,-1.673l-9.884,0l-0.837,56.009c-0.139,6.241 1.46,10.804 4.798,13.689c3.338,2.885 7.247,4.328 11.727,4.328c3.434,0 6.323,-0.288 8.668,-0.863c2.345,-0.575 4.894,-1.316 7.648,-2.223l2.066,5.648c-3.452,2.04 -6.899,3.979 -10.342,5.818c-3.443,1.839 -6.833,3.325 -10.172,4.458c-3.338,1.133 -6.602,1.7 -9.792,1.7Z" style="fill:#2a6383;fill-rule:nonzero;"/><path d="M1656.545,2197.409c-2.284,0 -4.672,-0.279 -7.165,-0.837c-2.493,-0.558 -4.637,-1.316 -6.432,-2.275l3.112,-17.99l4.105,0l13.231,9.989c3.051,-0.628 6.219,-2.057 9.505,-4.288c3.286,-2.231 6.554,-6.018 9.806,-11.361c3.251,-5.343 6.297,-12.869 9.139,-22.579l-7.609,0.941l-33.992,-82.889l-9.806,-7.321l0,-4.21l49.263,0l0,4.21l-14.225,7.583l24.082,60.533l21.572,-60.533l-11.688,-7.583l0,-4.21l34.934,0l0,4.21l-11.008,7.348l-32.345,80.327c-2.51,10.058 -5.478,18.382 -8.903,24.971c-3.425,6.589 -7.099,11.784 -11.021,15.584c-3.922,3.8 -7.971,6.48 -12.146,8.041c-4.175,1.56 -8.311,2.34 -12.407,2.34Z" style="fill:#2a6383;fill-rule:nonzero;"/></g></svg>